<svg xmlns="http://www.w3.org/2000/svg" width="45" height="48.619"><path fill="#fff" d="M35.829 30.273a9.157 9.157 0 00-7.057 3.321l-10.955-6.22a9.153 9.153 0 000-6.127l10.954-6.221a9.162 9.162 0 10-1.587-2.79L16.23 18.457a9.172 9.172 0 100 11.705l10.954 6.22a9.171 9.171 0 108.645-6.11zm0-27.063a5.964 5.964 0 11-5.963 5.962 5.969 5.969 0 015.963-5.962zM9.174 30.273a5.963 5.963 0 115.962-5.962 5.97 5.97 0 01-5.962 5.962zM35.829 45.41a5.964 5.964 0 115.962-5.962 5.97 5.97 0 01-5.962 5.962z"/></svg>