<svg xmlns="http://www.w3.org/2000/svg" width="50" height="50"><path fill="#fff" d="M48.535 20.605H47.07V1.465A1.465 1.465 0 0045.605 0h-8.789a1.465 1.465 0 00-1.465 1.465V2.93h-8.788a1.465 1.465 0 00-1.219 2.277l2.388 3.582-2.388 3.582a1.465 1.465 0 001.219 2.277h10.253a1.465 1.465 0 001.465-1.465v-1.464h5.859v8.887h-7.324a1.465 1.465 0 00-1.465 1.465v7.324H25.1a1.465 1.465 0 00-1.465 1.465v4.395H13.281a1.465 1.465 0 00-1.465 1.465v4.395H1.465A1.465 1.465 0 000 42.578v5.957A1.465 1.465 0 001.465 50h47.07A1.465 1.465 0 0050 48.535V22.07a1.465 1.465 0 00-1.465-1.465zm-13.183-8.886H29.3L30.711 9.6a1.465 1.465 0 000-1.625L29.3 5.859h6.052zm2.93-8.789h5.859v5.859h-5.86zM2.93 44.043h8.887v3.027H2.93zm11.816-5.859h8.887v8.886h-8.887zm11.816-5.859h8.789V47.07h-8.788zM47.07 47.07h-8.789V23.535h8.789z"/></svg>