<svg xmlns="http://www.w3.org/2000/svg" width="213" height="70"><g stroke="#fff" stroke-miterlimit="10"><path d="M0 0h213v70H0z" stroke="none"/><path fill="none" d="M.5.5h212v69H.5z"/></g><text fill="#fff" font-family="Helvetica" font-size="15" transform="translate(68 23)"><tspan x="0" y="0">Download on the</tspan></text><text fill="#fff" font-family="Helvetica" font-size="26" transform="translate(68 48)"><tspan x="0" y="0">App Store</tspan></text><path fill="#fff" d="M21.247 48.692c-3.614-5.2-6.373-14.7-2.662-21.114a10.293 10.293 0 018.7-5.253c2.717-.049 5.284 1.823 6.944 1.823s4.777-2.249 8.052-1.919a9.832 9.832 0 017.69 4.15 9.489 9.489 0 00-4.539 7.981 9.252 9.252 0 005.643 8.474 23 23 0 01-2.916 5.958c-1.755 2.555-3.57 5.094-6.436 5.147-2.821.053-3.725-1.663-6.944-1.663s-4.228 1.616-6.891 1.716h-.144c-2.697.008-4.758-2.8-6.497-5.3zm12.646-26.941a8.754 8.754 0 012.23-6.485 9.455 9.455 0 016.2-3.174 9.219 9.219 0 01-2.19 6.693 7.982 7.982 0 01-5.81 2.982q-.217 0-.43-.016z"/></svg>