<svg xmlns="http://www.w3.org/2000/svg" width="42.188" height="48"><path fill="#fbb316" d="M0 24a9.814 9.814 0 002.919 6.989 9.966 9.966 0 001.742 7.239 9.8 9.8 0 003.789 3.2 7.031 7.031 0 0012.644 3.75 7.031 7.031 0 0012.644-3.75 9.986 9.986 0 005.531-10.443 9.827 9.827 0 000-13.978 9.986 9.986 0 00-5.531-10.439 7.031 7.031 0 00-12.644-3.75A7.031 7.031 0 008.45 6.568a9.987 9.987 0 00-5.531 10.443A9.814 9.814 0 000 24zM26.719 2.813A4.232 4.232 0 0130.726 5.7a9.266 9.266 0 00-1.2-.078 1.407 1.407 0 100 2.813 7.094 7.094 0 017.02 6.665 9.784 9.784 0 00-4.2-.943 1.407 1.407 0 000 2.813 7.031 7.031 0 110 14.062 1.407 1.407 0 000 2.813 9.784 9.784 0 004.2-.943 7.091 7.091 0 01-7.015 6.662 1.407 1.407 0 100 2.813 9.262 9.262 0 001.2-.079 4.221 4.221 0 01-8.231-1.329v-2.906c0-.573 1.1-1.406 2.812-1.406a4.735 4.735 0 011.084.123 1.406 1.406 0 10.645-2.738 7.553 7.553 0 00-1.729-.2 7.207 7.207 0 00-2.812.549v-8.985c0-.049.151-.372.87-.731a8.64 8.64 0 016.7 0c.719.359.87.682.87.731a1.407 1.407 0 002.813 0 3.755 3.755 0 00-2.425-3.247 10.527 10.527 0 00-4.606-.972 10.879 10.879 0 00-4.219.794v-6.418c0-.573 1.1-1.406 2.812-1.406a4.735 4.735 0 011.084.123 1.406 1.406 0 10.645-2.738 7.548 7.548 0 00-1.729-.2 7.207 7.207 0 00-2.812.549v-4.86a4.224 4.224 0 014.216-4.218zM9.883 9.007a8.429 8.429 0 012.773-.57 1.406 1.406 0 100-2.812 9.266 9.266 0 00-1.2.078 4.221 4.221 0 018.226 1.328v4.861a7.207 7.207 0 00-2.812-.549 7.547 7.547 0 00-1.729.2 1.406 1.406 0 00.645 2.738 4.735 4.735 0 011.084-.123c1.717 0 2.812.833 2.812 1.406v6.419a10.879 10.879 0 00-4.219-.794 10.527 10.527 0 00-4.606.972 3.755 3.755 0 00-2.425 3.247 1.406 1.406 0 102.812 0c0-.049.151-.372.87-.731a8.64 8.64 0 016.7 0c.719.359.87.682.87.731v8.986a7.207 7.207 0 00-2.812-.549 7.548 7.548 0 00-1.729.2 1.406 1.406 0 00.645 2.738 4.735 4.735 0 011.084-.123c1.717 0 2.812.833 2.812 1.406v2.906a4.221 4.221 0 01-8.223 1.328 9.261 9.261 0 001.2.079 1.407 1.407 0 100-2.813A7.092 7.092 0 015.642 32.9a9.784 9.784 0 004.2.943 1.406 1.406 0 000-2.812 7.031 7.031 0 110-14.062 1.407 1.407 0 000-2.813 9.784 9.784 0 00-4.2.943 7.225 7.225 0 014.241-6.092z"/></svg>