<svg xmlns="http://www.w3.org/2000/svg" id="date_1_" width="50" height="50"><defs><style>.cls-1{fill:#fff}</style></defs><path id="Path_7777" d="M50 16.113V4.785a1.465 1.465 0 00-1.465-1.465h-4.528a4.395 4.395 0 00-8.522 0h-20.97a4.395 4.395 0 00-8.522 0H1.465A1.465 1.465 0 000 4.785v43.75A1.465 1.465 0 001.465 50h47.07A1.465 1.465 0 0050 48.535V16.114zM38.281 4.395a1.467 1.467 0 011.465-1.465 1.467 1.467 0 011.465 1.465v2.93a1.465 1.465 0 11-2.93 0v-2.93zm-29.492 0a1.467 1.467 0 011.465-1.465 1.467 1.467 0 011.465 1.465v2.93a1.465 1.465 0 01-2.93 0v-2.93zM5.859 6.25v1.074a4.395 4.395 0 008.789 0V6.25h20.7v1.074a4.395 4.395 0 008.789 0V6.25h2.93v8.4H2.93v-8.4zM2.93 47.07V17.578h44.14V47.07z" class="cls-1"/><path id="Path_7778" d="M93.888 233.664H93.4v-4.2A1.465 1.465 0 0091.935 228h-5.86a1.465 1.465 0 00-1.465 1.465v4.2H73.673v-4.2A1.465 1.465 0 0072.208 228h-5.859a1.465 1.465 0 00-1.465 1.465v4.2H64.4a4.395 4.395 0 100 8.789h.488v4.2a1.465 1.465 0 001.465 1.465h5.859a1.465 1.465 0 001.465-1.465v-4.2H84.61v4.2a1.465 1.465 0 001.465 1.465h5.859a1.465 1.465 0 001.465-1.465v-4.2h.488a4.395 4.395 0 000-8.789zM64.4 239.523a1.465 1.465 0 010-2.93h.488v2.93zm3.418 5.664V230.93h2.93v14.257zm5.859-5.664v-2.93H84.61v2.93zm16.8 5.664H87.54V230.93h2.93zm3.418-5.664H93.4v-2.93h.488a1.465 1.465 0 010 2.93z" class="cls-1" transform="translate(-54.142 -205.734)"/></svg>