<svg xmlns="http://www.w3.org/2000/svg" width="36" height="36"><g data-name="telephone-call(4)" fill="#fbb316"><path data-name="Path 7902" d="M34.842 25.913c-.064-.053-7.259-5.172-9.2-4.859-.937.166-1.472.805-2.546 2.084-.173.206-.589.7-.911 1.051a14.95 14.95 0 01-1.981-.806 16.44 16.44 0 01-7.587-7.583 14.949 14.949 0 01-.806-1.981c.353-.323.847-.739 1.058-.917 1.273-1.068 1.912-1.6 2.077-2.543.34-1.943-4.806-9.136-4.859-9.2A2.747 2.747 0 008.04 0C5.954 0 0 7.723 0 9.025c0 .076.109 7.76 9.586 17.4C19.214 35.891 26.9 36 26.975 36 28.276 36 36 30.046 36 27.96a2.749 2.749 0 00-1.158-2.047zm-8 7.68c-1.042-.089-7.5-.94-15.562-8.861-7.96-8.1-8.789-14.57-8.872-15.572a32.465 32.465 0 015.648-6.674 4.3 4.3 0 01.193.214 42.469 42.469 0 014.289 7.276 14.263 14.263 0 01-1.219 1.093A12.039 12.039 0 009.5 12.775a1.2 1.2 0 00-.205.9 13.7 13.7 0 001.158 3.169 18.852 18.852 0 008.7 8.7 13.667 13.667 0 003.171 1.156 1.189 1.189 0 00.9-.205 12.09 12.09 0 001.712-1.822c.377-.449.88-1.048 1.07-1.217a42.175 42.175 0 017.294 4.295c.1.084.17.149.217.191a32.443 32.443 0 01-6.674 5.648z"/><path data-name="Path 7903" d="M26.4 16.8h2.4a9.611 9.611 0 00-9.6-9.6v2.4a7.207 7.207 0 017.2 7.2z"/><path data-name="Path 7904" d="M32.4 16.8h2.4A15.618 15.618 0 0019.2 1.2v2.4a13.216 13.216 0 0113.2 13.2z"/></g></svg>