<svg xmlns="http://www.w3.org/2000/svg" width="367.57" height="367.57"><g fill="none" stroke-dasharray="1 13"><path d="M183.785 0A183.785 183.785 0 110 183.785 183.785 183.785 0 01183.785 0z"/><path fill="#fbb316" d="M183.785 0h.597l.506.003-.177 30-.926-.003V0zm14.088.532l1.098.086-2.445 29.9-.92-.072L197.872.532zm14.006 1.602l.132.02.018.003.04.006.412.064.006.001.033.005.447.07-4.727 29.626-.91-.142 4.55-29.653zm13.842 2.672c.194.045.388.09.581.137l.025.006.024.005.048.012.01.002.267.064.008.001.055.014.034.008.018.004-6.994 29.173-.895-.211 6.819-29.215zm13.593 3.732l.582.185.01.003.037.012.04.013.007.002.371.12-9.226 28.546-.875-.28 9.054-28.601zm13.265 4.77l.805.328h.001l.046.02.034.013.01.004.122.05-11.403 27.749-.851-.347 11.236-27.817zm12.857 5.78l.65.325.004.002c.109.054.221.11.33.166l-13.507 26.787-.823-.412 13.346-26.868zm12.375 6.752l.196.117.03.019.014.008c.235.14.469.281.703.423l-15.525 25.67-.789-.473 15.37-25.764zm11.82 7.681l.272.193.045.031.003.003.553.393.014.01.01.007-17.444 24.408-.75-.534 17.297-24.51zm11.198 8.562c.242.2.484.4.725.602l.121.102-19.255 23.005-.709-.59 19.118-23.119zm10.514 9.391c.252.243.51.495.762.74l.027.026-20.952 21.471-.662-.641 20.825-21.596zm9.767 10.165l.314.354.008.009.018.02.389.44-22.527 19.813-.611-.69L321.11 61.64zm8.964 10.88l.016.021c.216.283.43.567.644.851l.004.005-23.973 18.036-.556-.734 23.865-18.18zm8.107 11.532l.313.485.02.03.005.009.257.4-25.281 16.152-.498-.774L338.18 84.05zm7.2 12.118l.237.437.01.019.019.035.025.047.005.009.227.422-26.446 14.164-.437-.81 26.36-14.323zm6.249 12.637l.105.236v.001l.024.051.007.017.019.041.01.022.281.638-27.457 12.086-.373-.84 27.384-12.252zm5.256 13.08l.028.078.34.96-28.309 9.93-.307-.866 28.248-10.102zm4.23 13.447c.097.354.192.707.286 1.062l-28.99 7.715-.24-.887 28.944-7.89zm3.18 13.733l.035.184.004.023.003.015.024.128.001.007.011.058.009.046.003.013.113.607-29.5 5.456-.17-.903 29.467-5.634zm2.112 13.937c.04.36.082.732.12 1.094l-29.831 3.177-.1-.916 29.811-3.355zm1.042 14.058l.014.405v.01l.002.045v.032l.002.029.001.053v.008l.017.518-29.987.901-.03-.923 29.98-1.078zm-30.002 12.919l29.977 1.184c-.012.3-.024.6-.038.9l-.002.038v.025l-.007.134-29.969-1.36.04-.921zm-.914 11.776l29.8 3.461c-.043.367-.085.725-.13 1.091l-29.779-3.639.11-.913zm-1.808 11.651l29.446 5.74-.133.672v.003l-.012.058-.003.013-.009.045-.006.031-.005.028-.011.054v.003l-.035.171-29.41-5.916.178-.902zm-2.698 11.467l28.915 7.994-.128.46-.001.005-.017.062-.002.005-.074.263-.016.06-.004.013-.012.042-.011.039-.004.015-.027.096-28.867-8.168.248-.886zm-3.575 11.223l28.211 10.203-.004.013-.004.01c-.123.341-.243.67-.369 1.01l-28.15-10.373.316-.863zm-4.432 10.915l27.34 12.35-.05.111c-.134.297-.27.594-.405.89l-27.266-12.514.381-.837zm-5.262 10.547l26.31 14.416-.092.165-.019.035-.005.01c-.122.223-.241.437-.365.66l-.004.009-.026.047-.011.019-.01.018-26.222-14.574.444-.805zm-6.06 10.118l25.126 16.391-.14.214-.01.015-.005.008-.45.683-25.027-16.541.505-.77zm-6.823 9.631l23.8 18.264c-.22.287-.45.584-.672.87l-23.69-18.405.562-.729zm-7.54 9.086l22.338 20.025c-.242.27-.494.55-.737.817l-22.218-20.158.617-.684zm-8.213 8.487l20.748 21.669c-.265.253-.53.506-.797.758l-20.619-21.792.668-.635zm-8.835 7.835l19.036 23.187-.087.072-.765.624-18.897-23.3.713-.583zm-9.403 7.137l17.21 24.573-.215.15-.004.003-.021.015c-.22.154-.441.307-.663.46l-17.063-24.675.756-.526zm-9.916 6.393l15.279 25.819-.166.098-.017.01-.008.004-.758.445-15.123-25.91.793-.466zm-10.37 5.61l13.25 26.916a180.3 180.3 0 01-.988.483l-13.088-26.995.826-.403zm-10.763 4.793l11.136 27.857-.595.236-.02.008-.037.015-.036.014-.028.011-.034.014-.035.013-.023.01-.215.084-10.968-27.923.855-.339zm-11.098 3.947l8.952 28.633c-.348.109-.702.218-1.051.325l-8.779-28.687.878-.271zm-11.369 3.077l6.714 29.239-.304.07-.77.173-6.538-29.279.898-.203zm-11.58 2.193l4.442 29.669-.934.137-.153.022L205.879 336l.91-.133zm-11.73 1.299l2.161 29.922-.219.015c-.292.021-.584.041-.877.06l-1.984-29.934.918-.063zm-12.75.398l.925.006-.105 30-.615-.003-.486-.004.28-29.999zm-11.81-.557l.918.076-2.373 29.906-1.097-.09 2.551-29.892zm-11.71-1.452l.91.145-4.655 29.637-.016-.002-.034-.006-.033-.005-.04-.006-.028-.005-.044-.007-.02-.003-.053-.008-.01-.002-.521-.083-.288-.047 4.833-29.608zm-11.547-2.345l.893.215-6.923 29.19h-.002l-.063-.015-.004-.001-.06-.014-.019-.005-.044-.01-.044-.01-.018-.005c-.27-.065-.544-.13-.815-.197l7.1-29.148zm-11.326-3.226l.873.283-9.156 28.568-.515-.166-.004-.001-.026-.009-.398-.129-.103-.034 9.329-28.512zm-11.046-4.093l.851.35-11.335 27.776c-.34-.139-.68-.278-1.018-.419l11.502-27.707zm-10.7-4.935l.82.415-13.441 26.82-.56-.282-.031-.016-.027-.013-.364-.185 13.602-26.739zm-10.297-5.746l.787.476-15.462 25.709-.102-.062c-.26-.156-.519-.313-.777-.47l-.004-.003-.019-.011-.039-.024 15.616-25.615zm-9.832-6.524l.749.536-17.385 24.45-.51-.365-.048-.034h-.001l-.27-.194-.015-.011-.022-.016-.028-.02 17.53-24.346zm-9.31-7.26l.706.593-19.2 23.051-.61-.51-.02-.018-.018-.014-.037-.031-.004-.004-.154-.13 19.337-22.936zm-8.732-7.95l.659.644-20.9 21.522h-.001l-.688-.672-.082-.08-.016-.017 21.028-21.397zm-8.102-8.592l.609.692-22.48 19.867-.113-.129-.015-.017-.019-.021-.032-.036-.007-.009-.086-.097-.002-.003-.041-.046-.01-.012-.031-.035-.025-.028-.018-.021-.035-.039-.008-.01-.038-.043-.007-.008-.082-.093-.011-.014-.024-.027-.03-.034-.002-.003-.09-.102 22.597-19.732zm-7.42-9.183l.553.736L37.1 294.53l-.006-.008-.015-.02-.023-.031-.028-.037-.012-.016-.027-.036-.017-.022-.017-.022-.027-.037-.006-.007-.482-.643L60.476 275.7zm-6.695-9.719l.495.776-25.242 16.213c-.198-.309-.396-.618-.592-.928l25.339-16.06zm-5.927-10.196l.434.812-26.412 14.228-.097-.181-.003-.005-.026-.05-.027-.049-.005-.009-.285-.535-.076-.141 26.497-14.07zm-5.123-10.614l.37.842-27.428 12.153-.194-.44-.024-.055-.007-.016-.02-.043-.01-.024-.016-.037-.012-.028-.016-.036-.011-.025-.02-.043-.005-.014-.108-.246 27.5-11.988zM38.445 234.2l.304.866-28.284 10c-.123-.347-.242-.687-.363-1.036l28.343-9.83zm-3.426-11.268l.236.888-28.972 7.786-.025-.094-.006-.02-.01-.04-.01-.036-.006-.022-.012-.048-.005-.017-.014-.051-.003-.012-.015-.056-.003-.01-.014-.056-.003-.01-.015-.058-.002-.006-.016-.062-.123-.465 29.018-7.611zm-2.546-11.503l.166.904-29.486 5.529-.124-.667c0-.006-.002-.01-.003-.017l-.005-.026-.067-.372 29.519-5.351zm-1.657-11.678l.098.917-29.824 3.249-.013-.124-.006-.053-.001-.008-.061-.573-.003-.024-.004-.047-.003-.026-.005-.045-.002-.022-.006-.054v-.008l-.012-.11 29.842-3.072zm-.76-11.793l.027.924-29.985.973-.02-.684-.001-.017-.001-.043-.01-.357 29.99-.796zM.222 174.657l29.964 1.465-.042.92-29.973-1.289.05-1.096zm1.224-14.045l29.765 3.745-.112.913-29.787-3.566.049-.406.003-.029.004-.032.078-.625zm2.296-13.91l29.39 6.022-.183.903-29.425-5.844c.07-.358.145-.724.218-1.08zm3.36-13.69l28.837 8.272-.25.885-28.887-8.098.3-1.059zm4.408-13.39l28.112 10.475-.319.862-28.174-10.304.216-.588.003-.007.021-.059.002-.004.139-.374zm5.428-13.008l27.22 12.611-.384.835-27.296-12.447.1-.217.006-.014.02-.043.01-.025c.006-.01.012-.025.017-.035l.012-.027.02-.042.008-.018.024-.052c0-.003.002-.005.003-.007l.196-.425.013-.029.003-.006.028-.06zm6.414-12.554l26.17 14.668-.448.804-26.257-14.51.361-.651.007-.012.006-.011.16-.288zm7.359-12.023l24.968 16.63-.508.768-25.067-16.48.3-.456.006-.009.03-.044.01-.017.024-.037.02-.028c.004-.008.01-.016.015-.023l.026-.04.009-.013.167-.251zm8.257-11.425L62.594 89.1l-.565.727L38.294 71.48l.286-.37.015-.019.02-.027.026-.032.015-.02.025-.032.023-.029.017-.021.248-.318zm9.105-10.762L70.22 80.087l-.62.682-22.267-20.105.647-.712.042-.046.051-.056zm9.899-10.037l20.54 21.865-.669.633-20.67-21.742v-.001l.035-.033.02-.019.02-.02.031-.029.018-.017.03-.029.03-.028.017-.016.598-.564zm10.634-9.253l18.815 23.367-.716.58-18.953-23.254.207-.17.034-.027.009-.007.604-.489zm11.31-8.415L96.892 56.88l-.758.524L79.012 32.77c.3-.21.603-.418.905-.625zm11.92-7.526l15.03 25.963-.794.464-15.186-25.873.157-.092.003-.002.03-.017.75-.437.01-.006zm12.462-6.588l12.99 27.041-.827.4L103.31 18.51l.99-.48zm12.932-5.61l10.87 27.962-.856.336-11.036-27.896c.26-.104.51-.201.77-.303l.254-.1zm13.328-4.595l8.675 28.718-.88.269-8.848-28.666.007-.002.04-.012.05-.016.004-.001.33-.101.012-.004.042-.013.034-.01.016-.005.518-.157zm13.64-3.552l6.433 29.302-.897.2-6.608-29.263c.353-.08.718-.161 1.073-.24zm13.875-2.49l4.16 29.71-.91.13-4.337-29.684c.256-.038.523-.076.78-.112l.307-.044zM172.1.366l1.879 29.94-.92.061-2.056-29.93.376-.025.03-.002.019-.001.45-.03h.023l.021-.002.178-.011z"/></g></svg>