<svg xmlns="http://www.w3.org/2000/svg" width="40" height="35.157"><path fill="#fbb316" d="M32.625 7.375a1.172 1.172 0 00-.829-.343h-3.061l.781-2.344h9.312a1.172 1.172 0 100-2.344H30.3l.267-.8a1.173 1.173 0 10-2.226-.743l-.514 1.542H12.173L11.659.801a1.172 1.172 0 10-2.224.741l.267.8h-8.53a1.172 1.172 0 000 2.344h9.312l.781 2.344H8.2a1.172 1.172 0 00-.829.343L.343 14.406a1.172 1.172 0 000 1.657l4.688 4.688a1.172 1.172 0 001.657 0l2.687-2.687v15.921a1.172 1.172 0 001.172 1.172h18.906a1.172 1.172 0 001.172-1.172V18.064l2.687 2.687a1.172 1.172 0 001.657 0l4.688-4.687a1.172 1.172 0 000-1.657zM12.954 4.688h14.092l-.781 2.344h-1.5a1.172 1.172 0 00-1.171 1.169 3.595 3.595 0 01-7.187 0 1.172 1.172 0 00-1.172-1.172h-1.5zM8.689 9.376h5.493a5.954 5.954 0 0011.636 0h5.493l2.344 2.344-3.03 3.03-.343-.343a1.172 1.172 0 00-2 .829v12.89H11.719V15.235a1.172 1.172 0 00-2-.829l-.343.343-3.03-3.03zm-2.829 8.89l-3.03-3.03 1.858-1.858 3.03 3.03zm5.859 14.548v-2.345h16.562v2.344zm22.422-14.549l-1.858-1.859 3.03-3.03 1.858 1.858zm0 0"/></svg>