<svg xmlns="http://www.w3.org/2000/svg" width="50" height="49.063"><defs><style>.cls-1{fill:#fff}</style></defs><g id="community_1_" transform="translate(0 -4.797)"><path id="Path_7787" d="M42.088 218.3a7.139 7.139 0 10-9.8 0 12.876 12.876 0 00-4.929 3.629 15 15 0 00-7.143-5.73 8.189 8.189 0 10-10.6 0A14.938 14.938 0 000 230.135a1.465 1.465 0 001.465 1.465h47.07A1.465 1.465 0 0050 230.135a12.832 12.832 0 00-7.912-11.835zm-12.333 10.37a14.8 14.8 0 00-.9-3.837 9.879 9.879 0 0118.11 3.837zm-26.736 0a11.985 11.985 0 0123.79 0zm6.635-18.708a5.259 5.259 0 115.259 5.259 5.265 5.265 0 01-5.259-5.259zm23.324 3.151a4.209 4.209 0 114.209 4.209 4.214 4.214 0 01-4.209-4.209z" class="cls-1" transform="translate(0 -177.74)"/><path id="Path_7788" d="M138.521 21.414a1.465 1.465 0 001.464 0l4.615-2.659h2.59v2.235a3.469 3.469 0 003.464 3.465h6.879l3.256 1.876a1.465 1.465 0 002.2-1.269V16.99a3.469 3.469 0 00-3.465-3.465h-1.073V9.018a4.226 4.226 0 00-4.224-4.218H142.01a4.226 4.226 0 00-4.221 4.221v11.124a1.465 1.465 0 00.732 1.269zm2.2-12.4a1.293 1.293 0 011.291-1.291h12.217a1.293 1.293 0 011.291 1.291v5.512a1.293 1.293 0 01-1.292 1.291h-10.019a1.465 1.465 0 00-.731.2l-2.758 1.589zm19.337 7.972v5.54l-1.4-.806a1.464 1.464 0 00-.731-.2h-7.271a.536.536 0 01-.535-.535v-2.232h4.107a4.224 4.224 0 003.755-2.3h1.539a.536.536 0 01.535.535z" class="cls-1" transform="translate(-124.333)"/></g></svg>