<svg xmlns="http://www.w3.org/2000/svg" width="30" height="70"><g fill="#221E1F" fill-rule="evenodd"><path d="M20.345 56.025a5.732 5.732 0 01-1.799 2.546v-.002a5.78 5.78 0 01-4.857 1.155 5.742 5.742 0 01-.679-11.016c.461-.16.77-.593.772-1.081V11.638l2.297-.011v36c0 .488.309.923.77 1.084a5.733 5.733 0 013.496 7.314m-1.97-9.169V10.478c0-.305-.121-.597-.337-.813a.988.988 0 00-.811-.335l-4.593.015c-.635 0-1.149.514-1.149 1.148v36.362a8.038 8.038 0 001.736 15.12 8.346 8.346 0 001.698.178 8.036 8.036 0 008.04-8.035 8.035 8.035 0 00-4.584-7.262"/><path d="M14.93 66.746c-6.976.009-12.638-5.64-12.647-12.616a12.632 12.632 0 016.331-10.963c.356-.205.574-.585.574-.995V8.182A5.75 5.75 0 0114.93 2.44a5.753 5.753 0 015.742 5.742v33.99c0 .41.219.79.574.995 6.046 3.48 8.127 11.202 4.648 17.248a12.631 12.631 0 01-10.964 6.331M27.51 46.07a14.914 14.914 0 00-4.542-4.54v-6.936h3.445a1.148 1.148 0 100-2.296h-3.445V30h3.445a1.148 1.148 0 100-2.297h-3.445v-2.296h3.445a1.15 1.15 0 000-2.297h-3.445v-2.297h3.445a1.148 1.148 0 100-2.296h-3.445V16.22h3.445a1.148 1.148 0 100-2.297h-3.445V8.182A8.047 8.047 0 0014.93.143a8.048 8.048 0 00-8.038 8.039v33.346c-6.948 4.44-8.98 13.67-4.541 20.618 4.44 6.947 13.67 8.98 20.617 4.54 6.948-4.439 8.98-13.67 4.541-20.617"/></g></svg>