<svg xmlns="http://www.w3.org/2000/svg" width="55" height="58"><g fill="#221E1F"><path d="M33.256 6.395a1.28 1.28 0 10.001 2.557 1.28 1.28 0 00-.002-2.557zm-4.882-1.207a13.36 13.36 0 00-7.207 1.262c-.585.28-.858 1.045-.61 1.708.246.658.918.974 1.508.692a11.296 11.296 0 016.097-1.067c.631.067 1.193-.46 1.252-1.177.058-.717-.407-1.351-1.04-1.418zm9.359 3.765c-3.228 0-5.756 4.214-5.756 9.594 0 5.379 2.528 9.593 5.756 9.593 3.227 0 5.755-4.214 5.755-9.593 0-5.38-2.528-9.594-5.755-9.594zm0 16.788c-1.634 0-3.454-2.955-3.454-7.194 0-4.24 1.82-7.195 3.454-7.195 1.633 0 3.453 2.955 3.453 7.195s-1.82 7.194-3.453 7.194zM17.267 8.953c-3.227 0-5.755 4.214-5.755 9.594 0 5.379 2.528 9.593 5.755 9.593 3.228 0 5.756-4.214 5.756-9.593 0-5.38-2.528-9.594-5.756-9.594zm0 16.788c-1.633 0-3.453-2.955-3.453-7.194 0-4.24 1.82-7.195 3.453-7.195 1.634 0 3.454 2.955 3.454 7.195s-1.82 7.194-3.454 7.194z"/><path d="M54.463 45.144a1.228 1.228 0 00-.084-.094l-5.064-5.088c-.558-.56-1.613-.995-3.546-.17l-3.894-3.911c1.252-1.7 1.387-1.851 1.869-2.557l.962.966a3.573 3.573 0 005.063 0 3.612 3.612 0 000-5.086l-2.828-2.842a23.01 23.01 0 00.79-5.979 20.53 20.53 0 00-.633-5.068l2.67-2.683a3.606 3.606 0 000-5.087 3.573 3.573 0 00-5.063 0l-.851.856C40.07 3.177 34.065 0 27.44 0c-6.615 0-12.625 3.17-16.413 8.4l-.851-.855a3.573 3.573 0 00-5.063 0 3.606 3.606 0 000 5.087l2.67 2.683a20.538 20.538 0 00-.633 5.069c0 2.014.279 4.01.827 5.942l-2.864 2.878a3.612 3.612 0 000 5.086 3.572 3.572 0 005.063 0l1.12-1.125c.191.264.387.525.589.78l1.407 1.766-4.063 4.081c-1.932-.825-2.987-.39-3.544.17L.62 45.05c-.03.03-.058.062-.084.094-1.586 1.793.57 5.48 3.46 8.385 1.989 1.997 6.252 5.345 8.346 3.475.032-.027.063-.054.093-.084l5.064-5.088c.558-.56.991-1.62.17-3.561l1.641-1.65a10.682 10.682 0 008.13 3.738c3.19 0 6.157-1.399 8.184-3.801l1.705 1.713c-.821 1.94-.387 3 .17 3.56l5.061 5.087.002.001c2.041 2.05 6.367-1.308 8.44-3.39 2.889-2.905 5.045-6.592 3.46-8.385zM48.08 30.899a1.202 1.202 0 010 1.695 1.189 1.189 0 01-1.687 0l-1.374-1.38c.4-.75.76-1.521 1.075-2.311l1.986 1.996zM46.393 9.241a1.192 1.192 0 011.688 0 1.202 1.202 0 010 1.695l-1.818 1.826a20.466 20.466 0 00-1.093-2.292l1.223-1.229zM6.802 10.936a1.2 1.2 0 010-1.695 1.19 1.19 0 011.687 0l1.223 1.229c-.411.74-.777 1.506-1.093 2.292l-1.817-1.826zm1.687 21.658a1.189 1.189 0 01-1.687 0 1.204 1.204 0 010-1.695l2.056-2.066c.327.778.7 1.536 1.115 2.27L8.49 32.594zm1.974-6.295a19.327 19.327 0 01-.925-5.915c0-9.879 7.95-17.986 17.903-17.986 9.95 0 17.903 8.108 17.903 17.986 0 4.529-1.485 8.798-4.04 12.249l-3.381 4.566c-1.085-4.865-5.403-8.422-10.482-8.422-4.91 0-9.069 3.308-10.342 7.874-3.21-4.083-5.254-6.039-6.636-10.352zm23.196 7.664l-2.018 1.351a5.94 5.94 0 00-8.4 0l-2.018-1.351a8.326 8.326 0 0112.436 0zM5.685 51.833c-2.333-2.344-3.215-4.3-3.3-5.01.71.084 2.656.97 4.988 3.314 2.333 2.343 3.215 4.298 3.299 5.01-.708-.085-2.654-.971-4.987-3.314zm6.92 1.525c-.743-1.759-2.21-3.577-3.544-4.917-1.544-1.551-3.31-2.891-4.894-3.562L7.3 41.732c.445-.024 1.225.364 1.621.572 1.105.602 2.353 1.576 3.516 2.745 1.957 1.965 2.742 3.547 2.734 3.535.208.387.59 1.187.568 1.626l-3.133 3.148zm3.84-7.248a20.863 20.863 0 00-2.32-2.757 20.884 20.884 0 00-2.744-2.33l3.413-3.428L16.708 40a10.775 10.775 0 001.234 4.605l-1.498 1.505zm9.802 1.765c-4.087-.587-7.16-4.114-7.16-8.307 0-1.261.278-2.49.81-3.611l2.018 1.35a5.999 5.999 0 004.332 8.135v2.433zm-2.387-8.307c0-1.98 1.606-3.597 3.581-3.597 1.973 0 3.58 1.614 3.58 3.597 0 1.983-1.606 3.597-3.58 3.597s-3.58-1.614-3.58-3.597zm4.775 8.307v-2.432a6 6 0 004.332-8.135l2.017-1.351a8.394 8.394 0 01.812 3.611c0 4.154-3.036 7.716-7.161 8.307zm8.346-3.347a10.84 10.84 0 001.107-3.535l2.346-3.168 3.184 3.199a20.713 20.713 0 00-2.743 2.33c-.887.89-1.68 1.836-2.32 2.757l-1.574-1.583zm5.413 8.83l-3.133-3.148c-.022-.447.363-1.237.57-1.628.599-1.11 1.568-2.364 2.732-3.533 1.958-1.967 3.53-2.754 3.518-2.746.385-.21 1.184-.595 1.619-.571l3.133 3.147c-1.583.67-3.35 2.01-4.894 3.562-1.338 1.344-2.803 3.162-3.545 4.917zm6.92-1.525c-2.332 2.343-4.278 3.23-4.987 3.314.085-.712.968-2.667 3.3-5.01 2.332-2.344 4.279-3.23 4.987-3.314-.085.711-.968 2.666-3.3 5.01z"/></g></svg>