<svg xmlns="http://www.w3.org/2000/svg" id="odor" width="50" height="50"><defs><style>.cls-1{fill:#fbb316}</style></defs><path id="Path_7890" d="M49.023 470.993h-4.3v-1.3a.977.977 0 00-1.953 0v1.3h-16.8v-1.3a.977.977 0 00-1.953 0v1.3H7.227v-1.3a.977.977 0 00-1.953 0v1.3H.977a.977.977 0 100 1.953h48.046a.977.977 0 000-1.953zm0 0" class="cls-1" transform="translate(0 -422.945)"/><path id="Path_7891" d="M40.977 429.953h9.778v1.3a.977.977 0 001.953 0v-1.3H69.5v1.3a.977.977 0 001.953 0v-1.3h13.664a.977.977 0 000-1.953h-44.14a.977.977 0 000 1.953zm0 0" class="cls-1" transform="translate(-36.094 -386.203)"/><path id="Path_7892" d="M.977 429.953a.977.977 0 10-.69-1.667.977.977 0 00.69 1.667zm0 0" class="cls-1" transform="translate(0 -386.203)"/><path id="Path_7893" d="M73.727 39.453A19.727 19.727 0 0087.679 5.782a.977.977 0 00-1.379 1.38 17.93 17.93 0 012.313 2.843l-8.553 4.938a7.445 7.445 0 011.6-5.6.977.977 0 00-1.516-1.231 9.366 9.366 0 00-1.891 7.873l-4.055 2.341a7.467 7.467 0 01.291-8.983.977.977 0 10-1.516-1.231A9.384 9.384 0 0072.5 19.31l-3.653 2.109a9.387 9.387 0 00-1.529-2.7 7.466 7.466 0 010-9.37.977.977 0 00-1.518-1.234 9.385 9.385 0 000 11.832 7.353 7.353 0 011.318 2.469l-9.244 5.337A17.78 17.78 0 0180.088 3.125a.977.977 0 00.7-1.824 19.729 19.729 0 10-7.06 38.152zm-6.28-14.973a7.425 7.425 0 01-1.65 4.837.977.977 0 001.516 1.231 9.368 9.368 0 002.016-7.154l4.3-2.483a7.472 7.472 0 01-.661 8.406.977.977 0 101.516 1.231 9.376 9.376 0 00.836-10.613l3.55-2.049a9.357 9.357 0 001.269 2.062 7.465 7.465 0 010 9.369.977.977 0 001.516 1.231 9.385 9.385 0 000-11.831 7.344 7.344 0 01-1.08-1.817l9.016-5.206a17.774 17.774 0 01-30.74 17.747zm0 0" class="cls-1" transform="translate(-48.727)"/><path id="Path_7894" d="M351.145 32.828l.048.033a.976.976 0 001.07-1.634.976.976 0 00-1.114 1.6zm0 0" class="cls-1" transform="translate(-316.49 -28.028)"/></svg>