<svg xmlns="http://www.w3.org/2000/svg" width="43.757" height="45"><defs><style>.cls-1{fill:#fbb316}</style></defs><g id="controls_1_" transform="translate(-7.07)"><path id="Path_7768" d="M159.828 9.285a4.754 4.754 0 00-3.428-4.558V1.318a1.318 1.318 0 00-2.637 0v3.409a4.745 4.745 0 00.063 9.135v29.82a1.318 1.318 0 002.637 0V13.825a4.754 4.754 0 003.365-4.54zm-4.746 2.109a2.109 2.109 0 112.109-2.109 2.112 2.112 0 01-2.109 2.109z" class="cls-1" transform="translate(-130.674)"/><path id="Path_7769" d="M265.347 27.345h-3.865V1.318a1.318 1.318 0 10-2.637 0v26.027h-3.865a1.318 1.318 0 00-1.052 2.113l4.916 6.5v7.72a1.318 1.318 0 102.637 0v-7.72l4.916-6.5a1.318 1.318 0 00-1.052-2.113zm-5.183 5.988l-2.533-3.351h5.069z" class="cls-1" transform="translate(-224.92)"/><path id="Path_7770" d="M18.754 24.107H14.89V1.318a1.318 1.318 0 00-2.637 0v22.789H8.388a1.318 1.318 0 00-1.052 2.113l4.916 6.5v10.962a1.318 1.318 0 002.637 0V32.723l4.916-6.5a1.318 1.318 0 00-1.052-2.113zM13.571 30.1l-2.533-3.351H16.1z" class="cls-1"/><path id="Path_7771" d="M406.422 17.246a4.754 4.754 0 00-3.428-4.558V1.318a1.318 1.318 0 00-2.637 0v11.369a4.745 4.745 0 000 9.117v21.878a1.318 1.318 0 002.637 0V21.8a4.753 4.753 0 003.428-4.554zm-4.746 2.109a2.109 2.109 0 112.109-2.109 2.112 2.112 0 01-2.109 2.109z" class="cls-1" transform="translate(-355.595)"/></g></svg>