<svg xmlns="http://www.w3.org/2000/svg" width="11" height="16.047"><defs><style>.cls-1{fill:#0f0f0f}</style></defs><g id="_08_Cursor" transform="translate(-6.389 -5.23)"><path id="Path_7841" d="M237.025 111.018a1.025 1.025 0 01-1.025-1.025v-9.528a1.025 1.025 0 012.05 0v9.528a1.025 1.025 0 01-1.025 1.025z" class="cls-1" transform="translate(-225.136 -94.21)"/><path id="Path_7842" d="M154.181 224.262a1.721 1.721 0 01-1.225-.507l-3.975-3.974a1.025 1.025 0 111.45-1.45l3.75 3.75 3.75-3.75a1.025 1.025 0 011.45 1.45l-3.975 3.974a1.721 1.721 0 01-1.225.507z" class="cls-1" transform="translate(-142.292 -206.723)"/><path id="Path_7843" d="M158.655 374.61h-8.95a1.025 1.025 0 110-2.05h8.95a1.025 1.025 0 010 2.05z" class="cls-1" transform="translate(-142.291 -353.333)"/></g></svg>