<svg xmlns="http://www.w3.org/2000/svg" width="30.295" height="40"><defs><style>.cls-1{fill:#fbb316}</style></defs><g id="ecg" transform="translate(-62.111)"><path id="Path_7869" d="M92.406 1.172A1.172 1.172 0 0091.234 0H63.283a1.172 1.172 0 00-1.172 1.172v37.656A1.172 1.172 0 0063.283 40h27.951a1.172 1.172 0 001.172-1.172V1.172zM64.455 37.656V2.344h25.607v35.312z" class="cls-1"/><path id="Path_7870" d="M112.262 71.621h20.3a1.172 1.172 0 001.172-1.172v-20.3a1.172 1.172 0 00-1.172-1.172h-20.3a1.172 1.172 0 00-1.172 1.172v20.3a1.172 1.172 0 001.172 1.172zm19.127-20.3v8.04h-4.983a1.172 1.172 0 00-.968.512l-2.238 3.274-2.507-8.74a1.172 1.172 0 00-2.163-.224l-2.73 5.179h-2.369v-8.04zm-14.88 10.385a1.172 1.172 0 001.036-.625l1.7-3.227 2.392 8.339a1.172 1.172 0 002.095.337l3.29-4.824h4.363v7.571h-17.951v-7.571h3.076z" class="cls-1" transform="translate(-45.153 -45.153)"/><circle id="Ellipse_3135" cx="1.172" cy="1.172" r="1.172" class="cls-1" transform="translate(82.873 28.903)"/><circle id="Ellipse_3136" cx="1.172" cy="1.172" r="1.172" class="cls-1" transform="translate(86.247 28.903)"/><path id="Path_7871" d="M125.8 369.958h-13.538a1.172 1.172 0 000 2.344H125.8a1.172 1.172 0 000-2.344z" class="cls-1" transform="translate(-45.153 -341.055)"/></g></svg>