<svg xmlns="http://www.w3.org/2000/svg" width="50" height="44.061"><defs><style>.cls-1{fill:#5f5f5f}</style></defs><g id="specialist" transform="translate(0 -30.406)"><path id="Path_7854" d="M241 241.594h2.93v2.93H241z" class="cls-1" transform="translate(-217.465 -190.564)"/><path id="Path_7855" d="M36.719 34.682l-.429-.429c-.157-.157-3.932-3.847-11.29-3.847S13.867 34.1 13.71 34.253l-.429.429v4.629H0v35.156h50V39.311H36.719zm-20.508 1.282A14.349 14.349 0 0125 33.336a14.325 14.325 0 018.789 2.627v3.348H16.211zM2.93 71.538V58.354h17.675v11.159L25 67.316l4.395 2.2V58.354H47.07v13.184zm20.605-11.866a7.354 7.354 0 002.93 0v5.1L25 64.041l-1.465.732zM25 56.889a4.395 4.395 0 114.395-4.395A4.4 4.4 0 0125 56.889zm22.07-1.465H31.711a7.324 7.324 0 10-13.422 0H2.93V42.241h44.14z" class="cls-1"/></g></svg>