<svg xmlns="http://www.w3.org/2000/svg" width="16.768" height="16.848" viewBox="0 0 16.768 16.848">
    <path fill="#fff" fill-rule="evenodd" d="M12.729 3.887H11.4a3.528 3.528 0 0 1 1.534 2.906 3.726 3.726 0 0 1-1.88 3.132 1.547 1.547 0 0 0-.627 1.082 1.212 1.212 0 0 0 .581.949l.807.616c.984.817 1.879 1.567 1.879 3.09 0 2.074-2.1 4.185-5.95 4.185C4.5 19.848 3 18.31 3 16.677a3.169 3.169 0 0 1 1.724-2.692A9.756 9.756 0 0 1 9 12.97a2.3 2.3 0 0 1-.672-1.5 1.958 1.958 0 0 1 .224-.86c-.247.022-.492.044-.716.044a3.515 3.515 0 0 1-3.717-3.463A3.914 3.914 0 0 1 5.4 4.162 6.386 6.386 0 0 1 9.512 3h4.666l-1.449.887zM6.891 13.942a2.493 2.493 0 0 0-1.925 2.272c0 1.567 1.545 2.692 3.939 2.692 2.148 0 3.291-1.017 3.291-2.382 0-1.127-.739-1.721-2.441-2.913a3.574 3.574 0 0 0-.513-.023 9.085 9.085 0 0 0-2.351.354zm10.727-5.758v2.159h2.15v1.3h-2.15V13.8h-1.29v-2.161h-2.15v-1.3h2.149V8.184zM8.148 3.8c1.857 0 2.819 2.471 2.819 4.059a2.093 2.093 0 0 1-.559 1.555 2.359 2.359 0 0 1-1.521.673c-1.925 0-2.8-2.449-2.8-3.927a2.676 2.676 0 0 1 .493-1.682A2.057 2.057 0 0 1 8.148 3.8z" transform="translate(-3 -3)"/>
</svg>
