<svg xmlns="http://www.w3.org/2000/svg" width="30.938" height="48"><defs><style>.cls-1{fill:#fbb316}</style></defs><g id="gps" transform="translate(-91)"><path id="Path_7762" d="M116.781 0H96.156A5.162 5.162 0 0091 5.156v37.688A5.162 5.162 0 0096.156 48h20.625a5.162 5.162 0 005.156-5.156V5.156A5.162 5.162 0 00116.781 0zm2.344 42.844a2.346 2.346 0 01-2.344 2.344H96.156a2.346 2.346 0 01-2.344-2.344v-.469h25.312zm0-3.281H93.813V8.438h25.312zm0-33.938H93.813v-.469a2.346 2.346 0 012.344-2.344h20.625a2.346 2.346 0 012.344 2.344z" class="cls-1"/><path id="Path_7763" d="M159.777 144.748a1.406 1.406 0 002.254 0l6.749-9.039a9.829 9.829 0 10-15.751 0zm-5.145-18.063a7.016 7.016 0 1111.894 7.342l-5.622 7.529-5.622-7.529a6.891 6.891 0 01-.65-7.342z" class="cls-1" transform="translate(-54.435 -108.75)"/><path id="Path_7764" d="M215.219 188.438a4.219 4.219 0 10-4.219-4.219 4.224 4.224 0 004.219 4.219zm0-5.625a1.406 1.406 0 11-1.406 1.406 1.408 1.408 0 011.406-1.406z" class="cls-1" transform="translate(-108.75 -163.125)"/></g></svg>