<svg xmlns="http://www.w3.org/2000/svg" width="32.664" height="30.813"><path fill="#fbb316" stroke="#fbb316" stroke-width=".5" d="M23.542 30.562a1.146 1.146 0 01-1.146-1.145V15.67a1.146 1.146 0 012.291 0v13.747a1.146 1.146 0 01-1.145 1.145z"/><path fill="#fbb316" d="M28.401 21.796a1.151 1.151 0 01-.811-.335l-4.049-4.053-4.051 4.053a1.146 1.146 0 01-1.62-1.62l4.86-4.862a1.177 1.177 0 011.62 0l4.86 4.862a1.144 1.144 0 01-.809 1.954z"/><path fill="#fbb316" stroke="#fbb316" stroke-width="1.5" d="M12.798 24.126a.712.712 0 01-.5-.207L3.149 14.75a8.216 8.216 0 010-11.6 8.173 8.173 0 0111.573 0l1.614 1.617 1.613-1.617a8.175 8.175 0 0111.575 0 8.226 8.226 0 01.711 10.78.707.707 0 01-1.123-.86 6.811 6.811 0 00-.592-8.92 6.759 6.759 0 00-9.572 0l-2.114 2.121a.728.728 0 01-1 0L13.717 4.15a6.757 6.757 0 00-9.57 0 6.8 6.8 0 00.002 9.6l9.151 9.172a.708.708 0 01-.5 1.208z"/></svg>