<svg xmlns="http://www.w3.org/2000/svg" width="52" height="40.296"><path fill="#fbb316" d="M50.484 17.69h-3.375c2.179-6.1-.346-13.54-6.025-16.317A12.576 12.576 0 0026 4.199a12.576 12.576 0 00-15.084-2.827C5.237 4.15 2.712 11.599 4.891 17.69H1.516a1.524 1.524 0 000 3.048h4.71a14.571 14.571 0 002.551 3.353c.462.463 14.806 15.1 14.93 15.228l.027.027a3.234 3.234 0 002.238.95h.057a3.234 3.234 0 002.238-.95l.031-.031c.12-.123 14.467-14.763 14.926-15.223a14.57 14.57 0 002.551-3.353h4.71a1.525 1.525 0 00-.001-3.049zM7.169 12.574a9.817 9.817 0 015.142-8.492A9.5 9.5 0 0124.7 7.552a1.53 1.53 0 002.6 0 9.5 9.5 0 0112.391-3.469 9.816 9.816 0 015.142 8.492 12.444 12.444 0 01-.982 5.116H33.125a1.524 1.524 0 00-1.153.527l-4.684 5.421-4.852-11.974a1.524 1.524 0 00-2.7-.242l-3.964 6.267H8.151a12.447 12.447 0 01-.982-5.116zM41.1 21.899c-.187.179-14.851 15.144-14.982 15.279l-.009.009a.192.192 0 01-.111.056.2.2 0 01-.115-.06c-.136-.14-14.8-15.1-14.987-15.284a10.106 10.106 0 01-1.03-1.164h6.742a1.524 1.524 0 001.292-.706l2.827-4.469L25.4 27.094a1.524 1.524 0 002.565.424l5.859-6.78h8.309a10.111 10.111 0 01-1.033 1.161z"/></svg>