<svg xmlns="http://www.w3.org/2000/svg" width="45" height="45.001" viewBox="0 0 45 45.001">
    <g>
        <g>
            <g>
                <path fill="#fbb316" d="M141.19 118.677a22.431 22.431 0 0 0-5-14.134 1.056 1.056 0 1 0-1.641 1.33c.127.157.251.316.373.476h-8.329a.073.073 0 0 1-.073-.073v-6.414a20.277 20.277 0 0 1 4.991 2.973 1.056 1.056 0 1 0 1.33-1.641 22.5 22.5 0 0 0-31.645 31.645 1.056 1.056 0 0 0 1.641-1.33 20.389 20.389 0 0 1 14.848-33.182c.361-.018.721-.025 1.081-.024v4.78a1.193 1.193 0 0 1-.352.849l-3.192 3.192a1.194 1.194 0 0 1-.85.352h-2.7a3.313 3.313 0 1 0 0 2.112h2.7a3.292 3.292 0 0 0 2.343-.97l3.192-3.192a3.292 3.292 0 0 0 .971-2.343v-4.662a20.38 20.38 0 0 1 3.531.7v7.158a2.187 2.187 0 0 0 2.185 2.185h9.739a20.271 20.271 0 0 1 1.62 3.531h-13.865a3.313 3.313 0 1 0 0 2.112h14.471a20.422 20.422 0 0 1 .492 3.531h-11.525a3.292 3.292 0 0 0-2.343.971l-3.192 3.192a1.194 1.194 0 0 1-.85.352h-3.826a3.313 3.313 0 1 0 0 2.112h3.826a3.292 3.292 0 0 0 2.343-.97l3.192-3.192a1.194 1.194 0 0 1 .85-.352h11.525a20.407 20.407 0 0 1-.494 3.531h-8.774a3.292 3.292 0 0 0-2.343.971l-6.578 6.578a3.292 3.292 0 0 0-.97 2.343v5.873l-.193.012a20.459 20.459 0 0 1-5.6-.5v-5.39a3.291 3.291 0 0 0-.97-2.343l-5.45-5.449a1.194 1.194 0 0 1-.352-.849V120.7a3.313 3.313 0 1 0-2.112 0v3.826a3.291 3.291 0 0 0 .97 2.343l5.45 5.45a1.194 1.194 0 0 1 .352.849v4.782a20.278 20.278 0 0 1-6.119-3.4 1.056 1.056 0 0 0-1.33 1.641 22.432 22.432 0 0 0 14.144 5q.557 0 1.116-.027a22.5 22.5 0 0 0 21.365-21.364q.027-.551.027-1.1v-.011a.128.128 0 0 0 0-.012zm-32.657-8.942a1.2 1.2 0 1 1 1.2-1.2 1.2 1.2 0 0 1-1.2 1.2zm12.415 4.515a1.2 1.2 0 1 1 1.2-1.2 1.2 1.2 0 0 1-1.2 1.2zm-6.772 10.158a1.2 1.2 0 1 1 1.2-1.2 1.2 1.2 0 0 1-1.199 1.2zm-7.9-5.643a1.2 1.2 0 1 1 1.2-1.2 1.2 1.2 0 0 1-1.2 1.199zm26.832 14.344a20.34 20.34 0 0 1-11.1 5.7v-5.64a1.194 1.194 0 0 1 .352-.849l6.578-6.578a1.194 1.194 0 0 1 .85-.352h8.166a20.363 20.363 0 0 1-4.846 7.718z" transform="translate(-96.191 -96.192) translate(96.191 96.192) translate(-96.191 -96.192)"/>
            </g>
        </g>
    </g>
</svg>
