<svg xmlns="http://www.w3.org/2000/svg" width="50" height="42.172" viewBox="0 0 50 42.172">
    <defs>
        <style>
            .cls-1{fill:#fbb316}
        </style>
    </defs>
    <g id="insulating-tape" transform="translate(0 -40.081)">
        <g id="Group_1126" transform="translate(12.525 52.606)">
            <g id="Group_1125">
                <path id="Path_7883" d="M136.819 168.339a8.561 8.561 0 1 0 8.561 8.561 8.57 8.57 0 0 0-8.561-8.561zm0 15.656a7.1 7.1 0 1 1 7.1-7.1 7.1 7.1 0 0 1-7.1 7.105z" class="cls-1" transform="translate(-128.258 -168.339)"/>
            </g>
        </g>
        <g id="Group_1128" transform="translate(9.394 49.475)">
            <g id="Group_1127">
                <path id="Path_7884" d="M114.89 138.6a11.694 11.694 0 0 0-16.368 16.37.732.732 0 0 0 1.172-.879 10.229 10.229 0 0 1 14.317-14.317.732.732 0 0 0 .879-1.172z" class="cls-1" transform="translate(-96.195 -136.274)"/>
            </g>
        </g>
        <g id="Group_1130" transform="translate(13.79 53.87)">
            <g id="Group_1129">
                <path id="Path_7885" d="M157.865 181.576a.732.732 0 1 0-1.172.879 10.229 10.229 0 0 1-14.317 14.317.732.732 0 1 0-.879 1.172 11.678 11.678 0 0 0 7 2.328q.393 0 .787-.026a11.694 11.694 0 0 0 8.576-18.669z" class="cls-1" transform="translate(-141.205 -181.283)"/>
            </g>
        </g>
        <g id="Group_1132" transform="translate(3.131 43.212)">
            <g id="Group_1131">
                <path id="Path_7886" d="M61.509 76.3a17.956 17.956 0 0 0-25.289 25.289.732.732 0 1 0 1.125-.939A16.491 16.491 0 0 1 60.57 77.425a.732.732 0 1 0 .939-1.125z" class="cls-1" transform="translate(-32.063 -72.144)"/>
            </g>
        </g>
        <g id="Group_1134" transform="translate(9.332 49.413)">
            <g id="Group_1133">
                <path id="Path_7887" d="M121.112 135.906a.732.732 0 1 0-1.125.939 16.491 16.491 0 0 1-11.971 27.027q-.354.015-.707.015a16.429 16.429 0 0 1-10.548-3.817.732.732 0 1 0-.939 1.125 17.889 17.889 0 0 0 11.486 4.157q.384 0 .769-.016a17.956 17.956 0 0 0 13.033-29.429z" class="cls-1" transform="translate(-95.561 -135.643)"/>
            </g>
        </g>
        <g id="Group_1136" transform="translate(0 40.081)">
            <g id="Group_1135">
                <path id="Path_7888" d="M49.268 52.606a.732.732 0 0 0-.732.732 27.269 27.269 0 0 1-8.04 19.41 27.617 27.617 0 0 1-5.5 4.266q.513-.451 1-.938a21.086 21.086 0 0 0-29.82-29.82 21.086 21.086 0 0 0 14.91 36A28.914 28.914 0 0 0 50 53.339a.732.732 0 0 0-.732-.733zM21.086 80.788a19.621 19.621 0 1 1 19.621-19.621 19.643 19.643 0 0 1-19.621 19.621z" class="cls-1" transform="translate(0 -40.081)"/>
            </g>
        </g>
        <g id="Group_1138" transform="translate(6.263 46.344)">
            <g id="Group_1137">
                <path id="Path_7889" d="M78.951 104.209a14.823 14.823 0 1 0 14.823 14.823 14.84 14.84 0 0 0-14.823-14.823zm0 28.182a13.358 13.358 0 1 1 13.359-13.359 13.374 13.374 0 0 1-13.359 13.359z" class="cls-1" transform="translate(-64.128 -104.209)"/>
            </g>
        </g>
    </g>
</svg>
