<svg xmlns="http://www.w3.org/2000/svg" width="34" height="34.077"><path fill="#fbb316" d="M29.022 4.991A17 17 0 000 17.038 17 17 0 1029.022 4.991zM6.392 6.4a14.975 14.975 0 0120.5-.67l-4.5 4.5A16.262 16.262 0 003.55 16.434a1 1 0 000 1.124 16.284 16.284 0 006.135 5.381L5.698 26.93A15.07 15.07 0 016.392 6.4zM22.56 17a5.557 5.557 0 01-8.7 4.59l1.443-1.443A3.572 3.572 0 0020.15 15.3l1.443-1.443A5.528 5.528 0 0122.56 17zm-11.12 0a5.556 5.556 0 018.745-4.554L18.75 13.88a3.571 3.571 0 00-4.862 4.862l-1.438 1.439A5.528 5.528 0 0111.44 17zm7.137 0a1.578 1.578 0 01-1.576 1.577h-.118l1.689-1.689c.002.029.004.068.004.112zm-3.153 0a1.573 1.573 0 011.771-1.564l-1.759 1.759a1.622 1.622 0 01-.013-.195zm-4.674 4.234A14.276 14.276 0 015.606 17a14.276 14.276 0 015.144-4.242 7.544 7.544 0 000 8.476zm12.5-8.476A14.281 14.281 0 0128.394 17a14.281 14.281 0 01-5.14 4.238 7.543 7.543 0 000-8.476zm4.354 14.917a14.975 14.975 0 01-20.5.67l4.566-4.567a16.263 16.263 0 0018.78-6.22 1 1 0 000-1.124 16.284 16.284 0 00-6.079-5.353l3.934-3.934a15.07 15.07 0 01-.694 20.529zm0 0"/></svg>