<svg id="heat-press" xmlns="http://www.w3.org/2000/svg" width="45" height="45" viewBox="0 0 45 45">
  <path id="Path_7812" data-name="Path 7812" d="M.879,28.125H18.457v7.207H14.063a.879.879,0,0,0-.879.879v5.273A3.52,3.52,0,0,0,16.7,45H41.484A3.52,3.52,0,0,0,45,41.484V16.7a6.154,6.154,0,0,0-2.987-5.273A6.151,6.151,0,0,0,38.848,0h-9.4a.879.879,0,0,0,0,1.758h9.4a4.395,4.395,0,0,1,0,8.789h-28.4a6.138,6.138,0,0,0,0-8.789H21.533a.879.879,0,0,0,0-1.758H6.152A6.151,6.151,0,0,0,2.987,11.426,6.154,6.154,0,0,0,0,16.7V27.246A.879.879,0,0,0,.879,28.125ZM14.063,12.3A4.4,4.4,0,0,1,18.457,16.7v4.395h-8a6.138,6.138,0,0,0,0-8.789Zm.879,29.18V37.09h3.516v4.395a1.758,1.758,0,0,1-3.516,0ZM38.848,12.3A4.4,4.4,0,0,1,43.242,16.7V41.484a1.76,1.76,0,0,1-1.758,1.758H19.742a3.494,3.494,0,0,0,.473-1.758V16.7A6.134,6.134,0,0,0,18.362,12.3ZM1.758,6.152a4.395,4.395,0,1,1,4.395,4.395A4.4,4.4,0,0,1,1.758,6.152ZM6.152,12.3A4.395,4.395,0,1,1,1.758,16.7,4.4,4.4,0,0,1,6.152,12.3Zm0,10.547h12.3v3.516H1.758V21A6.134,6.134,0,0,0,6.152,22.852Zm0,0" fill="#fbb316"/>
  <path id="Path_7813" data-name="Path 7813" d="M281.758.879A.879.879,0,1,1,280.879,0,.879.879,0,0,1,281.758.879Zm0,0" transform="translate(-255.391)" fill="#fbb316"/>
  <path id="Path_7814" data-name="Path 7814" d="M42.637,40a2.637,2.637,0,1,0,2.637,2.637A2.64,2.64,0,0,0,42.637,40Zm0,3.516a.879.879,0,1,1,.879-.879A.88.88,0,0,1,42.637,43.516Zm0,0" transform="translate(-36.484 -36.484)" fill="#fbb316"/>
  <path id="Path_7815" data-name="Path 7815" d="M42.637,165.273A2.637,2.637,0,1,0,40,162.637,2.64,2.64,0,0,0,42.637,165.273Zm0-3.516a.879.879,0,1,1-.879.879A.88.88,0,0,1,42.637,161.758Zm0,0" transform="translate(-36.484 -145.938)" fill="#fbb316"/>
</svg>
