<svg xmlns="http://www.w3.org/2000/svg" width="33" height="37.547"><path d="M32.157 23.246a3.3 3.3 0 00-2.457-5.5h-6.4a21.329 21.329 0 00.9-5.574v-1.099a4.405 4.405 0 00-4.4-4.4h-1.1a1.1 1.1 0 00-1.067.833l-.6 2.4c-.84 3.357-3.505 7.061-6.264 7.734a3.3 3.3 0 00-3.07-2.091H1.1a1.1 1.1 0 00-1.1 1.1v19.8a1.1 1.1 0 001.1 1.1h6.6a3.3 3.3 0 002.979-1.881l3.78 1.26a12.073 12.073 0 003.827.621H27.5a3.3 3.3 0 003.068-4.516 3.3 3.3 0 001.589-5.384 3.293 3.293 0 000-4.4zm-23.357 11a1.1 1.1 0 01-1.1 1.1H2.2v-17.6h5.5a1.1 1.1 0 011.1 1.1zm18.7-9.9h2.2a1.1 1.1 0 110 2.2h-2.2a1.1 1.1 0 100 2.2h2.2a1.1 1.1 0 110 2.2h-2.2a1.1 1.1 0 100 2.2 1.1 1.1 0 110 2.2h-9.215a9.878 9.878 0 01-3.131-.508L11 33.454V19.842a8.864 8.864 0 004.939-3.209 16.05 16.05 0 003.229-6.2l.391-1.564h.241a2.2 2.2 0 012.2 2.204v1.1a17.407 17.407 0 01-1.053 5.574H18.7a1.1 1.1 0 000 2.2h11a1.1 1.1 0 110 2.2h-2.2a1.1 1.1 0 100 2.2z"/><circle cx="1.1" cy="1.1" r="1.1" transform="translate(4.4 30.947)"/><path d="M20.9 0a1.1 1.1 0 00-1.1 1.1v2.273a1.1 1.1 0 102.2 0V1.1A1.1 1.1 0 0020.9 0zm-4.666 4.85l-1.556-1.556a1.1 1.1 0 10-1.556 1.556l1.556 1.556a1.1 1.1 0 101.556-1.556zm12.445-1.555a1.1 1.1 0 00-1.556 0l-1.556 1.556a1.1 1.1 0 001.556 1.556l1.556-1.556a1.1 1.1 0 000-1.556z"/></svg>