<svg xmlns="http://www.w3.org/2000/svg" width="31.724" height="40"><defs><style>.cls-1{fill:#fff}.cls-2{fill:#fbb316}</style></defs><g id="location_2_" transform="translate(-52.969)"><path id="Path_7733" d="M96.364 405.484h24.943L118.859 399h-6.437c-1.437 2.022-2.516 3.515-2.636 3.682h-1.9c-.12-.167-1.2-1.66-2.636-3.682h-6.438z" class="cls-1" transform="translate(-40.005 -367.828)"/><path id="Path_7734" d="M52.969 40h31.724l-4.219-11.172h-6.4c2.39-3.4 5.092-7.328 6.167-9.216a13.124 13.124 0 10-22.821 0c1.08 1.888 3.78 5.818 6.168 9.216h-6.4zM68.831 2.344A10.783 10.783 0 0178.2 18.452c-1.593 2.8-7.134 10.584-9.374 13.708-2.24-3.124-7.781-10.912-9.374-13.708a10.783 10.783 0 019.379-16.108zm-.95 32.51h1.9c.12-.167 1.2-1.66 2.636-3.682h6.437l2.446 6.484H56.359l2.448-6.484h6.437a621.527 621.527 0 002.637 3.681z" class="cls-2"/><path id="Path_7735" d="M119.42 46.108c1.593 2.8 7.134 10.584 9.374 13.708 2.24-3.124 7.781-10.912 9.374-13.708a10.78 10.78 0 10-18.748 0zm9.374-12.957a7.619 7.619 0 11-7.619 7.619 7.627 7.627 0 017.619-7.619z" class="cls-1" transform="translate(-59.963 -27.656)"/><circle id="Ellipse_3128" cx="5.275" cy="5.275" r="5.275" class="cls-1" transform="rotate(-67.05 42.978 -38.774)"/><path id="Path_7736" d="M166.1 85.57a7.619 7.619 0 10-7.619-7.619 7.627 7.627 0 007.619 7.619zm0-12.893a5.275 5.275 0 11-5.275 5.275 5.281 5.281 0 015.275-5.275z" class="cls-2" transform="translate(-97.27 -64.838)"/></g></svg>