<svg xmlns="http://www.w3.org/2000/svg" width="60" height="46.496" viewBox="0 0 60 46.496">
    <path fill="#fbb316" d="M58.251 78.013h-3.894c2.514-7.033-.4-15.623-6.952-18.828A14.511 14.511 0 0 0 30 62.447a14.511 14.511 0 0 0-17.4-3.262C6.043 62.39 3.129 70.98 5.643 78.013H1.749a1.758 1.758 0 0 0 0 3.517h5.435a16.813 16.813 0 0 0 2.944 3.87c.533.534 17.084 17.423 17.227 17.57l.031.031a3.732 3.732 0 0 0 2.582 1.1h.066a3.731 3.731 0 0 0 2.582-1.1l.036-.036c.138-.142 16.693-17.035 17.222-17.565a16.812 16.812 0 0 0 2.944-3.869h5.435a1.758 1.758 0 0 0 0-3.517zM8.272 72.11a11.327 11.327 0 0 1 5.933-9.8 10.963 10.963 0 0 1 14.3 4 1.765 1.765 0 0 0 2.995 0 10.963 10.963 0 0 1 14.3-4 11.327 11.327 0 0 1 5.933 9.8 14.359 14.359 0 0 1-1.133 5.9H38.222a1.759 1.759 0 0 0-1.33.609l-5.406 6.256-5.6-13.816a1.758 1.758 0 0 0-3.116-.28l-4.57 7.234H9.4a14.362 14.362 0 0 1-1.133-5.9zm39.153 10.763c-.215.207-17.136 17.474-17.287 17.629l-.011.011a.222.222 0 0 1-.128.064.23.23 0 0 1-.132-.069c-.157-.161-17.078-17.429-17.293-17.635a11.662 11.662 0 0 1-1.189-1.344h7.78a1.758 1.758 0 0 0 1.486-.818l3.262-5.157 5.392 13.309a1.758 1.758 0 0 0 2.96.489l6.76-7.823h9.588a11.666 11.666 0 0 1-1.189 1.343z" transform="translate(0 -57.601)"/>
</svg>
