<svg xmlns="http://www.w3.org/2000/svg" xmlns:xlink="http://www.w3.org/1999/xlink" width="74" height="52" viewBox="0 0 74 52">
    <defs>
        <path id="prefix__a" d="M0 0L74 0 74 52 0 52z"/>
    </defs>
    <g fill="none" fill-rule="evenodd">
        <mask id="prefix__b" fill="#fff">
            <use xlink:href="#prefix__a"/>
        </mask>
        <path fill="#000" d="M28.83 50.306l-.003.081.003-.081M30.377 52c-.55 0-1.227-.292-1.521-1.14-.035-.099-.07-.22-.115-.382-.07-.261-.162-.628-.278-1.122-.208-.884-.497-2.18-.86-3.854-.607-2.808-1.433-6.725-2.452-11.64-.869-4.188-1.734-8.405-2.383-11.582l-2.876 7.774c-.226.61-.808 1.016-1.458 1.016H1.555C.696 31.07 0 30.373 0 29.513s.696-1.557 1.555-1.557h15.796l4.393-11.873c.241-.652.886-1.065 1.578-1.011.693.053 1.266.56 1.404 1.242 1.573 7.755 3.679 18.005 5.19 25.136 1.65-12.558 4.67-34.445 5.453-40.106.105-.76.748-1.33 1.514-1.344.772-.015 1.428.536 1.559 1.293l5.301 30.787 3.659-10.87c.213-.634.806-1.06 1.473-1.06h.011c.672.005 1.265.44 1.47 1.081l5 15.588 3.31-8.593c.23-.6.807-.996 1.45-.996h12.329c.859 0 1.555.697 1.555 1.557s-.696 1.556-1.555 1.556H61.183l-4.511 11.71c-.237.617-.842 1.014-1.496.997-.659-.02-1.234-.452-1.436-1.08l-4.9-15.281-4.112 12.216c-.227.675-.883 1.108-1.593 1.055-.71-.055-1.292-.586-1.413-1.288l-4.642-26.96c-2.391 17.41-5.086 37.338-5.143 38.692-.007.95-.713 1.518-1.41 1.588-.048.005-.099.008-.15.008" mask="url(#prefix__b)"/>
    </g>
</svg>
