<svg xmlns="http://www.w3.org/2000/svg" width="45.208" height="43.448" viewBox="0 0 45.208 43.448">
    <defs>
        <style>
            .cls-1,.cls-2{fill:#fbb316}.cls-2{stroke:#fbb316;stroke-width:.2px}
        </style>
    </defs>
    <g id="Group_1266" transform="translate(-1206.4 -2590.652)">
        <g id="badge" transform="translate(1209.266 2604.299)">
            <path id="Path_7641" d="M73.447 68.383a7.26 7.26 0 1 0 7.26 7.26 7.268 7.268 0 0 0-7.26-7.26zm0 12.862a5.6 5.6 0 1 1 5.6-5.6 5.609 5.609 0 0 1-5.6 5.6zm0 0" class="cls-1" transform="translate(-66.188 -68.383)"/>
            <path id="Path_7642" d="M132.347 157.316a.828.828 0 0 0 1.172 0l3.59-3.59a.829.829 0 0 0-1.172-1.172l-3 3-1.651-1.651a.828.828 0 0 0-1.172 1.172zm0 0" class="cls-1" transform="translate(-126.35 -147.676)"/>
        </g>
        <g id="Group_1265" transform="translate(1206.5 2616.226)">
            <g id="Group_1259" transform="translate(7.871)">
                <g id="Group_1257">
                    <path id="Path_7944" d="M305.077 953.715h-11.9a.728.728 0 0 1 0-1.455h11.9a14.031 14.031 0 0 0 7.409-2.113l14.906-9.257a1.643 1.643 0 0 0 .716-1.074 1.131 1.131 0 0 0-.485-1.119c-.795-.553-2.265-.332-3.934.592-.121.07-1.167.729-2.9 1.819-1.641 1.034-4.12 2.6-7.41 4.665a.728.728 0 0 1-.774-1.232c3.29-2.068 5.768-3.63 7.409-4.664 2.211-1.393 2.853-1.8 2.964-1.859a7.893 7.893 0 0 1 3.164-1.062 3.528 3.528 0 0 1 2.309.547 2.592 2.592 0 0 1 1.092 2.533 3.076 3.076 0 0 1-1.315 2.044l-.021.015-.024.016-14.931 9.273a15.486 15.486 0 0 1-8.175 2.331z" class="cls-2" transform="translate(-292.448 -936.941)"/>
                </g>
                <g id="Group_1258" transform="translate(0 4.51)">
                    <path id="Path_7945" d="M310.54 1092.147h-7.1a.728.728 0 1 1 0-1.455h7.1a1.768 1.768 0 0 0 1.769-1.687 1.739 1.739 0 0 0-.487-1.292 1.805 1.805 0 0 0-1.318-.564h-8.782c-1.252-.011-5.065-.046-7.364 2.313a6.547 6.547 0 0 0-.6.711.728.728 0 1 1-1.176-.857 8.03 8.03 0 0 1 .733-.869 8.973 8.973 0 0 1 4.6-2.412 16.838 16.838 0 0 1 3.813-.341h8.772a3.292 3.292 0 0 1 2.37 1.014 3.182 3.182 0 0 1 .888 2.365 3.221 3.221 0 0 1-3.218 3.074z" class="cls-2" transform="translate(-292.445 -1085.693)"/>
                </g>
            </g>
            <g id="Group_1260" transform="translate(0 5.732)">
                <path id="Path_7946" d="M41.411 1138.076h-7.866a.731.731 0 0 1-.73-.73v-10.583a.731.731 0 0 1 .73-.73h7.866a.731.731 0 0 1 .73.73v10.583a.731.731 0 0 1-.73.73zm-7.141-1.455h6.416v-9.132H34.27z" class="cls-2" transform="translate(-32.815 -1126.033)"/>
            </g>
        </g>
        <g id="Feather" transform="rotate(41 -2844.723 2953.495)">
            <path id="Path_7955" d="M11.263 16.787a58.394 58.394 0 0 0 1.117-5.846 1.772 1.772 0 0 0-1.4-1.959A11.915 11.915 0 0 0 7 .188c-.563-.477-1.069.044-1.568.566A14.343 14.343 0 0 0 1.3 10.986v1.683a1.393 1.393 0 0 0-1.26 1.72 19.467 19.467 0 0 0 1.921 4.558 1.229 1.229 0 0 0-.946 1.661 17.6 17.6 0 0 0 3.91 6.062 2.16 2.16 0 0 0 .842.521l.033 4.128a.745.745 0 0 0 1.489 0l-.031-4.128a2.182 2.182 0 0 0 .842-.529 17.679 17.679 0 0 0 4.595-8.192 1.333 1.333 0 0 0-1.43-1.683zm-4.007 8.594V12.669a.745.745 0 1 0-1.489 0v12.7a16.011 16.011 0 0 1-3.2-4.908 1.2 1.2 0 0 0 .938-.6c.707-1.206-1.035-2.048-1.988-5.719a1.385 1.385 0 0 0 1.273-1.385v-1.78a12.876 12.876 0 0 1 3.721-9.211A10.65 10.65 0 0 1 9.49 9.69a.745.745 0 0 0 .745.745c.365 0 .484 0 .6.1.276.313-.983 5.771-1.072 6.174a1.318 1.318 0 0 0 1.422 1.616 16.257 16.257 0 0 1-3.929 7.056z" class="cls-2"/>
        </g>
    </g>
</svg>
