<svg xmlns="http://www.w3.org/2000/svg" width="28.906" height="40"><defs><style>.cls-1{fill:#221e1f}</style></defs><g id="smartphone_2_" transform="translate(-71)"><path id="Path_7643" d="M95.609 0H75.3A4.3 4.3 0 0071 4.3v31.4a4.3 4.3 0 004.3 4.3h20.309a4.3 4.3 0 004.3-4.3V4.3a4.3 4.3 0 00-4.3-4.3zm1.953 35.7a1.955 1.955 0 01-1.953 1.953H75.3a1.955 1.955 0 01-1.956-1.953v-1.95h24.219zm0-4.3H73.344V4.3A1.955 1.955 0 0175.3 2.344h20.309A1.955 1.955 0 0197.563 4.3z" class="cls-1"/><path id="Path_7644" d="M142.843 88.3l-2.343-4.056a1.172 1.172 0 00-1.6-.429l-.965.557a8.862 8.862 0 00-1.88-1.094v-1.106A1.172 1.172 0 00134.881 81h-4.687a1.172 1.172 0 00-1.172 1.172v1.106a8.863 8.863 0 00-1.88 1.094l-.965-.557a1.172 1.172 0 00-1.6.429l-2.345 4.056a1.172 1.172 0 00.429 1.6l.961.555a8.674 8.674 0 000 2.176l-.961.555a1.172 1.172 0 00-.429 1.6l2.344 4.059a1.172 1.172 0 001.6.429l.965-.557a8.863 8.863 0 001.88 1.094v1.106a1.172 1.172 0 001.172 1.172h4.688a1.172 1.172 0 001.172-1.172v-1.101a8.863 8.863 0 001.88-1.094l.965.557a1.172 1.172 0 001.6-.429l2.344-4.059a1.172 1.172 0 00-.429-1.6l-.961-.555a8.673 8.673 0 000-2.176l.961-.555a1.172 1.172 0 00.43-1.605zm-3.827 1.8a6.5 6.5 0 010 2.883 1.172 1.172 0 00.558 1.268l.653.377-1.172 2.03-.658-.38a1.172 1.172 0 00-1.378.151 6.58 6.58 0 01-2.489 1.448 1.172 1.172 0 00-.821 1.123v.749h-2.344V99a1.172 1.172 0 00-.821-1.118 6.581 6.581 0 01-2.489-1.448 1.172 1.172 0 00-1.378-.151l-.658.38-1.172-2.03.653-.377a1.172 1.172 0 00.558-1.268 6.5 6.5 0 010-2.883 1.172 1.172 0 00-.558-1.268l-.653-.377 1.172-2.03.658.38a1.172 1.172 0 001.378-.151 6.581 6.581 0 012.489-1.448 1.172 1.172 0 00.821-1.118v-.749h2.344v.749a1.172 1.172 0 00.821 1.118 6.582 6.582 0 012.489 1.448 1.172 1.172 0 001.378.151l.658-.38 1.172 2.03-.653.377a1.172 1.172 0 00-.558 1.269z" class="cls-1" transform="translate(-47.084 -74.672)"/><path id="Path_7645" d="M205.3 161a4.3 4.3 0 104.3 4.3 4.3 4.3 0 00-4.3-4.3zm0 6.25a1.953 1.953 0 111.953-1.953 1.955 1.955 0 01-1.953 1.953z" class="cls-1" transform="translate(-119.844 -148.422)"/></g></svg>