<svg xmlns="http://www.w3.org/2000/svg" width="50" height="50" viewBox="0 0 50 50">
    <path fill="#fff" d="M42.678 7.322A25 25 0 0 0 7.322 42.678 25 25 0 0 0 42.678 7.322zm4.342 16.213h-8.87a13.153 13.153 0 0 0-2.3-6.1c1.287-1.846 2.356-3.395 2.835-4.088a1.465 1.465 0 0 0-2.038-2.038c-.693.478-2.241 1.548-4.088 2.835a13.154 13.154 0 0 0-6.1-2.3V2.979A22.1 22.1 0 0 1 47.02 23.535zM25 35.3a10.3 10.3 0 1 1 4.956-19.33c-3.625 2.546-7.415 5.256-8.072 5.914a4.407 4.407 0 0 0 6.232 6.232c.658-.658 3.368-4.447 5.914-8.072A10.3 10.3 0 0 1 25 35.3zm6.612-16.915c-2.789 3.97-5.11 7.194-5.568 7.657a1.477 1.477 0 0 1-2.089-2.089c.463-.453 3.687-2.776 7.657-5.565zM23.535 2.979v8.87a13.257 13.257 0 0 0-11.686 11.686h-8.87A22.1 22.1 0 0 1 23.535 2.979zM2.979 26.465h8.87a13.257 13.257 0 0 0 11.686 11.686v8.87A22.1 22.1 0 0 1 2.979 26.465zm23.486 20.556v-8.87a13.257 13.257 0 0 0 11.686-11.686h8.87a22.1 22.1 0 0 1-20.556 20.556z"/>
</svg>
