<svg xmlns="http://www.w3.org/2000/svg" id="Logo" width="20.064" height="14.778" viewBox="0 0 20.064 14.778">
    <defs>
        <style>
            .cls-1{fill:#fff}
        </style>
    </defs>
    <path id="Path_7675" d="M7 21.1a9.23 9.23 0 0 0 .982.052 8.816 8.816 0 0 0 5.112-1.6 4.091 4.091 0 0 1-3.845-2.591 4.541 4.541 0 0 0 1.859-.064 3.846 3.846 0 0 1-3.3-3.658v-.047a4.427 4.427 0 0 0 1.865.467 3.651 3.651 0 0 1-1.831-3.105A3.451 3.451 0 0 1 8.4 8.683a12.126 12.126 0 0 0 8.484 3.9 3.411 3.411 0 0 1-.107-.85A3.938 3.938 0 0 1 20.891 8a4.32 4.32 0 0 1 3 1.178 8.777 8.777 0 0 0 2.614-.905 3.832 3.832 0 0 1-1.81 2.064 8.9 8.9 0 0 0 2.364-.587 7.979 7.979 0 0 1-2.054 1.931q.012.24.012.483c0 4.93-4.14 10.615-11.712 10.615A12.541 12.541 0 0 1 7 21.1z" class="cls-1" transform="translate(-7 -8)"/>
    <path id="Path_7676" d="M7 21.1a9.23 9.23 0 0 0 .982.052 8.816 8.816 0 0 0 5.112-1.6 4.091 4.091 0 0 1-3.845-2.591 4.541 4.541 0 0 0 1.859-.064 3.846 3.846 0 0 1-3.3-3.658v-.047a4.427 4.427 0 0 0 1.865.467 3.651 3.651 0 0 1-1.831-3.105A3.451 3.451 0 0 1 8.4 8.683a12.126 12.126 0 0 0 8.484 3.9 3.411 3.411 0 0 1-.107-.85A3.938 3.938 0 0 1 20.891 8a4.32 4.32 0 0 1 3 1.178 8.777 8.777 0 0 0 2.614-.905 3.832 3.832 0 0 1-1.81 2.064 8.9 8.9 0 0 0 2.364-.587 7.979 7.979 0 0 1-2.054 1.931q.012.24.012.483c0 4.93-4.14 10.615-11.712 10.615A12.541 12.541 0 0 1 7 21.1z" class="cls-1" transform="translate(-7 -8)"/>
    <path id="Path_7677" d="M7 21.1a9.23 9.23 0 0 0 .982.052 8.816 8.816 0 0 0 5.112-1.6 4.091 4.091 0 0 1-3.845-2.591 4.541 4.541 0 0 0 1.859-.064 3.846 3.846 0 0 1-3.3-3.658v-.047a4.427 4.427 0 0 0 1.865.467 3.651 3.651 0 0 1-1.831-3.105A3.451 3.451 0 0 1 8.4 8.683a12.126 12.126 0 0 0 8.484 3.9 3.411 3.411 0 0 1-.107-.85A3.938 3.938 0 0 1 20.891 8a4.32 4.32 0 0 1 3 1.178 8.777 8.777 0 0 0 2.614-.905 3.832 3.832 0 0 1-1.81 2.064 8.9 8.9 0 0 0 2.364-.587 7.979 7.979 0 0 1-2.054 1.931q.012.24.012.483c0 4.93-4.14 10.615-11.712 10.615A12.541 12.541 0 0 1 7 21.1z" class="cls-1" transform="translate(-7 -8)"/>
</svg>
