<svg xmlns="http://www.w3.org/2000/svg" id="washing" width="45" height="40.814" viewBox="0 0 45 40.814">
    <defs>
        <style>
            .cls-1{fill:#fbb316}
        </style>
    </defs>
    <path id="Path_7822" d="M326.551 411.854a.879.879 0 1 1 .861-.707.886.886 0 0 1-.861.707zm0 0" class="cls-1" transform="translate(-297.05 -374.055)"/>
    <path id="Path_7823" d="M228.748 411.828h-5.091a.879.879 0 0 1 0-1.758h5.091a.879.879 0 0 1 0 1.758zm0 0" class="cls-1" transform="translate(-203.197 -374.029)"/>
    <path id="Path_7824" d="M376.939 411.828h-5.091a.879.879 0 0 1 0-1.758h5.091a.879.879 0 0 1 0 1.758zm0 0" class="cls-1" transform="translate(-338.364 -374.029)"/>
    <path id="Path_7825" d="M38.369 89.091a6.382 6.382 0 0 0-5.469-5.479 6.286 6.286 0 0 0-.89-.054v-3.253h5a.879.879 0 0 0 .879-.879v-9.09a7.939 7.939 0 0 0-7.93-7.93H7.93A7.939 7.939 0 0 0 0 70.336v9.09a.879.879 0 0 0 .879.879h5v16.552a.879.879 0 0 0 .879.879h37.354a.879.879 0 0 0 .878-.832c.007-.134.011-.269.01-.4a7.467 7.467 0 0 0-6.631-7.413zm-15.3-24.927v1.478a4.125 4.125 0 0 1-4.121 4.12 4.125 4.125 0 0 1-4.121-4.12v-1.478zM7.64 72.322a.879.879 0 1 0-1.758 0v6.225H1.758v-8.211a6.179 6.179 0 0 1 6.172-6.172h5.136v1.478a5.885 5.885 0 0 0 5.878 5.878 5.885 5.885 0 0 0 5.878-5.878v-1.478h5.136a6.179 6.179 0 0 1 6.173 6.172v8.211h-4.124v-6.225a.879.879 0 0 0-1.758 0v11.5a6.4 6.4 0 0 0-3.981 3.478 6.763 6.763 0 0 0-2.4-.443h-.027a6.926 6.926 0 0 0-6.429 4.4 6.387 6.387 0 0 0-5.749 4.727H7.64zm5.86 23.656A4.622 4.622 0 0 1 17.812 93h.019a.746.746 0 0 1 .109.005.881.881 0 0 0 .949-.636 5.159 5.159 0 0 1 4.953-3.754h.02a5.006 5.006 0 0 1 2.471.653.879.879 0 0 0 1.284-.537 4.6 4.6 0 0 1 9.048 1.2.88.88 0 0 0 .879.881 5.706 5.706 0 0 1 5.674 5.174zm0 0" class="cls-1" transform="translate(0 -56.921)"/>
    <path id="Path_7826" d="M112.744 224.189H110.8a3.21 3.21 0 0 1-3.207-3.207v-4.275a.879.879 0 0 1 .879-.879h6.6a.879.879 0 0 1 .879.879v4.275a3.21 3.21 0 0 1-3.207 3.207zm-3.4-6.6v3.4a1.45 1.45 0 0 0 1.449 1.449h1.948a1.45 1.45 0 0 0 1.449-1.449v-3.4zm0 0" class="cls-1" transform="translate(-98.134 -196.859)"/>
    <path id="Path_7827" d="M404.7 9.527a.879.879 0 0 1-.771-.457l-1.25-2.285-2.285-1.25a.879.879 0 0 1 0-1.542l2.285-1.25 1.25-2.285a.879.879 0 0 1 1.542 0l1.25 2.285L409 3.992a.879.879 0 0 1 0 1.542l-2.286 1.25-1.25 2.285a.879.879 0 0 1-.764.458zm-2.053-4.763l1.1.6a.88.88 0 0 1 .349.35l.6 1.1.6-1.1a.878.878 0 0 1 .349-.35l1.1-.6-1.1-.6a.878.878 0 0 1-.349-.35l-.6-1.1-.6 1.1a.88.88 0 0 1-.349.35zm0 0" class="cls-1" transform="translate(-364.783)"/>
    <path id="Path_7828" d="M434.209 260.448a3.529 3.529 0 1 1 3.529-3.529 3.533 3.533 0 0 1-3.529 3.529zm0-5.3a1.771 1.771 0 1 0 1.771 1.771 1.773 1.773 0 0 0-1.771-1.771zm0 0" class="cls-1" transform="translate(-392.827 -231.12)"/>
</svg>
