<svg xmlns="http://www.w3.org/2000/svg" width="30.43" height="50"><path d="M25.731 0H4.7A4.7 4.7 0 000 4.7v40.6A4.7 4.7 0 004.7 50h21.031a4.7 4.7 0 004.7-4.7V4.7a4.7 4.7 0 00-4.7-4.7zM27.4 45.3a1.669 1.669 0 01-1.667 1.668H4.7A1.669 1.669 0 013.032 45.3v-3.982H27.4zm0-7.014H3.032V11.714H27.4zm0-29.6H3.032V4.7A1.669 1.669 0 014.7 3.032h21.031A1.669 1.669 0 0127.4 4.7zm0 0"/><path d="M18.326 4.38h-5.147a1.516 1.516 0 100 3.032h5.152a1.516 1.516 0 100-3.032zm-5.147 41.277h5.152a1.516 1.516 0 100-3.032h-5.152a1.516 1.516 0 100 3.032zm-6.29-21.618h5.39a1.516 1.516 0 001.516-1.516v-5.39a1.516 1.516 0 00-1.516-1.516h-5.39a1.517 1.517 0 00-1.516 1.516v5.39a1.516 1.516 0 001.516 1.516zm1.516-5.39h2.358v2.358H8.405zm9.737 5.39h5.39a1.516 1.516 0 001.516-1.516v-5.39a1.516 1.516 0 00-1.516-1.516h-5.39a1.516 1.516 0 00-1.516 1.516v5.39a1.516 1.516 0 001.516 1.516zm1.516-5.39h2.358v2.358h-2.358zM6.889 34.383h5.39a1.516 1.516 0 001.516-1.516v-5.39a1.516 1.516 0 00-1.516-1.516h-5.39a1.516 1.516 0 00-1.516 1.516v5.39a1.517 1.517 0 001.516 1.516zm1.516-5.391h2.358v2.358H8.405zm9.737 5.391h5.39a1.516 1.516 0 001.516-1.516v-5.39a1.516 1.516 0 00-1.516-1.516h-5.39a1.516 1.516 0 00-1.516 1.516v5.39a1.516 1.516 0 001.516 1.516zm1.516-5.391h2.358v2.358h-2.358zm0 0"/></svg>