<svg xmlns="http://www.w3.org/2000/svg" width="40" height="40" viewBox="0 0 40 40">
    <g>
        <path fill="#fbb316" d="M38.828 21.172h-2.069a8.639 8.639 0 0 0 .859-3.746c0-4.24-2.914-7.777-7.031-7.777a6.332 6.332 0 0 0-4.648 2.021V3.516A3.52 3.52 0 0 0 22.422 0H3.516A3.52 3.52 0 0 0 0 3.516v32.968A3.52 3.52 0 0 0 3.516 40h18.906a3.52 3.52 0 0 0 3.516-3.516V32.4c.9-.809 1.766-1.564 2.6-2.3a52.525 52.525 0 0 0 6.762-6.584h3.529a1.172 1.172 0 0 0 0-2.344zM2.344 3.516a1.173 1.173 0 0 1 1.172-1.172h18.906a1.173 1.173 0 0 1 1.172 1.172v1.172H2.344zm0 3.516h21.25v4.718a6.35 6.35 0 0 0-4.727-2.1c-4.129 0-7.031 3.55-7.031 7.777a8.639 8.639 0 0 0 .859 3.746H10.7a1.172 1.172 0 0 0 0 2.344h3.451a52.524 52.524 0 0 0 6.762 6.583l.5.442H2.344zm21.25 29.453a1.173 1.173 0 0 1-1.172 1.172H3.516a1.173 1.173 0 0 1-1.172-1.172v-3.594h21.25zM27 28.342c-.732.642-1.484 1.3-2.269 2-.785-.7-1.536-1.357-2.269-2-2.106-1.846-3.871-3.393-5.223-4.827h2.843a1.172 1.172 0 0 0 .975-.522l1.015-1.522 1.586 4.758a1.172 1.172 0 0 0 2.087.279l2-3h4.482C30.866 24.942 29.1 26.5 27 28.342zm7.1-7.17h-6.991a1.172 1.172 0 0 0-.975.522l-1.014 1.522-1.586-4.758a1.172 1.172 0 0 0-2.087-.279l-2 2.994h-4.088a6.838 6.838 0 0 1-1.179-3.746c0-3.1 2.015-5.433 4.688-5.433a4.31 4.31 0 0 1 3.6 2.08A8.469 8.469 0 0 1 23.6 16.4a1.172 1.172 0 0 0 2.264 0c.012-.044 1.215-4.4 4.727-4.4 2.672 0 4.688 2.336 4.688 5.433a6.838 6.838 0 0 1-1.185 3.739z"/>
    </g>
</svg>
