<svg xmlns="http://www.w3.org/2000/svg" width="50" height="50"><path d="M46.142 3.859a13.187 13.187 0 00-18.642 0L15.555 15.8 3.859 27.5A13.182 13.182 0 0022.5 46.142l11.7-11.7L46.142 22.5a13.188 13.188 0 000-18.641zM32.125 32.375l-11.7 11.7a10.253 10.253 0 01-14.5-14.5l5.842-5.842a13.4 13.4 0 00.175 3.967L8 31.642A7.324 7.324 0 0018.358 42l11.7-11.7a7.319 7.319 0 00-4.146-12.425l2.408-2.408a10.248 10.248 0 013.809 16.9zm-19.147-1.566a13.2 13.2 0 006.222 6.209l-2.909 2.909a4.394 4.394 0 11-6.214-6.214zm8.791-2.577a4.394 4.394 0 116.214 0 4.4 4.4 0 01-6.214 0zM34.2 15.8a13.179 13.179 0 00-3.642-2.572l3.159-3.159a4.394 4.394 0 016.214 6.214l-3.154 3.154A13.167 13.167 0 0034.2 15.8zm9.874 4.625l-6.092 6.092a13.4 13.4 0 00-.175-3.967l4.2-4.2A7.324 7.324 0 0031.643 8L19.7 19.947a7.319 7.319 0 004.146 12.425l-2.411 2.408a10.248 10.248 0 01-3.809-16.9L29.571 5.93a10.253 10.253 0 1114.5 14.5z"/></svg>