<svg xmlns="http://www.w3.org/2000/svg" width="50.001" height="50"><path d="M49.9 21.429L44.036 6.78a1.479 1.479 0 00-.711-.766L31.408.15a1.514 1.514 0 00-.646-.153H19.043a1.523 1.523 0 00-.651.153L6.576 6.012a1.477 1.477 0 00-.712.776L.1 21.436a1.465 1.465 0 00.9 1.925l7.694 2.594v22.58a1.465 1.465 0 001.462 1.462h29.59a1.465 1.465 0 001.465-1.465V25.958L49 23.362a1.465 1.465 0 00.9-1.933zM20.508 2.93H29.3v1.467a4.395 4.395 0 01-8.789 0zM8.692 22.863l-5.3-1.787 3.721-9.461 1.579 4.736zm29.59 24.207H11.621v-2.93h26.66zm.081-31.814a1.465 1.465 0 00-.081.482v25.473H11.621v-25.1a1.465 1.465 0 00-.075-.463L9.02 8.07l8.559-4.244v.571a7.324 7.324 0 1014.648 0v-.579l8.64 4.249zm2.848 7.613v-6.883l1.56-4.48 3.829 9.568z"/><path d="M33.692 14.647h-2.93a1.465 1.465 0 000 2.93h2.93a1.465 1.465 0 000-2.93z"/></svg>