<svg xmlns="http://www.w3.org/2000/svg" width="50" height="36.214"><path d="M42.682.43a1.465 1.465 0 10-2.072 2.072 22.081 22.081 0 010 31.212 1.465 1.465 0 102.072 2.072 25.011 25.011 0 000-35.355z"/><path d="M38.247 4.865a1.465 1.465 0 00-2.072 2.072 15.805 15.805 0 010 22.341 1.465 1.465 0 002.072 2.072 18.735 18.735 0 000-26.484z"/><path d="M33.808 9.303a1.465 1.465 0 10-2.072 2.072 9.525 9.525 0 010 13.464 1.465 1.465 0 002.072 2.072 12.455 12.455 0 000-17.607zM2.93 18.108A21.923 21.923 0 019.39 2.502 1.465 1.465 0 007.318.43a25.011 25.011 0 000 35.355 1.465 1.465 0 102.071-2.072A21.923 21.923 0 012.93 18.108z"/><path d="M9.201 18.107a15.692 15.692 0 014.624-11.171 1.465 1.465 0 00-2.072-2.072 18.735 18.735 0 000 26.484 1.465 1.465 0 102.072-2.072 15.692 15.692 0 01-4.624-11.169z"/><path d="M18.26 9.304a1.465 1.465 0 00-2.072 0 12.455 12.455 0 000 17.607 1.465 1.465 0 102.072-2.072 9.525 9.525 0 010-13.464 1.465 1.465 0 000-2.072z"/><path d="M25 11.935a6.172 6.172 0 106.172 6.172A6.179 6.179 0 0025 11.935zm0 9.414a3.242 3.242 0 113.242-3.242A3.246 3.246 0 0125 21.349z"/></svg>