<svg xmlns="http://www.w3.org/2000/svg" width="45" height="48.619" viewBox="0 0 45 48.619">
    <path fill="#fff" d="M44.285 30.273a9.157 9.157 0 0 0-7.057 3.321l-10.955-6.22a9.153 9.153 0 0 0 0-6.127l10.954-6.221a9.162 9.162 0 1 0-1.587-2.79l-10.954 6.221a9.172 9.172 0 1 0 0 11.705l10.954 6.22a9.171 9.171 0 1 0 8.645-6.11zm0-27.063a5.964 5.964 0 1 1-5.963 5.962 5.969 5.969 0 0 1 5.963-5.962zM17.63 30.273a5.963 5.963 0 1 1 5.962-5.962 5.97 5.97 0 0 1-5.962 5.962zM44.285 45.41a5.964 5.964 0 1 1 5.962-5.962 5.97 5.97 0 0 1-5.962 5.962z" transform="translate(-8.456)"/>
</svg>
