<svg xmlns="http://www.w3.org/2000/svg" width="50" height="50" viewBox="0 0 50 50">
    <path fill="#fff" d="M25.012 14.014h9.765a7.682 7.682 0 1 0 0-2.93h-9.766A12.534 12.534 0 1 0 20.33 22.4l7.276 7.276a12.489 12.489 0 0 0-2.618 6.308h-9.765a7.682 7.682 0 1 0 0 2.929h9.765a12.56 12.56 0 1 0 4.69-11.309L22.4 20.33a12.526 12.526 0 0 0 2.611-6.316zM42.318 7.8a4.753 4.753 0 1 1-4.753 4.753A4.758 4.758 0 0 1 42.318 7.8zM2.93 12.549a9.619 9.619 0 1 1 16.913 6.278 7.583 7.583 0 0 0-3.458-4.544 4.863 4.863 0 1 0-7.671 0 7.583 7.583 0 0 0-3.458 4.544 9.61 9.61 0 0 1-2.326-6.278zm7.686-1.249a1.933 1.933 0 1 1 1.933 1.933 1.935 1.935 0 0 1-1.933-1.933zm-2.691 9.69a4.628 4.628 0 1 1 9.247 0 9.665 9.665 0 0 1-9.247 0zM7.682 42.2a4.753 4.753 0 1 1 4.753-4.753A4.758 4.758 0 0 1 7.682 42.2zm25.145 3.688a4.636 4.636 0 0 1 4.623-4.827 4.633 4.633 0 0 1 4.623 4.827 9.666 9.666 0 0 1-9.247 0zm2.691-9.69a1.933 1.933 0 1 1 1.934 1.933 1.935 1.935 0 0 1-1.934-1.931zm11.552 1.253a9.611 9.611 0 0 1-2.325 6.278 7.583 7.583 0 0 0-3.458-4.544 4.863 4.863 0 1 0-7.671 0 7.583 7.583 0 0 0-3.458 4.544 9.621 9.621 0 1 1 16.912-6.278z"/>
</svg>
