<svg xmlns="http://www.w3.org/2000/svg" width="50" height="49.972" viewBox="0 0 50 49.972">
    <path fill="#fff" d="M49.571 10.657a1.465 1.465 0 0 0-.452-2.379l-4.937-2.147-1.733-5a1.465 1.465 0 0 0-2.42-.556l-2.793 2.789A25.627 25.627 0 0 0 24.983.149 24.983 24.983 0 0 0 7.317 42.8a24.984 24.984 0 0 0 39.65-29.536zm-10.259 6.117l-3.027-.812 7.051-7 2.643 1.15zm-.552 8.358a13.777 13.777 0 1 1-13.777-13.778 12.843 12.843 0 0 1 6.1 1.415l.755 3.477-1.857 1.845a8.65 8.65 0 1 0 2.066 2.077l1.831-1.819 3.6.967a12.813 12.813 0 0 1 1.277 5.815zm-8.067 0a5.717 5.717 0 1 1-2.834-4.932L23.9 24.136a1.465 1.465 0 0 0 2.065 2.078l3.962-3.936a5.673 5.673 0 0 1 .767 2.853zM40.447 4.3l.876 2.531-7.015 6.969-.6-2.761zm6.59 20.835A22.054 22.054 0 0 1 9.389 40.726 22.054 22.054 0 0 1 24.983 3.078 22.6 22.6 0 0 1 35.07 5.531l-4 4-.011.012a16.177 16.177 0 0 0-6.077-1.117A16.707 16.707 0 1 0 41.69 25.132a16.013 16.013 0 0 0-.951-5.646l.046-.042 4.008-4.008a22.043 22.043 0 0 1 2.244 9.696z" transform="translate(0 -.142)"/>
</svg>
