<svg xmlns="http://www.w3.org/2000/svg" width="50" height="50.196" viewBox="0 0 50 50.196">
    <defs>
        <style>
            .cls-1{fill:#fff}
        </style>
    </defs>
    <g id="add-user" transform="translate(-1)">
        <path id="Path_7779" d="M46.6 10.425a6.373 6.373 0 1 0-9.828 0 7.4 7.4 0 0 0-2.929 2.325 7.4 7.4 0 0 0-2.929-2.325 6.373 6.373 0 1 0-9.828 0 7.4 7.4 0 0 0-2.929 2.325 7.4 7.4 0 0 0-2.929-2.325 6.373 6.373 0 1 0-9.828 0A7.362 7.362 0 0 0 1 17.157V20.1a1.471 1.471 0 0 0 1.471 1.471h47.058A1.471 1.471 0 0 0 51 20.1v-2.943a7.362 7.362 0 0 0-4.4-6.732zM10.314 2.941a3.431 3.431 0 1 1-3.432 3.432 3.435 3.435 0 0 1 3.432-3.432zm6.373 15.686H3.941v-1.47a4.417 4.417 0 0 1 4.412-4.412h3.922a4.417 4.417 0 0 1 4.412 4.412zM26 2.941a3.431 3.431 0 1 1-3.431 3.431A3.435 3.435 0 0 1 26 2.941zm6.373 15.686H19.627v-1.47a4.417 4.417 0 0 1 4.412-4.412h3.922a4.417 4.417 0 0 1 4.412 4.412zm9.313-15.686a3.431 3.431 0 1 1-3.431 3.431 3.435 3.435 0 0 1 3.431-3.431zm6.373 15.686H35.314v-1.47a4.417 4.417 0 0 1 4.412-4.412h3.922a4.417 4.417 0 0 1 4.412 4.412z" class="cls-1"/>
        <path id="Path_7780" d="M40.706 255.1a10.305 10.305 0 0 0-9.175 5.628q-.3-.167-.614-.3a6.372 6.372 0 1 0-9.831 0 7.4 7.4 0 0 0-2.929 2.325 7.4 7.4 0 0 0-2.929-2.325 6.373 6.373 0 1 0-9.828 0 7.362 7.362 0 0 0-4.4 6.729v2.943a1.471 1.471 0 0 0 1.471 1.471h30.005a10.292 10.292 0 1 0 8.23-16.471zm-30.392-2.157a3.431 3.431 0 1 1-3.431 3.431 3.435 3.435 0 0 1 3.431-3.433zm6.373 15.686H3.941v-1.471a4.417 4.417 0 0 1 4.412-4.412h3.922a4.417 4.417 0 0 1 4.412 4.412zM26 252.941a3.431 3.431 0 1 1-3.431 3.431A3.435 3.435 0 0 1 26 252.941zm-6.373 15.686v-1.471a4.417 4.417 0 0 1 4.412-4.412h3.922a4.366 4.366 0 0 1 2.607.855 10.316 10.316 0 0 0 .365 5.028zm21.078 4.118a7.353 7.353 0 1 1 7.353-7.353 7.361 7.361 0 0 1-7.352 7.353z" class="cls-1" transform="translate(0 -225.49)"/>
        <path id="Path_7781" d="M368.353 364.941h-1.471v-1.471a1.471 1.471 0 0 0-2.941 0v1.471h-1.471a1.471 1.471 0 0 0 0 2.941h1.471v1.471a1.471 1.471 0 0 0 2.941 0v-1.471h1.471a1.471 1.471 0 1 0 0-2.941z" class="cls-1" transform="translate(-324.706 -326.51)"/>
    </g>
</svg>
