<svg xmlns="http://www.w3.org/2000/svg" width="50" height="50" viewBox="0 0 50 50">
    <path fill="#fff" d="M45.605 11.719a4.368 4.368 0 0 0-1.9.433L37.758 6.28a4.394 4.394 0 1 0-7.933.008l-2.46 2.459a13.155 13.155 0 0 0-16.485.03L8.362 6.283a4.4 4.4 0 1 0-2.069 2.074l2.522 2.5a13.119 13.119 0 0 0-2.858 8.187 13.3 13.3 0 0 0 11.719 13.2v3.012h-1.465a1.465 1.465 0 0 0-1.465 1.465v8.887a4.395 4.395 0 0 0 8.789 0v-8.889a1.465 1.465 0 0 0-1.465-1.465h-1.465v-3.012a13.3 13.3 0 0 0 11.719-13.2 13.12 13.12 0 0 0-2.888-8.224L31.9 8.36a4.39 4.39 0 0 0 3.795 0l5.947 5.871a4.394 4.394 0 1 0 3.968-2.509zm-25 33.887a1.465 1.465 0 0 1-2.93 0v-7.422h2.93zM19.141 8.789a10.2 10.2 0 0 1 6.138 2.045l-4.244 4.244a4.389 4.389 0 0 0-3.792 0l-4.265-4.226a10.2 10.2 0 0 1 6.164-2.065zm1.465 10.254a1.465 1.465 0 1 1-1.465-1.465 1.467 1.467 0 0 1 1.464 1.465zM2.93 4.395a1.465 1.465 0 1 1 1.465 1.464A1.467 1.467 0 0 1 2.93 4.395zm26.465 14.648a10.254 10.254 0 1 1-20.508 0 10.2 10.2 0 0 1 2.025-6.11l4.262 4.222a4.394 4.394 0 1 0 7.933-.005l4.244-4.244a10.2 10.2 0 0 1 2.044 6.137zm2.93-14.648A1.465 1.465 0 1 1 33.79 5.86a1.467 1.467 0 0 1-1.466-1.465zm13.28 13.183a1.465 1.465 0 1 1 1.465-1.465 1.467 1.467 0 0 1-1.465 1.465z"/>
</svg>
