<svg xmlns="http://www.w3.org/2000/svg" id="app-store" width="45" height="45" viewBox="0 0 45 45">
    <defs>
        <style>
            .cls-1{fill:#fbb316}
        </style>
    </defs>
    <g id="Group_1045">
        <g id="Group_1044">
            <path id="Path_7772" d="M35.771 0H9.229A9.239 9.239 0 0 0 0 9.229v26.542A9.239 9.239 0 0 0 9.229 45h26.542A9.239 9.239 0 0 0 45 35.771V9.229A9.239 9.239 0 0 0 35.771 0zm6.592 35.771a6.6 6.6 0 0 1-6.592 6.592H9.229a6.6 6.6 0 0 1-6.592-6.592V9.229a6.6 6.6 0 0 1 6.592-6.592h26.542a6.6 6.6 0 0 1 6.592 6.592z" class="cls-1"/>
        </g>
    </g>
    <g id="Group_1047" transform="translate(7.515 9.229)">
        <g id="Group_1046">
            <path id="Path_7773" d="M104.849 106.635a2.2 2.2 0 0 0-4.025-.53l-.338.586-.338-.586a2.2 2.2 0 0 0-3-.8 2.2 2.2 0 0 0-.8 3l1.607 2.783-5.935 10.266H87.7a2.2 2.2 0 0 0 0 4.395h16.687l-2.537-4.395h-4.756l7.535-13.052a2.183 2.183 0 0 0 .22-1.667z" class="cls-1" transform="translate(-85.5 -105.006)"/>
        </g>
    </g>
    <g id="Group_1049" transform="translate(23.515 17.065)">
        <g id="Group_1048">
            <path id="Path_7774" d="M279.321 202.677H275l-4.914-8.511-2.537 4.395 7.629 13.214a2.183 2.183 0 0 0 1.334 1.024 2.209 2.209 0 0 0 .572.076 2.2 2.2 0 0 0 1.9-3.3l-1.447-2.506h1.785a2.2 2.2 0 0 0 0-4.395z" class="cls-1" transform="translate(-267.548 -194.166)"/>
        </g>
    </g>
    <g id="Group_1051" transform="translate(9.756 31.729)">
        <g id="Group_1050">
            <path id="Path_7775" d="M111.729 361l-.432.748a2.2 2.2 0 0 0 3.806 2.2L116.8 361z" class="cls-1" transform="translate(-111.003 -361)"/>
        </g>
    </g>
</svg>
