<svg xmlns="http://www.w3.org/2000/svg" width="36" height="36" viewBox="0 0 36 36">
  <g id="telephone-call_4_" data-name="telephone-call(4)" transform="translate(-1 -1)">
    <path id="Path_7902" data-name="Path 7902" d="M35.842,26.913c-.064-.053-7.259-5.172-9.2-4.859-.937.166-1.472.805-2.546,2.084-.173.206-.589.7-.911,1.051a14.95,14.95,0,0,1-1.981-.806A16.44,16.44,0,0,1,13.617,16.8a14.949,14.949,0,0,1-.806-1.981c.353-.323.847-.739,1.058-.917,1.273-1.068,1.912-1.6,2.077-2.543.34-1.943-4.806-9.136-4.859-9.2A2.747,2.747,0,0,0,9.04,1C6.954,1,1,8.723,1,10.025c0,.076.109,7.76,9.586,17.4C20.214,36.891,27.9,37,27.975,37,29.276,37,37,31.046,37,28.96a2.749,2.749,0,0,0-1.158-2.047Zm-8,7.68c-1.042-.089-7.5-.94-15.562-8.861-7.96-8.1-8.789-14.57-8.872-15.572A32.465,32.465,0,0,1,9.056,3.486c.048.048.112.12.193.214a42.469,42.469,0,0,1,4.289,7.276,14.263,14.263,0,0,1-1.219,1.093A12.039,12.039,0,0,0,10.5,13.775a1.2,1.2,0,0,0-.205.9,13.7,13.7,0,0,0,1.158,3.169,18.852,18.852,0,0,0,8.7,8.7A13.667,13.667,0,0,0,23.324,27.7a1.189,1.189,0,0,0,.9-.205,12.09,12.09,0,0,0,1.712-1.822c.377-.449.88-1.048,1.07-1.217A42.175,42.175,0,0,1,34.3,28.751c.1.084.17.149.217.191a32.443,32.443,0,0,1-6.674,5.648Z" transform="translate(0)" fill="#fbb316"/>
    <path id="Path_7903" data-name="Path 7903" d="M24.2,16.6h2.4A9.611,9.611,0,0,0,17,7V9.4a7.207,7.207,0,0,1,7.2,7.2Z" transform="translate(3.2 1.2)" fill="#fbb316"/>
    <path id="Path_7904" data-name="Path 7904" d="M30.2,17.6h2.4A15.618,15.618,0,0,0,17,2V4.4A13.216,13.216,0,0,1,30.2,17.6Z" transform="translate(3.2 0.2)" fill="#fbb316"/>
  </g>
</svg>
