<svg xmlns="http://www.w3.org/2000/svg" width="38.552" height="50" viewBox="0 0 38.552 50">
    <defs>
        <style>
            .cls-1{fill:#fff}
        </style>
    </defs>
    <g id="choice" transform="translate(-.499)">
        <path id="Path_7785" d="M237.1 0h-9.049a3.832 3.832 0 0 0-3.828 3.827v9.05a3.832 3.832 0 0 0 3.828 3.827h9.049a3.832 3.832 0 0 0 3.827-3.827v-9.05A3.831 3.831 0 0 0 237.1 0zm.9 12.877a.9.9 0 0 1-.9.9h-9.049a.9.9 0 0 1-.9-.9v-9.05a.9.9 0 0 1 .9-.9h9.049a.9.9 0 0 1 .9.9zm0 0" class="cls-1" transform="translate(-201.872)"/>
        <path id="Path_7786" d="M28.214 20.361a4.151 4.151 0 0 0-1.947.482 4.173 4.173 0 0 0-5.535-1.32 4.176 4.176 0 0 0-4.612-1.515V16.7h.348a3.832 3.832 0 0 0 3.828-3.828V3.827A3.832 3.832 0 0 0 16.467 0H7.418a3.832 3.832 0 0 0-3.827 3.827v9.05A3.832 3.832 0 0 0 7.418 16.7h.348v9.074a4.224 4.224 0 0 0-.76-.6 4.147 4.147 0 0 0-2.99-.554 3.667 3.667 0 0 0-2.76 1.348 3.691 3.691 0 0 0-.65 3.159l1.925 8.239C3.63 44.24 8.992 49.383 9.221 49.6a1.465 1.465 0 0 0 1.007.4H26.7a1.466 1.466 0 0 0 1.224-.66 27.064 27.064 0 0 0 4.461-14.9v-9.9a4.181 4.181 0 0 0-4.171-4.179zM10.843 47.07c-1.181-1.256-4.66-5.311-5.425-10.211-.006-.036-.013-.072-.021-.107L3.46 28.461a.785.785 0 0 1 .092-.672.858.858 0 0 1 .619-.265c.142-.013.2-.03.333-.038a1.6 1.6 0 0 1 .956.177 1.239 1.239 0 0 1 .556.776l1.671 7.151a1.466 1.466 0 0 0 1.244 1.12l.117.014a1.465 1.465 0 0 0 1.652-1.452v-23.28a1.247 1.247 0 0 1 2.494 0v13.736a1.465 1.465 0 0 0 2.93 0v-3.733a1.247 1.247 0 1 1 2.494 0v3.9a1.465 1.465 0 1 0 2.93 0v-2.739a1.247 1.247 0 1 1 2.494 0v3.761a1.465 1.465 0 0 0 2.93 0v-2.38a1.247 1.247 0 1 1 2.494 0v9.9A24.135 24.135 0 0 1 25.9 47.07zM6.52 12.877v-9.05a.9.9 0 0 1 .9-.9h9.049a.9.9 0 0 1 .9.9v9.05a.9.9 0 0 1-.9.9h-.348v-1.786a4.177 4.177 0 0 0-8.353 0v1.783h-.35a.9.9 0 0 1-.898-.897zm0 0" class="cls-1"/>
    </g>
</svg>
