<svg xmlns="http://www.w3.org/2000/svg" width="40" height="35.157" viewBox="0 0 40 35.157">
    <path fill="#fbb316" d="M32.625 7.374a1.172 1.172 0 0 0-.829-.343h-3.061l.781-2.344h9.312a1.172 1.172 0 1 0 0-2.344H30.3l.267-.8A1.172 1.172 0 1 0 28.341.8l-.514 1.542H12.173L11.659.8a1.172 1.172 0 1 0-2.224.741l.267.8h-8.53a1.172 1.172 0 0 0 0 2.344h9.312l.781 2.344H8.2a1.172 1.172 0 0 0-.829.343L.343 14.405a1.172 1.172 0 0 0 0 1.657l4.688 4.688a1.172 1.172 0 0 0 1.657 0l2.687-2.687v15.921a1.172 1.172 0 0 0 1.172 1.172h18.906a1.172 1.172 0 0 0 1.172-1.172V18.063l2.687 2.687a1.172 1.172 0 0 0 1.657 0l4.688-4.687a1.172 1.172 0 0 0 0-1.657zM12.954 4.687h14.092l-.781 2.344h-1.5A1.172 1.172 0 0 0 23.594 8.2a3.595 3.595 0 0 1-7.187 0 1.172 1.172 0 0 0-1.172-1.172h-1.5zM8.689 9.375h5.493a5.954 5.954 0 0 0 11.636 0h5.493l2.344 2.344-3.03 3.03-.343-.343a1.172 1.172 0 0 0-2 .829v12.89H11.719V15.234a1.172 1.172 0 0 0-2-.829l-.343.343-3.03-3.03zm-2.829 8.89l-3.03-3.03 1.858-1.858 3.03 3.03zm5.859 14.548v-2.345h16.562v2.344zm22.422-14.549l-1.858-1.859 3.03-3.03 1.858 1.858zm0 0" transform="translate(0 .001)"/>
</svg>
