<svg xmlns="http://www.w3.org/2000/svg" id="heart_2_" width="40" height="40" viewBox="0 0 40 40">
    <defs>
        <style>
            .cls-1{fill:#fbb316}
        </style>
    </defs>
    <path id="Path_7664" d="M150.379 149.818a5.506 5.506 0 0 0-7.792 0l-.223.223-.224-.224a5.508 5.508 0 1 0-7.79 7.79l7.091 7.093a1.348 1.348 0 0 0 1.847 0l7.091-7.093a5.5 5.5 0 0 0 0-7.789zm-1.657 6.132l-6.357 6.359-6.358-6.359a3.165 3.165 0 1 1 4.477-4.475l1.054 1.053a1.172 1.172 0 0 0 1.657 0l1.051-1.052a3.165 3.165 0 0 1 4.478 4.475z" class="cls-1" transform="translate(-122.364 -136.624)"/>
    <path id="Path_7665" d="M243.344 5.779V1.172a1.172 1.172 0 0 0-2.344 0v4.607a1.172 1.172 0 0 0 2.344 0z" class="cls-1" transform="translate(-222.172)"/>
    <path id="Path_7666" d="M1.172 243.344h4.607a1.172 1.172 0 0 0 0-2.344H1.172a1.172 1.172 0 0 0 0 2.344z" class="cls-1" transform="translate(0 -222.172)"/>
    <path id="Path_7667" d="M242.172 423.031A1.172 1.172 0 0 0 241 424.2v4.607a1.172 1.172 0 0 0 2.344 0V424.2a1.172 1.172 0 0 0-1.172-1.169z" class="cls-1" transform="translate(-222.172 -389.982)"/>
    <path id="Path_7668" d="M429.981 242.172a1.172 1.172 0 0 0-1.172-1.172H424.2a1.172 1.172 0 0 0 0 2.344h4.607a1.172 1.172 0 0 0 1.174-1.172z" class="cls-1" transform="translate(-389.981 -222.172)"/>
    <path id="Path_7669" d="M75.845 75.845a1.172 1.172 0 0 0 0-1.657l-3.258-3.258a1.172 1.172 0 0 0-1.657 1.657l3.258 3.258a1.172 1.172 0 0 0 1.657 0z" class="cls-1" transform="translate(-65.072 -65.072)"/>
    <path id="Path_7670" d="M70.93 374.974a1.172 1.172 0 0 0 1.657 0l3.258-3.258a1.172 1.172 0 0 0-1.657-1.657l-3.258 3.258a1.172 1.172 0 0 0 0 1.657z" class="cls-1" transform="translate(-65.072 -340.832)"/>
    <path id="Path_7671" d="M373.316 374.975a1.172 1.172 0 1 0 1.657-1.657l-3.258-3.258a1.172 1.172 0 0 0-1.657 1.657z" class="cls-1" transform="translate(-340.831 -340.833)"/>
    <path id="Path_7672" d="M371.715 75.847l3.258-3.258a1.172 1.172 0 0 0-1.657-1.657l-3.258 3.258a1.172 1.172 0 1 0 1.657 1.657z" class="cls-1" transform="translate(-340.831 -65.074)"/>
</svg>
