<svg xmlns="http://www.w3.org/2000/svg" width="30" height="70" viewBox="0 0 30 70">
    <g fill="#221E1F" fill-rule="evenodd">
        <path d="M20.345 56.025c-.353.999-.976 1.88-1.799 2.546v-.002c-1.36 1.1-3.146 1.525-4.857 1.155-3.096-.686-5.049-3.752-4.362-6.848.428-1.931 1.82-3.506 3.683-4.168.461-.16.77-.593.772-1.081V11.638l2.297-.011v36c0 .488.309.923.77 1.084 2.985 1.054 4.55 4.33 3.496 7.314m-1.97-9.169V10.478c0-.305-.121-.597-.337-.813-.203-.232-.503-.356-.811-.335l-4.593.015c-.635 0-1.149.514-1.149 1.148v36.362c-4.012 1.9-5.724 6.693-3.824 10.705 1.068 2.255 3.122 3.886 5.56 4.415.558.117 1.127.177 1.698.178 4.44.002 8.04-3.596 8.04-8.035.002-3.103-1.782-5.929-4.584-7.262"/>
        <path d="M14.93 66.746c-6.976.009-12.638-5.64-12.647-12.616-.005-4.525 2.41-8.707 6.331-10.963.356-.205.574-.585.574-.995V8.182c.004-3.17 2.573-5.738 5.742-5.742 3.169.006 5.736 2.573 5.742 5.742v33.99c0 .41.219.79.574.995 6.046 3.48 8.127 11.202 4.648 17.248-2.257 3.922-6.44 6.337-10.964 6.331M27.51 46.07c-1.167-1.825-2.716-3.375-4.542-4.54v-6.936h3.445c.635 0 1.149-.514 1.149-1.148 0-.634-.514-1.148-1.149-1.148h-3.445V30h3.445c.635 0 1.149-.514 1.149-1.148 0-.635-.514-1.149-1.149-1.149h-3.445v-2.296h3.445c.635 0 1.149-.515 1.149-1.149s-.514-1.148-1.149-1.148h-3.445v-2.297h3.445c.635 0 1.149-.514 1.149-1.148 0-.634-.514-1.148-1.149-1.148h-3.445V16.22h3.445c.635 0 1.149-.514 1.149-1.148 0-.634-.514-1.149-1.149-1.149h-3.445V8.182c-.005-4.438-3.6-8.034-8.038-8.039-4.437.005-8.033 3.601-8.038 8.039v33.346c-6.948 4.44-8.98 13.67-4.541 20.618 4.44 6.947 13.67 8.98 20.617 4.54 6.948-4.439 8.98-13.67 4.541-20.617"/>
    </g>
</svg>
