<svg xmlns="http://www.w3.org/2000/svg" width="55" height="58" viewBox="0 0 55 58">
    <g fill="#221E1F">
        <path d="M33.256 6.395c-.706 0-1.28.573-1.28 1.28 0 .706.574 1.278 1.28 1.278.706 0 1.279-.572 1.279-1.279 0-.706-.573-1.279-1.28-1.279zM28.374 5.188c-.455-.047-.922-.072-1.388-.072-2.016 0-3.973.449-5.819 1.334-.585.28-.858 1.045-.61 1.708.246.658.918.974 1.508.692 1.56-.748 3.215-1.127 4.921-1.127.395 0 .79.02 1.176.06.631.067 1.193-.46 1.252-1.177.058-.717-.407-1.351-1.04-1.418zM37.733 8.953c-3.228 0-5.756 4.214-5.756 9.594 0 5.379 2.528 9.593 5.756 9.593 3.227 0 5.755-4.214 5.755-9.593 0-5.38-2.528-9.594-5.755-9.594zm0 16.788c-1.634 0-3.454-2.955-3.454-7.194 0-4.24 1.82-7.195 3.454-7.195 1.633 0 3.453 2.955 3.453 7.195s-1.82 7.194-3.453 7.194zM17.267 8.953c-3.227 0-5.755 4.214-5.755 9.594 0 5.379 2.528 9.593 5.755 9.593 3.228 0 5.756-4.214 5.756-9.593 0-5.38-2.528-9.594-5.756-9.594zm0 16.788c-1.633 0-3.453-2.955-3.453-7.194 0-4.24 1.82-7.195 3.453-7.195 1.634 0 3.454 2.955 3.454 7.195s-1.82 7.194-3.454 7.194z"/>
        <path d="M54.463 45.144c-.026-.032-.054-.064-.084-.094l-5.064-5.088c-.558-.56-1.613-.995-3.546-.17l-3.894-3.911c1.252-1.7 1.387-1.851 1.869-2.557l.962.966c1.396 1.402 3.667 1.402 5.063 0 1.396-1.403 1.396-3.684 0-5.086l-2.828-2.842c.524-1.949.79-3.956.79-5.979 0-1.717-.213-3.419-.633-5.068l2.67-2.683c1.4-1.406 1.4-3.68 0-5.087-1.395-1.402-3.667-1.402-5.063 0l-.851.856C40.07 3.177 34.065 0 27.44 0c-6.615 0-12.625 3.17-16.413 8.4l-.851-.855c-1.396-1.402-3.667-1.402-5.063 0-1.4 1.406-1.4 3.681 0 5.087l2.67 2.683c-.42 1.65-.633 3.351-.633 5.069 0 2.014.279 4.01.827 5.942l-2.864 2.878c-1.396 1.402-1.396 3.684 0 5.086 1.396 1.402 3.667 1.403 5.063 0l1.12-1.125c.191.264.387.525.589.78l1.407 1.766-4.063 4.081c-1.932-.825-2.987-.39-3.544.17L.62 45.05c-.03.03-.058.062-.084.094-1.586 1.793.57 5.48 3.46 8.385 1.989 1.997 6.252 5.345 8.346 3.475.032-.027.063-.054.093-.084l5.064-5.088c.558-.56.991-1.62.17-3.561l1.641-1.65c2.027 2.363 4.973 3.738 8.13 3.738 3.19 0 6.157-1.399 8.184-3.801l1.705 1.713c-.821 1.94-.387 3 .17 3.56l5.061 5.087.002.001c2.041 2.05 6.367-1.308 8.44-3.39 2.889-2.905 5.045-6.592 3.46-8.385zM48.08 30.899c.466.468.466 1.228 0 1.695-.465.468-1.222.468-1.687 0l-1.374-1.38c.4-.75.76-1.521 1.075-2.311l1.986 1.996zM46.393 9.241c.465-.467 1.222-.467 1.688 0 .466.469.466 1.227 0 1.695l-1.818 1.826c-.316-.786-.682-1.551-1.093-2.292l1.223-1.229zM6.802 10.936c-.467-.468-.467-1.226 0-1.695.465-.467 1.222-.468 1.687 0l1.223 1.229c-.411.74-.777 1.506-1.093 2.292l-1.817-1.826zm1.687 21.658c-.465.468-1.222.468-1.687 0-.465-.467-.465-1.228 0-1.695l2.056-2.066c.327.778.7 1.536 1.115 2.27L8.49 32.594zm1.974-6.295c-.614-1.913-.925-3.903-.925-5.915 0-9.879 7.95-17.986 17.903-17.986 9.95 0 17.903 8.108 17.903 17.986 0 4.529-1.485 8.798-4.04 12.249l-3.381 4.566c-1.085-4.865-5.403-8.422-10.482-8.422-4.91 0-9.069 3.308-10.342 7.874-3.21-4.083-5.254-6.039-6.636-10.352zm23.196 7.664l-2.018 1.351c-1.108-1.105-2.609-1.741-4.2-1.741-1.592 0-3.093.636-4.2 1.741l-2.018-1.351c1.575-1.763 3.823-2.788 6.218-2.788 2.394 0 4.643 1.025 6.218 2.788zM5.685 51.833c-2.333-2.344-3.215-4.3-3.3-5.01.71.084 2.656.97 4.988 3.314 2.333 2.343 3.215 4.298 3.299 5.01-.708-.085-2.654-.971-4.987-3.314zm6.92 1.525c-.743-1.759-2.21-3.577-3.544-4.917-1.544-1.551-3.31-2.891-4.894-3.562L7.3 41.732c.445-.024 1.225.364 1.621.572 1.105.602 2.353 1.576 3.516 2.745 1.957 1.965 2.742 3.547 2.734 3.535.208.387.59 1.187.568 1.626l-3.133 3.148zm3.84-7.248c-.64-.92-1.433-1.866-2.32-2.757-.887-.89-1.828-1.687-2.744-2.33l3.413-3.428L16.708 40c.064 1.617.486 3.186 1.234 4.605l-1.498 1.505zm9.802 1.765c-4.087-.587-7.16-4.114-7.16-8.307 0-1.261.278-2.49.81-3.611l2.018 1.35c-.29.714-.442 1.479-.442 2.26 0 2.896 2.054 5.318 4.774 5.875v2.433zm-2.387-8.307c0-1.98 1.606-3.597 3.581-3.597 1.973 0 3.58 1.614 3.58 3.597 0 1.983-1.606 3.597-3.58 3.597s-3.58-1.614-3.58-3.597zm4.775 8.307v-2.432c2.72-.558 4.774-2.98 4.774-5.875 0-.782-.152-1.547-.442-2.26l2.017-1.351c.533 1.121.812 2.35.812 3.611 0 4.154-3.036 7.716-7.161 8.307zm8.346-3.347c.568-1.102.944-2.304 1.107-3.535l2.346-3.168 3.184 3.199c-.915.642-1.856 1.438-2.743 2.33-.887.89-1.68 1.836-2.32 2.757l-1.574-1.583zm5.413 8.83l-3.133-3.148c-.022-.447.363-1.237.57-1.628.599-1.11 1.568-2.364 2.732-3.533 1.958-1.967 3.53-2.754 3.518-2.746.385-.21 1.184-.595 1.619-.571l3.133 3.147c-1.583.67-3.35 2.01-4.894 3.562-1.338 1.344-2.803 3.162-3.545 4.917zm6.92-1.525c-2.332 2.343-4.278 3.23-4.987 3.314.085-.712.968-2.667 3.3-5.01 2.332-2.344 4.279-3.23 4.987-3.314-.085.711-.968 2.666-3.3 5.01z"/>
    </g>
</svg>
