<svg xmlns="http://www.w3.org/2000/svg" width="38.919" height="45" viewBox="0 0 38.919 45">
    <defs>
        <style>
            .cls-1{fill:#fbb316}
        </style>
    </defs>
    <g id="search_bluetooth_device_connecting" transform="translate(-4.757 -3)">
        <path id="Path_7765" d="M19.757 25.5l12-9a1.729 1.729 0 0 0 0-2.769L17.91 3.346a1.731 1.731 0 0 0-2.769 1.385v17.307l-7.616-5.711A1.731 1.731 0 1 0 5.45 19.1l8.538 6.4-8.538 6.4a1.731 1.731 0 1 0 2.076 2.77l7.615-5.712v17.311a1.731 1.731 0 0 0 2.769 1.385l13.846-10.385a1.729 1.729 0 0 0 0-2.769zM18.6 8.192l9.23 6.923-9.23 6.923zm0 34.615V28.962l9.23 6.923z" class="cls-1"/>
        <path id="Path_7766" d="M23.315 13.508a1.731 1.731 0 1 0-2.451 2.446 3.167 3.167 0 0 1 0 4.477 1.731 1.731 0 1 0 2.447 2.446 6.627 6.627 0 0 0 0-9.369z" class="cls-1" transform="translate(11.374 7.308)"/>
        <path id="Path_7767" d="M25.724 9.519a1.731 1.731 0 1 0-2.446 2.448 12.952 12.952 0 0 1 0 18.318 1.731 1.731 0 1 0 2.447 2.448 16.411 16.411 0 0 0 0-23.214z" class="cls-1" transform="translate(13.142 4.372)"/>
    </g>
</svg>
