<svg xmlns="http://www.w3.org/2000/svg" id="consultation" width="50" height="50" viewBox="0 0 50 50">
    <defs>
        <style>
            .cls-1{fill:#fbb316}
        </style>
    </defs>
    <path id="Path_7844" d="M15.2 114.116h-3.213v-4.979a5.971 5.971 0 0 0-1.694-4.17 6.634 6.634 0 1 0-8.014-.529A5.984 5.984 0 0 0 0 109.137v14.83h9.778v9.778h9.851v-15.2a4.43 4.43 0 0 0-4.429-4.429zM6.632 95.738a3.7 3.7 0 1 1-3.7 3.7 3.707 3.707 0 0 1 3.7-3.7zM16.7 130.816h-3.992v-9.778H2.93v-11.9a3.064 3.064 0 0 1 6.128 0v7.909H15.2a1.5 1.5 0 0 1 1.5 1.5zm0 0" class="cls-1" transform="translate(0 -83.745)"/>
    <path id="Path_7845" d="M328.35 104.438a6.631 6.631 0 1 0-8.014.529 5.971 5.971 0 0 0-1.694 4.169v4.979h-3.217a4.43 4.43 0 0 0-4.425 4.426v15.2h9.851v-9.778h9.778v-14.83a5.984 5.984 0 0 0-2.279-4.695zm-4.35-8.7a3.7 3.7 0 1 1-3.7 3.7 3.707 3.707 0 0 1 3.7-3.7zm3.7 25.3h-9.778v9.778h-3.992v-12.275a1.5 1.5 0 0 1 1.5-1.5h6.146v-7.909a3.064 3.064 0 0 1 6.128 0zm0 0" class="cls-1" transform="translate(-280.629 -83.745)"/>
    <path id="Path_7846" d="M178.75 11.881V4.134A4.138 4.138 0 0 0 174.616 0h-10.482A4.138 4.138 0 0 0 160 4.134v7.747a4.139 4.139 0 0 0 4.134 4.134h1.775l3.466 6 3.466-6h1.775a4.139 4.139 0 0 0 4.134-4.134zm-2.93 0a1.206 1.206 0 0 1-1.2 1.2h-3.47l-1.775 3.074-1.775-3.069h-3.466a1.206 1.206 0 0 1-1.2-1.2V4.134a1.206 1.206 0 0 1 1.2-1.2h10.482a1.206 1.206 0 0 1 1.2 1.2zm0 0" class="cls-1" transform="translate(-144.375)"/>
</svg>
