<svg xmlns="http://www.w3.org/2000/svg" width="39.247" height="50" viewBox="0 0 39.247 50">
    <defs>
        <style>
            .cls-1{fill:#fbb316}
        </style>
    </defs>
    <g id="hand" transform="translate(-10.712)">
        <path id="Path_7916" d="M48.992 30.8a2.609 2.609 0 0 0-1.387-.566 3.461 3.461 0 0 0-1.172-3.48 3.691 3.691 0 0 0-2.16-.926 3.551 3.551 0 0 0-1.086-4.406 3.855 3.855 0 0 0-2.676-.7c1.879-3.8 5.562-11.269 6.59-13.527.363-.781 1.465-3.211-.437-4.687a2.945 2.945 0 0 0-2.336-.578 4.619 4.619 0 0 0-3.031 2.2c-.969 1.477-2.223 3.6-3.555 5.859-1.8 3.027-3.832 6.461-5.406 8.711-.219.309-1.3 2-2.168 3.465-.59-2.344-1.23-4.867-1.5-5.734-.344-1.09-2.238-6.5-5.953-6.2a2.691 2.691 0 0 0-2.187 1.2c-.91 1.434-.352 3.734.277 5.41.5 1.332.684 7.617.684 11.269 0 .445-.312 3.008-.617 5.469-.27 2.187-.566 4.6-.742 6.316l-2.074-1.1a.781.781 0 0 0-1.051.3L10.8 49.837a.781.781 0 0 0 1.352.781l5.824-10.086 19.532 10.52a.786.786 0 1 0 .762-1.375l-.711-.391a33.037 33.037 0 0 0 4.547-4.609 22.043 22.043 0 0 0 2.469-4.98c.117-.1.234-.2.344-.3a47.66 47.66 0 0 0 4.593-5.197 2.508 2.508 0 0 0-.52-3.406zm-5.1-3.414a2.008 2.008 0 0 1 1.531.551 1.906 1.906 0 0 1 .285 2.7c-.344.391-1.484 1.664-2.82 3.125-.059.059-.113.121-.172.184-.8.863-1.5 1.609-1.871 2.055-1.4 1.562-2.68 2.945-3.3 3.648a1.523 1.523 0 0 1-1.062.566 1.316 1.316 0 0 1-.98-.391c-.23-.223-.711-.687.211-2 .156-.227.48-.676.91-1.27l.031-.035c.621-.836 1.93-2.637 3.273-4.492l1.812-2.473 1.094-1.5a1.52 1.52 0 0 1 1.062-.668zM42.273 22.7a2.047 2.047 0 0 1 .418 2.793c-.422.594-2.262 3.148-4.035 5.6-1.172 1.621-2.437 3.328-3.289 4.5-.652.859-1.375 1.043-2.148.547-.289-.184-1.055-.672-.109-2.312.145-.242.438-.758.824-1.434 1.559-2.73 4.461-7.785 5.406-9.371a1.68 1.68 0 0 1 1.129-.738 2.344 2.344 0 0 1 1.8.4zM40.8 43.79a35.12 35.12 0 0 1-4.754 4.723L21.613 40.72c.148-1.684.5-4.457.8-6.934.391-3.184.629-5.164.629-5.676 0-1 0-9.785-.781-11.82-.7-1.844-.852-3.348-.426-4.02a1.172 1.172 0 0 1 1-.488c2.078-.172 3.715 3.125 4.34 5.109.535 1.7 2.629 10.34 2.648 10.426a.782.782 0 1 0 1.52-.367c-.027-.121-.285-1.172-.633-2.59.715-1.375 2.621-4.371 2.9-4.773 1.609-2.3 3.574-5.609 5.469-8.809C40.4 8.548 41.652 6.447 42.6 5a3.2 3.2 0 0 1 1.986-1.51 1.391 1.391 0 0 1 1.1.258c.3.234.926.719-.027 2.8-1.359 2.973-7.4 15.156-7.672 15.707-.992 1.613-3.855 6.621-5.41 9.355l-.82 1.43c-1.074 1.863-.848 3.469.617 4.41a3.156 3.156 0 0 0 1.469.508 2.562 2.562 0 0 0 .563 2.957 2.887 2.887 0 0 0 2.023.852h.1a3.07 3.07 0 0 0 2.178-1.067c.328-.391.844-.941 1.465-1.625a2.59 2.59 0 0 0 .668.925 2.223 2.223 0 0 0 1.527.6h.18a17.578 17.578 0 0 1-1.75 3.176zm7.394-10.406a44.291 44.291 0 0 1-4.359 4.871c-.051.051-1.242 1.172-1.953.555-.684-.617-.137-1.457.145-1.8l.441-.457 1.562-1.734c.781-.848 1.652-1.773 2.258-2.484a1.4 1.4 0 0 1 1.047-.555 1.086 1.086 0 0 1 .68.25.992.992 0 0 1 .18 1.344z" class="cls-1" transform="translate(0 -1.146)"/>
        <path id="Path_7917" d="M59.641 7.078a.781.781 0 0 0 .781-.781V.781a.781.781 0 0 0-1.562 0V6.3a.781.781 0 0 0 .781.778z" class="cls-1" transform="translate(-29.34)"/>
        <path id="Path_7918" d="M67.621 12.919a.781.781 0 0 0 .574-.254L72 8.5a.788.788 0 1 0-1.172-1.055l-3.789 4.172a.779.779 0 0 0 .578 1.3z" class="cls-1" transform="translate(-34.203 -4.377)"/>
        <path id="Path_7919" d="M45.112 12.666a.78.78 0 0 0 1.152-1.051l-3.808-4.172A.788.788 0 1 0 41.284 8.5z" class="cls-1" transform="translate(-18.507 -4.377)"/>
    </g>
</svg>
