<svg xmlns="http://www.w3.org/2000/svg" width="32" height="22.5" viewBox="0 0 32 22.5">
    <g>
        <g>
            <path fill="#fff" d="M29.188 76H2.813A2.816 2.816 0 0 0 0 78.813v16.875A2.816 2.816 0 0 0 2.813 98.5h26.375A2.816 2.816 0 0 0 32 95.688V78.813A2.816 2.816 0 0 0 29.188 76zm-.432 1.875l-12.03 12.068a1.1 1.1 0 0 1-1.453 0L3.244 77.875zM1.875 95.343V79.157l8.067 8.093zm1.369 1.282l8.021-8.047 2.68 2.689a2.967 2.967 0 0 0 4.109 0l2.68-2.689 8.021 8.047zm26.881-1.282l-8.067-8.093 8.067-8.093z" transform="translate(0 -76) translate(0 76) translate(0 -76)"/>
        </g>
    </g>
</svg>
