<svg xmlns="http://www.w3.org/2000/svg" width="50" height="50.001" viewBox="0 0 50 50.001">
    <defs>
        <style>
            .cls-1{fill:#fff}
        </style>
    </defs>
    <g id="exercise" transform="translate(-.5)">
        <path id="Path_7783" d="M26.868 13.184A13.184 13.184 0 1 0 6 23.887L4.569 34.461A28.138 28.138 0 0 0 6.472 49.1a1.464 1.464 0 0 0 1.352.9h30.958a11.736 11.736 0 1 0-10.714-16.79 11.281 11.281 0 0 0-4.13-.788 11.01 11.01 0 0 0-2.974.414c-.512-2.858-.866-4.016-1.706-7.707a13.2 13.2 0 0 0 7.61-11.945zm-8.686 20.748a11.693 11.693 0 0 0-2.53 1.923 1.465 1.465 0 1 0 2.071 2.071 8.768 8.768 0 0 1 2.332-1.67 10.8 10.8 0 0 1 3.883-.9 8.657 8.657 0 0 1 4.212 1.124 1.465 1.465 0 0 0 2.1-.84 8.85 8.85 0 1 1 8.529 11.431H8.821a25.218 25.218 0 0 1-1.349-12.215l1.274-9.448a13.186 13.186 0 0 0 7.723.663c.748 3.316 1.16 4.629 1.713 7.861zm-4.5-10.494a10.254 10.254 0 1 1 10.256-10.254 10.266 10.266 0 0 1-10.254 10.254zm0 0" class="cls-1"/>
        <path id="Path_7784" d="M94.895 90a4.395 4.395 0 1 0 4.395 4.395A4.4 4.4 0 0 0 94.895 90zm0 5.859a1.465 1.465 0 1 1 1.465-1.465 1.467 1.467 0 0 1-1.465 1.465zm0 0" class="cls-1" transform="translate(-81.211 -81.211)"/>
    </g>
</svg>
