<svg xmlns="http://www.w3.org/2000/svg" width="213" height="70" viewBox="0 0 213 70">
    <defs>
        <linearGradient id="m29t1zy4ma" x1=".914" x2="-.384" y1=".05" y2=".719" gradientUnits="objectBoundingBox">
            <stop offset="0" stop-color="#00a0ff"/>
            <stop offset=".007" stop-color="#00a1ff"/>
            <stop offset=".26" stop-color="#00beff"/>
            <stop offset=".512" stop-color="#00d2ff"/>
            <stop offset=".76" stop-color="#00dfff"/>
            <stop offset="1" stop-color="#00e3ff"/>
        </linearGradient>
        <linearGradient id="swwiwidovb" x1="1.074" x2="-1.304" y1=".501" y2=".501" gradientUnits="objectBoundingBox">
            <stop offset="0" stop-color="#ffe000"/>
            <stop offset=".409" stop-color="#ffbd00"/>
            <stop offset=".775" stop-color="orange"/>
            <stop offset="1" stop-color="#ff9c00"/>
        </linearGradient>
        <linearGradient id="07vwl9p8tc" x1=".862" x2="-.501" y1=".179" y2="1.948" gradientUnits="objectBoundingBox">
            <stop offset="0" stop-color="#ff3a44"/>
            <stop offset="1" stop-color="#c31162"/>
        </linearGradient>
        <linearGradient id="hc8umczmjd" x1="-.188" x2=".421" y1="-.543" y2=".248" gradientUnits="objectBoundingBox">
            <stop offset="0" stop-color="#32a071"/>
            <stop offset=".069" stop-color="#2da771"/>
            <stop offset=".476" stop-color="#15cf74"/>
            <stop offset=".801" stop-color="#06e775"/>
            <stop offset="1" stop-color="#00f076"/>
        </linearGradient>
    </defs>
    <g>
        <g stroke="#fff" stroke-miterlimit="10">
            <path stroke="none" d="M0 0H213V70H0z" transform="translate(-642 -211) translate(642 211)"/>
            <path fill="none" d="M0.5 0.5H212.5V69.5H0.5z" transform="translate(-642 -211) translate(642 211)"/>
        </g>
        <text fill="#fff" font-family="Roboto-Regular, Roboto" font-size="15px" transform="translate(-642 -211) translate(710.928 238)">
            <tspan x="0" y="0">Download on</tspan>
        </text>
        <path fill="#fff" d="M376.933 348.178a5.764 5.764 0 1 0 5.781 5.764 5.676 5.676 0 0 0-5.781-5.764zm0 9.26a3.5 3.5 0 1 1 3.257-3.5 3.348 3.348 0 0 1-3.257 3.5zm15.484-7.964h-.085a3.963 3.963 0 0 0-3.036-1.3 5.769 5.769 0 0 0 0 11.528 3.913 3.913 0 0 0 3.036-1.313h.085v.836c0 2.2-1.177 3.377-3.07 3.377a3.176 3.176 0 0 1-2.9-2.046l-2.2.921a5.493 5.493 0 0 0 5.116 3.411c2.967 0 5.474-1.739 5.474-6v-10.352h-2.4zm-2.9 7.964a3.509 3.509 0 0 1 0-6.992 3.526 3.526 0 0 1 0 6.992zm-25.2-9.26a5.764 5.764 0 1 0 5.781 5.764 5.676 5.676 0 0 0-5.785-5.764zm0 9.26a3.5 3.5 0 1 1 3.257-3.5 3.348 3.348 0 0 1-3.261 3.5zm-15.024-7.5v2.439h5.849a5.086 5.086 0 0 1-1.33 3.087 5.987 5.987 0 0 1-4.519 1.791 6.5 6.5 0 0 1 0-12.995 6.309 6.309 0 0 1 4.413 1.74l1.722-1.722a8.547 8.547 0 0 0-6.139-2.473 8.954 8.954 0 1 0 0 17.906 8.177 8.177 0 0 0 6.241-2.507 8.061 8.061 0 0 0 2.115-5.713 8.287 8.287 0 0 0-.136-1.535zm61.392 1.927a5.342 5.342 0 0 0-4.928-3.666 5.482 5.482 0 0 0-5.44 5.764 5.64 5.64 0 0 0 5.713 5.764 5.744 5.744 0 0 0 4.809-2.558l-1.961-1.313a3.287 3.287 0 0 1-2.831 1.586 2.967 2.967 0 0 1-2.8-1.739l7.708-3.189zm-7.844 1.91a3.152 3.152 0 0 1 3.018-3.359 2.191 2.191 0 0 1 2.132 1.228zm-6.276 5.593h2.524v-16.937h-2.524zm25.989-16.934H416.5v16.934h2.524v-6.412h3.53a5.269 5.269 0 1 0 0-10.522zm.068 8.134h-3.6v-5.8h3.6a2.9 2.9 0 1 1 0 5.8zm6.89 8.8h2.524v-16.937h-2.524zm8.731-11.221a4.757 4.757 0 0 0-4.519 2.592l2.251.938a2.382 2.382 0 0 1 2.3-1.245 2.43 2.43 0 0 1 2.66 2.183v.171a5.67 5.67 0 0 0-2.643-.648c-2.422 0-4.877 1.33-4.877 3.82 0 2.268 1.978 3.718 4.212 3.718a3.558 3.558 0 0 0 3.223-1.654h.085v1.313h2.439v-6.5c.015-3.003-2.236-4.691-5.135-4.691zm-.307 9.294c-.836 0-1.978-.409-1.978-1.432 0-1.313 1.432-1.808 2.677-1.808a4.482 4.482 0 0 1 2.3.563 3.045 3.045 0 0 1-3.003 2.674zm14.342-8.919l-2.9 7.35h-.085l-3-7.35h-2.729l4.5 10.266-2.575 5.73h2.643l6.958-15.979h-2.814z" transform="translate(-642 -211) translate(368.413 -98.158)"/>
        <g>
            <path fill="url(#m29t1zy4ma)" d="M134.988 311.029a2.942 2.942 0 0 0-.688 2.065v32.537a2.942 2.942 0 0 0 .688 2.064l.108.108 18.236-18.236v-.43L135.1 310.9z" transform="translate(-642 -211) translate(102 -6962) translate(424.2 6876.57)"/>
            <path fill="url(#swwiwidovb)" d="M228.864 380l-6.065-6.086v-.43l6.086-6.086.129.086 7.2 4.086c2.065 1.161 2.065 3.075 0 4.258l-7.2 4.086z" transform="translate(-642 -211) translate(102 -6962) translate(354.733 6832.221)"/>
            <path fill="url(#07vwl9p8tc)" d="M162.059 402.915l-6.215-6.215-18.344 18.344c.667.71 1.806.817 3.054.086z" transform="translate(-642 -211) translate(102 -6962) translate(421.688 6809.221)"/>
            <path fill="url(#hc8umczmjd)" d="M162.059 321.522l-21.505-12.215c-1.269-.71-2.387-.624-3.054.086l18.344 18.344z" transform="translate(-642 -211) translate(102 -6962) translate(421.688 6878.206)"/>
            <path d="M161.908 425l-21.355 12.129a2.426 2.426 0 0 1-2.946.021l-.108.108.108.107a2.428 2.428 0 0 0 2.946-.021l21.505-12.215z" opacity="0.2" transform="translate(-642 -211) translate(102 -6962) translate(421.688 6787.008)"/>
            <path d="M134.988 414.829a2.942 2.942 0 0 1-.688-2.064v.215a2.942 2.942 0 0 0 .688 2.065l.108-.108zm31.742-16.215l-7.333 4.172.129.129 7.2-4.086a2.578 2.578 0 0 0 1.548-2.129 2.71 2.71 0 0 1-1.544 1.914z" opacity="0.12" transform="translate(-642 -211) translate(102 -6962) translate(424.2 6809.221)"/>
            <path fill="#fff" d="M138.042 309.421l28.688 16.3a2.766 2.766 0 0 1 1.548 1.914 2.579 2.579 0 0 0-1.548-2.129l-28.688-16.3c-2.064-1.161-3.742-.194-3.742 2.151v.215c0-2.345 1.677-3.312 3.742-2.151z" opacity="0.25" transform="translate(-642 -211) translate(102 -6962) translate(424.2 6878.286)"/>
        </g>
    </g>
</svg>
