<svg xmlns="http://www.w3.org/2000/svg" id="graphic" width="50" height="50" viewBox="0 0 50 50">
    <defs>
        <style>
            .cls-1{fill:#fff}
        </style>
    </defs>
    <path id="Path_7789" d="M48.535 47.07H2.93V1.465a1.465 1.465 0 0 0-2.93 0v47.07A1.465 1.465 0 0 0 1.465 50h47.07a1.465 1.465 0 0 0 0-2.93z" class="cls-1"/>
    <path id="Path_7790" d="M61.465 330A1.465 1.465 0 0 0 60 331.465v8.984a1.465 1.465 0 0 0 1.465 1.465h5.957a1.465 1.465 0 0 0 1.465-1.465v-8.984A1.465 1.465 0 0 0 67.422 330zm4.492 8.984H62.93v-6.054h3.027z" class="cls-1" transform="translate(-54.141 -297.773)"/>
    <path id="Path_7791" d="M182.465 270a1.465 1.465 0 0 0-1.465 1.465v14.844a1.465 1.465 0 0 0 1.465 1.465h5.859a1.465 1.465 0 0 0 1.465-1.465v-14.844a1.465 1.465 0 0 0-1.465-1.465zm4.395 14.844h-2.93V272.93h2.93z" class="cls-1" transform="translate(-163.324 -243.633)"/>
    <path id="Path_7792" d="M302.465 210a1.465 1.465 0 0 0-1.465 1.465v20.7a1.465 1.465 0 0 0 1.465 1.465h5.859a1.465 1.465 0 0 0 1.465-1.465v-20.7a1.465 1.465 0 0 0-1.465-1.465zm4.395 20.7h-2.93v-17.77h2.93z" class="cls-1" transform="translate(-271.605 -189.492)"/>
    <path id="Path_7793" d="M428.422 150h-5.957a1.465 1.465 0 0 0-1.465 1.465v26.563a1.465 1.465 0 0 0 1.465 1.465h5.957a1.465 1.465 0 0 0 1.465-1.465v-26.563a1.465 1.465 0 0 0-1.465-1.465zm-1.465 26.563h-3.027V152.93h3.027z" class="cls-1" transform="translate(-379.887 -135.352)"/>
    <path id="Path_7794" d="M96.061 38.634a1.465 1.465 0 0 0 1.965-.655l2.93-5.859A1.465 1.465 0 0 0 99.645 30h-7.324a1.465 1.465 0 0 0 0 2.93h1.5L60.769 50.682a1.465 1.465 0 1 0 1.386 2.581L96.27 34.941l-.864 1.729a1.465 1.465 0 0 0 .655 1.965z" class="cls-1" transform="translate(-54.138 -27.07)"/>
</svg>
