<svg width="70" height="61" xmlns="http://www.w3.org/2000/svg"><g fill="#302E2F" fill-rule="evenodd"><path d="M52.662 58.696h-3.668a8.167 8.167 0 01-6.074-2.665c-1.512-1.643-2.31-3.717-2.151-6.291l.64-10.047c.37.224.754.394 1.131.589.835.43 1.712.88 3.14 1.302.097 2.03.999 5.026 4.038 5.728 1.346.31 1.768-1.7.462-2.002-1.731-.4-2.242-2.08-2.39-3.253 1.434.235 2.584.236 2.598.237a1.027 1.027 0 100-2.054h-.029c-4.65-.063-9.055-2.457-12.393-5.982a4.216 4.216 0 00-6.107 0c-6.036 6.377-12.217 5.937-12.422 5.982a1.027 1.027 0 100 2.054c.033-.002 1.072.013 2.524-.218-.151 1.172-.667 2.837-2.388 3.234-1.307.302-.886 2.312.461 2.002 3.03-.699 3.934-3.677 4.036-5.706a17.794 17.794 0 002.502-.948c.014-.006 1.747-.905 1.982-1.049.755 11.813.63 9.935.649 10.15.396 4.789-3.366 8.936-8.227 8.936h-3.264a1.028 1.028 0 000 2.054h3.264c6.016 0 10.765-5.147 10.274-11.15l-.727-11.391a25.015 25.015 0 002.828-2.538 2.13 2.13 0 011.562-.67c1.488 0 1.36.896 4.524 3.328l-.718 11.27a10.334 10.334 0 002.69 7.824 10.334 10.334 0 007.585 3.326h3.668a1.027 1.027 0 100-2.053"/><path d="M69.903 56.329C67.758 40.31 65.733 25.18 55.789 18.59a8.022 8.022 0 00-4.447-1.335c-4.095 0-10.427 3.11-10.783 7.405l-.227 2.737c-.75-1.087-1.311-1.885-1.311-3.204V1.097a1.027 1.027 0 10-2.054 0v23.097c0 1.13.312 2.232.902 3.19a29.459 29.459 0 002.495 3.401c1.58 1.807 3.065 2.936 4.574 3.783.071.04.138.103.211.141.042.03.267.138.348.159 1.456.727 3.325 1.264 4.933 1.264.15 0 .26-.1.39-.16.11-.05.243-.051.328-.135.647-.636.209-1.747-.705-1.76-.492-.006-.975-.11-1.46-.2.94-.657 1.894-1.718 2.364-3.457a1.028 1.028 0 00-1.983-.536c-.68 2.512-2.708 2.917-3.262 2.985-1.486-.8-2.79-1.896-3.904-3.121l.409-4.917c.247-2.994 5.54-5.52 8.735-5.52 1.187 0 2.333.343 3.312.992 9.165 6.075 11.131 20.755 13.213 36.298l.034.253c.063.471-.075.928-.388 1.285-.314.36-.748.557-1.225.557h-9.107a1.027 1.027 0 100 2.054h9.107a3.68 3.68 0 003.65-4.17l-.035-.251zM15.316 20.303a5.972 5.972 0 013.313-.993c3.193 0 8.487 2.527 8.735 5.52l.394 4.764c-.356.398-.722.72-1.085 1.065-.883.838-.5.638-2.112 1.685-.27.175-.535.395-.809.543-.411-.038-2.65-.366-3.364-3.003a1.028 1.028 0 00-1.983.536c.471 1.741 1.426 2.804 2.369 3.462-.463.08-.923.19-1.391.196-.91.012-1.355 1.122-.705 1.76.064.062.169.056.248.1.162.092.29.197.485.194 1.501-.02 3.941-.696 5.214-1.37 3.11-1.648 5.674-4.682 7.334-7.378a6.07 6.07 0 00.9-3.186v-23.1a1.027 1.027 0 10-2.054 0v23.1c0 1.656-.927 2.53-1.191 2.92l-.203-2.457c-.356-4.295-6.688-7.405-10.783-7.405a8.02 8.02 0 00-4.448 1.335C3.626 25.587 1.867 42.886.033 56.581a3.682 3.682 0 003.648 4.169h8.142a1.027 1.027 0 000-2.054H3.681c-.475 0-.91-.198-1.224-.556-.596-.681-.35-1.424-.354-1.54C4.184 41.059 6.15 26.378 15.316 20.304"/></g></svg>