<svg xmlns="http://www.w3.org/2000/svg" width="32.664" height="30.813" viewBox="0 0 32.664 30.813">
    <g>
        <g>
            <g>
                <path fill="#fbb316" stroke="#fbb316" stroke-width="0.5px" d="M18.146 30.038A1.146 1.146 0 0 1 17 28.893V15.146a1.146 1.146 0 0 1 2.291 0v13.747a1.146 1.146 0 0 1-1.145 1.145z" transform="translate(-942.25 -1773.874) translate(964.646 1788.398) translate(-17 -14)"/>
            </g>
        </g>
        <g>
            <g>
                <path fill="#fbb316" d="M25.745 21.2a1.151 1.151 0 0 1-.811-.335l-4.049-4.053-4.051 4.053a1.145 1.145 0 0 1-1.62-1.62l4.86-4.862a1.177 1.177 0 0 1 1.62 0l4.86 4.862a1.144 1.144 0 0 1-.809 1.954z" transform="translate(-942.25 -1773.874) translate(959.785 1788.526) translate(-14.879 -14.056)"/>
            </g>
        </g>
        <g>
            <path fill="#fbb316" stroke="#fbb316" stroke-width="1.5px" d="M12.049 23.376a.712.712 0 0 1-.5-.207L2.4 14a8.216 8.216 0 0 1 0-11.6 8.173 8.173 0 0 1 11.573 0l1.614 1.617L17.2 2.4a8.175 8.175 0 0 1 11.575 0 8.226 8.226 0 0 1 .711 10.78.707.707 0 0 1-1.123-.86 6.811 6.811 0 0 0-.592-8.92 6.759 6.759 0 0 0-9.572 0l-2.114 2.121a.728.728 0 0 1-1 0L12.968 3.4a6.757 6.757 0 0 0-9.57 0A6.8 6.8 0 0 0 3.4 13l9.151 9.172a.708.708 0 0 1-.5 1.208z" transform="translate(-942.25 -1773.874) translate(943 1774.624) translate(-.001)"/>
        </g>
    </g>
</svg>
