<svg xmlns="http://www.w3.org/2000/svg" width="80" height="82.536" viewBox="0 0 80 82.536">
    <defs>
        <style>
            .cls-1{fill:#fbb316}
        </style>
    </defs>
    <g id="idea" transform="translate(-3.518)">
        <path id="Path_7873" d="M76.616 51.743A21.377 21.377 0 0 0 55.264 73.1a21.084 21.084 0 0 0 4.567 13.164c.59.751 1.209 1.469 1.865 2.23l.036.042c2.007 2.328 4.081 4.736 4.856 7.572a13.249 13.249 0 0 1 .19 2.855v1.631a2.7 2.7 0 0 0 2.7 2.7h14.156a2.7 2.7 0 0 0 2.7-2.7v-1.65a11.51 11.51 0 0 1 .187-2.643c.779-2.817 3.078-5.522 5.125-7.929l.088-.1c.591-.694 1.149-1.35 1.657-2A21.083 21.083 0 0 0 97.967 73.1a21.376 21.376 0 0 0-21.351-21.357zm12.53 31.181c-.445.566-.97 1.183-1.526 1.835l-.109.128c-2.391 2.812-5.1 6-6.2 9.971a12.167 12.167 0 0 0-.372 3.028h-8.76a12.832 12.832 0 0 0-.373-3.2c-1.1-4.023-3.8-7.163-5.979-9.686l-.036-.043c-.614-.712-1.195-1.386-1.71-2.042A15.732 15.732 0 0 1 60.67 73.1a15.945 15.945 0 1 1 31.891 0 15.731 15.731 0 0 1-3.414 9.824z" class="cls-1" transform="translate(-33.097 -33.095)"/>
        <path id="Path_7874" d="M104.069 196.91H89.916a2.7 2.7 0 1 0 0 5.406h14.153a2.7 2.7 0 1 0 0-5.406z" class="cls-1" transform="translate(-53.532 -125.946)"/>
        <path id="Path_7875" d="M106.81 214.018h-7.076a2.7 2.7 0 1 0 0 5.406h7.076a2.7 2.7 0 1 0 0-5.406z" class="cls-1" transform="translate(-59.812 -136.888)"/>
        <path id="Path_7876" d="M196.654 103.491h-9.324a2.7 2.7 0 0 0 0 5.406h9.324a2.7 2.7 0 0 0 0-5.406z" class="cls-1" transform="translate(-115.839 -66.194)"/>
        <path id="Path_7877" d="M18.249 106.194a2.7 2.7 0 0 0-2.7-2.7H6.221a2.7 2.7 0 1 0 0 5.406h9.325a2.7 2.7 0 0 0 2.703-2.706z" class="cls-1" transform="translate(0 -66.194)"/>
        <path id="Path_7878" d="M109.713 14.733a2.7 2.7 0 0 0 2.7-2.7V2.7a2.7 2.7 0 0 0-5.406 0v9.33a2.7 2.7 0 0 0 2.706 2.703z" class="cls-1" transform="translate(-66.195)"/>
        <path id="Path_7879" d="M166.5 159.164a2.7 2.7 0 0 0-3.823 3.822l6.594 6.6a2.7 2.7 0 1 0 3.823-3.822z" class="cls-1" transform="translate(-101.296 -101.296)"/>
        <path id="Path_7880" d="M41.215 41.518a2.7 2.7 0 0 0 3.823-3.818l-6.591-6.6a2.7 2.7 0 1 0-3.823 3.822z" class="cls-1" transform="translate(-19.389 -19.387)"/>
        <path id="Path_7881" d="M41.217 159.164l-6.594 6.6a2.7 2.7 0 0 0 3.823 3.822l6.594-6.6a2.7 2.7 0 0 0-3.823-3.822z" class="cls-1" transform="translate(-19.389 -101.296)"/>
        <path id="Path_7882" d="M164.6 42.309a2.7 2.7 0 0 0 1.912-.792l6.592-6.593a2.7 2.7 0 0 0-3.823-3.822l-6.596 6.598a2.7 2.7 0 0 0 1.911 4.614z" class="cls-1" transform="translate(-101.299 -19.387)"/>
    </g>
</svg>
