<svg xmlns="http://www.w3.org/2000/svg" width="34" height="34.077" viewBox="0 0 34 34.077">
    <path fill="#fbb316" d="M29.272 4.991A17 17 0 0 0 .25 17.038 17 17 0 1 0 29.272 4.991zM6.642 6.4a14.975 14.975 0 0 1 20.5-.67l-4.5 4.5A16.262 16.262 0 0 0 3.8 16.434a1 1 0 0 0 0 1.124 16.284 16.284 0 0 0 6.135 5.381L5.948 26.93A15.07 15.07 0 0 1 6.642 6.4zM22.81 17a5.557 5.557 0 0 1-8.7 4.59l1.443-1.443A3.572 3.572 0 0 0 20.4 15.3l1.443-1.443A5.528 5.528 0 0 1 22.81 17zm-11.12 0a5.556 5.556 0 0 1 8.745-4.554L19 13.88a3.571 3.571 0 0 0-4.862 4.862L12.7 20.181A5.528 5.528 0 0 1 11.69 17zm7.137 0a1.578 1.578 0 0 1-1.576 1.577h-.118l1.689-1.689c.002.029.004.068.004.112zm-3.153 0a1.573 1.573 0 0 1 1.771-1.564l-1.759 1.759a1.622 1.622 0 0 1-.013-.195zM11 21.234A14.276 14.276 0 0 1 5.856 17 14.276 14.276 0 0 1 11 12.758a7.544 7.544 0 0 0 0 8.476zm12.5-8.476A14.281 14.281 0 0 1 28.644 17a14.281 14.281 0 0 1-5.14 4.238 7.543 7.543 0 0 0 0-8.476zm4.354 14.917a14.975 14.975 0 0 1-20.5.67l4.566-4.567a16.263 16.263 0 0 0 18.78-6.22 1 1 0 0 0 0-1.124 16.284 16.284 0 0 0-6.079-5.353l3.934-3.934a15.07 15.07 0 0 1-.694 20.529zm0 0" transform="translate(-.25)"/>
</svg>
