<svg xmlns="http://www.w3.org/2000/svg" width="50" height="61.92" viewBox="0 0 50 61.92">
    <path fill="#1a1a1a" d="M6.459 54.081c-5.277-7.682-9.3-21.723-3.887-31.2a15 15 0 0 1 12.7-7.762c3.967-.073 7.714 2.694 10.137 2.694s6.974-3.323 11.756-2.835a14.3 14.3 0 0 1 11.223 6.132c-.285.189-6.7 3.952-6.626 11.792A13.646 13.646 0 0 0 50 45.424a34.169 34.169 0 0 1-4.252 8.808c-2.562 3.775-5.212 7.527-9.4 7.605-4.118.078-5.438-2.457-10.137-2.457s-6.174 2.379-10.062 2.536h-.211c-3.931.004-6.938-4.143-9.479-7.835zm18.462-39.81c-.469-3.553 1.269-7.259 3.26-9.581A13.748 13.748 0 0 1 37.225 0a13.728 13.728 0 0 1-3.2 9.89 11.609 11.609 0 0 1-8.482 4.41q-.311 0-.622-.029z"/>
</svg>
