<svg xmlns="http://www.w3.org/2000/svg" xmlns:xlink="http://www.w3.org/1999/xlink" width="55" height="55" viewBox="0 0 55 55">
    <defs>
        <path id="prefix__a" d="M0 0.081L3.265 0.081 3.265 7.817 0 7.817z"/>
    </defs>
    <g fill="none" fill-rule="evenodd">
        <path fill="#000" d="M46.893 52.506H6.984V50.01c0-1.375 1.118-2.494 2.494-2.494H44.4c1.376 0 2.494 1.12 2.494 2.494v2.495zm-34.92-24.944c0-8.252 6.713-14.966 14.966-14.966s14.966 6.714 14.966 14.966v17.46H11.973v-17.46zm32.426 17.46v-17.46c0-9.627-7.834-17.46-17.46-17.46-9.627 0-17.46 7.833-17.46 17.46v17.46c-2.75 0-4.99 2.238-4.99 4.99v3.74c0 .69.559 1.248 1.248 1.248h42.404c.689 0 1.247-.558 1.247-1.247V50.01c0-2.751-2.239-4.988-4.989-4.988z"/>
        <g transform="translate(25.816)">
            <mask id="prefix__b" fill="#fff">
                <use xlink:href="#prefix__a"/>
            </mask>
            <path fill="#000" d="M1.633 7.817c.902 0 1.632-.577 1.632-1.29V1.37c0-.713-.73-1.29-1.632-1.29C.73.08 0 .657 0 1.37v5.157c0 .713.73 1.29 1.633 1.29" mask="url(#prefix__b)"/>
        </g>
        <path fill="#000" d="M39.51 8.98c.344 0 .689-.132.952-.395l4.041-4.04c.526-.526.526-1.38 0-1.905-.526-.527-1.378-.527-1.903 0l-4.042 4.04c-.526.525-.526 1.379 0 1.905.262.263.607.395.952.395M14.536 8.585c.264.263.608.395.953.395s.69-.132.953-.395c.526-.525.526-1.379 0-1.905l-4.04-4.04c-.526-.527-1.379-.527-1.905 0-.527.524-.527 1.378 0 1.904l4.04 4.041zM54.862 15.211c-.325-.554-1.108-.776-1.757-.502l-5.238 2.246c-.647.277-.908.951-.586 1.506.23.394.693.62 1.171.62.197 0 .397-.038.586-.118l5.238-2.245c.647-.278.908-.952.586-1.507M6.548 19.082c.478 0 .94-.227 1.171-.621.322-.555.061-1.23-.586-1.507l-5.238-2.246c-.647-.272-1.432-.052-1.757.503-.322.554-.061 1.229.586 1.506l5.238 2.246c.19.08.389.119.586.119M27.857 14.592c-7.314 0-13.265 5.951-13.265 13.265 0 .733.593 1.327 1.326 1.327.734 0 1.327-.594 1.327-1.327 0-5.851 4.76-10.612 10.612-10.612.733 0 1.327-.593 1.327-1.327 0-.733-.594-1.326-1.327-1.326"/>
    </g>
</svg>
