<svg xmlns="http://www.w3.org/2000/svg" width="41.326" height="47.753">
    <defs>
        <style>.cls-2{fill:#fff}</style>
    </defs>
    <g id="Group_1215" transform="translate(-77.432 -489.845)">
        <path id="Fill_1_Copy_10" fill="none" stroke="#fff" stroke-miterlimit="10" stroke-width="2"
              d="M78.432 502.361v22.721l19.663 11.361 19.663-11.361v-22.721L98.095 491z" opacity=".2"/>
        <g id="linkedin_2_" transform="translate(91 505.721)">
            <path id="Path_7637"
                  d="M17.534 17.156v-5.135c0-2.512-.541-4.447-3.477-4.447a3.048 3.048 0 00-2.746 1.509h-.041V7.809H8.489v9.347h2.9v-4.629c0-1.219.231-2.4 1.74-2.4 1.487 0 1.509 1.391 1.509 2.475v4.551z"
                  class="cls-2" transform="translate(-3.537 -3.156)"/>
            <path id="Path_7638" d="M.4 7.977h2.9v9.347H.4z" class="cls-2" transform="translate(-.165 -3.324)"/>
            <path id="Path_7639" d="M1.681 0a1.689 1.689 0 101.681 1.681A1.682 1.682 0 001.681 0z" class="cls-2"/>
        </g>
    </g>
</svg>