<svg xmlns="http://www.w3.org/2000/svg" width="50" height="50" viewBox="0 0 50 50">
    <path fill="#5f5f5f" d="M37.413 26.471h4.016a4.412 4.412 0 1 0 0-2.941h-4.016a12.441 12.441 0 0 0-2.6-6.263l3.794-3.794a6.491 6.491 0 1 0-2.08-2.08l-3.794 3.794a12.441 12.441 0 0 0-6.263-2.6V8.571a4.412 4.412 0 1 0-2.941 0v4.016a12.44 12.44 0 0 0-6.263 2.6l-3.794-3.794a6.491 6.491 0 1 0-2.08 2.08l3.794 3.794a12.442 12.442 0 0 0-2.6 6.263H8.571a4.412 4.412 0 1 0 0 2.941h4.016a12.441 12.441 0 0 0 2.6 6.263l-3.794 3.794a6.491 6.491 0 1 0 2.08 2.08l3.794-3.794a12.441 12.441 0 0 0 6.263 2.6v4.016a4.412 4.412 0 1 0 2.941 0v-4.017a12.44 12.44 0 0 0 6.263-2.6l3.794 3.794a6.491 6.491 0 1 0 2.08-2.08l-3.794-3.794a12.441 12.441 0 0 0 2.599-6.262zM22.794 25A2.206 2.206 0 1 1 25 27.206 2.208 2.208 0 0 1 22.794 25zM25 30.147a4.419 4.419 0 0 1 4.292 3.392 9.54 9.54 0 0 1-8.583 0A4.419 4.419 0 0 1 25 30.147zm20.588-6.618A1.471 1.471 0 1 1 44.118 25a1.472 1.472 0 0 1 1.47-1.471zM39.527 5.452a3.55 3.55 0 1 1 0 5.021 3.54 3.54 0 0 1 0-5.021zM25 2.941a1.471 1.471 0 1 1-1.471 1.471A1.472 1.472 0 0 1 25 2.941zm0 12.5a9.554 9.554 0 0 1 6.785 16.285 7.4 7.4 0 0 0-2.872-3.388 5.147 5.147 0 1 0-7.826 0 7.4 7.4 0 0 0-2.872 3.388A9.554 9.554 0 0 1 25 15.441zM5.452 10.473a3.55 3.55 0 1 1 5.021 0 3.554 3.554 0 0 1-5.021 0zm-1.04 16A1.471 1.471 0 1 1 5.882 25a1.472 1.472 0 0 1-1.47 1.471zm6.061 18.078a3.55 3.55 0 1 1 0-5.021 3.554 3.554 0 0 1 0 5.018zM25 47.059a1.471 1.471 0 1 1 1.471-1.471A1.472 1.472 0 0 1 25 47.059zm19.548-7.531a3.55 3.55 0 1 1-5.021 0 3.554 3.554 0 0 1 5.021-.001z"/>
</svg>
