<svg xmlns="http://www.w3.org/2000/svg" width="50" height="53.18" viewBox="0 0 50 53.18">
    <defs>
        <style>
            .cls-1{fill:#5f5f5f}
        </style>
    </defs>
    <g id="patent" transform="translate(-15.251)">
        <path id="Path_7847" d="M58.994 4.692V0H24.583v6.369c-12.448 2.08-12.439 19.6 0 21.673v18.882h4.692v6.256h35.976V4.692zM18.327 17.205a7.83 7.83 0 0 1 7.821-7.821c10.375.43 10.372 15.213 0 15.641a7.83 7.83 0 0 1-7.821-7.82zm9.385 10.837c12.448-2.08 12.439-19.6 0-21.673V3.128h28.154V43.8H27.711zm34.411 22.01H32.4v-3.128h26.59V7.821h3.128z" class="cls-1"/>
        <path id="Path_7848" d="M82.779 128.03l-2.212-2.212a1.564 1.564 0 1 1 0-2.212l2.212-2.212a4.692 4.692 0 1 0 0 6.636z" class="cls-1" transform="translate(-53.314 -107.506)"/>
        <path id="Path_7849" d="M269.75 75h10.95v3.128h-10.95z" class="cls-1" transform="translate(-227.961 -67.179)"/>
        <path id="Path_7850" d="M269.75 135h10.95v3.128h-10.95z" class="cls-1" transform="translate(-227.961 -120.923)"/>
        <path id="Path_7851" d="M269.75 195h10.95v3.128h-10.95z" class="cls-1" transform="translate(-227.961 -174.666)"/>
        <path id="Path_7852" d="M224.75 255h15.641v3.128H224.75z" class="cls-1" transform="translate(-187.654 -228.41)"/>
        <path id="Path_7853" d="M164.75 315h21.9v3.128h-21.9z" class="cls-1" transform="translate(-133.91 -282.153)"/>
    </g>
</svg>
