<svg xmlns="http://www.w3.org/2000/svg" width="27.07" height="42" viewBox="0 0 27.07 42">
    <defs>
        <style>
            .cls-1{fill:#fbb316}
        </style>
    </defs>
    <g id="compass" transform="translate(-91.001)">
        <circle id="Ellipse_3117" cx="1.23" cy="1.23" r="1.23" class="cls-1" transform="translate(103.306 12.387)"/>
        <path id="Path_7663" d="M118.071 30.844a1.23 1.23 0 0 0-1.23-1.23h-3.233l-2.923-16.125a6.146 6.146 0 0 0-2.458-4.79V1.23A1.23 1.23 0 0 0 107 0h-4.922a1.23 1.23 0 0 0-1.23 1.23V8.7a6.146 6.146 0 0 0-2.458 4.79l-2.926 16.123h-3.232a1.23 1.23 0 1 0 0 2.461h2.787l-1.537 8.476a1.23 1.23 0 0 0 2.336.718l4.071-9.193h3.417V33.3a1.23 1.23 0 1 0 2.461 0v-1.23h3.417l4.071 9.193a1.23 1.23 0 0 0 2.336-.718l-1.536-8.476h2.787a1.231 1.231 0 0 0 1.229-1.225zM103.306 2.461h2.461v5.128a6.177 6.177 0 0 0-2.461 0zm1.23 7.465a3.691 3.691 0 1 1-3.691 3.691 3.7 3.7 0 0 1 3.691-3.691zm-4.442 7.942a6.159 6.159 0 0 0 2.667 1.64c-.192.431-5.015 11.327-5.019 11.335zm5.672 11.746v-1.23a1.23 1.23 0 1 0-2.461 0v1.23h-2.328l3.558-8.035 3.558 8.035zm.544-10.106a6.16 6.16 0 0 0 2.667-1.64l2.352 12.975-5.018-11.336z" class="cls-1"/>
    </g>
</svg>
