<svg xmlns="http://www.w3.org/2000/svg" width="52" height="52" viewBox="0 0 52 52">
    <g fill="#221E1F" fill-rule="evenodd">
        <path d="M25.95 2.688c-12.877 0-23.355 10.447-23.355 23.287 0 12.839 10.478 23.286 23.355 23.286s23.354-10.447 23.354-23.286c0-12.84-10.477-23.287-23.354-23.287m0 49.16C11.64 51.848 0 40.241 0 25.975 0 11.708 11.641.1 25.95.1c14.308 0 25.949 11.607 25.949 25.874 0 14.266-11.641 25.873-25.95 25.873"/>
        <path d="M18.077 25.5h4.868c.39 0 .757.18.999.49.242.309.332.715.245 1.102l-2.677 11.805L32.923 25.5h-4.868c-.39 0-.757-.181-1-.49-.241-.31-.332-.715-.245-1.103l2.678-11.804L18.077 25.5zM19.11 45c-.196 0-.395-.045-.578-.14-.523-.27-.797-.87-.666-1.452L21.34 28.1h-6.06c-.502 0-.955-.298-1.163-.76-.208-.462-.132-1.006.196-1.39l16.61-19.5c.385-.453 1.023-.58 1.545-.309.524.27.8.87.666 1.452L29.66 22.9h6.06c.502 0 .955.297 1.163.76.208.461.132 1.005-.196 1.39l-16.61 19.5c-.25.294-.605.45-.967.45z"/>
    </g>
</svg>
