<svg xmlns="http://www.w3.org/2000/svg" width="32" height="41.454" viewBox="0 0 32 41.454">
    <defs>
        <style>
            .cls-1{fill:#fbb316}
        </style>
    </defs>
    <g id="badge" transform="translate(-.001)">
        <path id="Path_7640" d="M31.933 18.987a4.512 4.512 0 0 0-.414-2.809 4.5 4.5 0 0 0-.936-5.308 4.5 4.5 0 0 0-2.695-4.67 4.5 4.5 0 0 0-4.128-3.461A4.5 4.5 0 0 0 18.7.9a4.5 4.5 0 0 0-5.389 0 4.5 4.5 0 0 0-5.069 1.839A4.5 4.5 0 0 0 4.113 6.2a4.5 4.5 0 0 0-2.694 4.67 4.5 4.5 0 0 0-.936 5.308 4.5 4.5 0 0 0 .936 5.308 4.5 4.5 0 0 0 2.695 4.667 4.518 4.518 0 0 0 .843 1.75L1.4 35.348a1.214 1.214 0 0 0 1.364 1.708l5.359-1.215 2.421 4.933a1.214 1.214 0 0 0 1.09.679h.006a1.214 1.214 0 0 0 1.09-.691L16 33.916l3.272 6.847a1.214 1.214 0 0 0 1.089.691h.007a1.215 1.215 0 0 0 1.09-.679l2.421-4.933 5.359 1.215a1.214 1.214 0 0 0 1.362-1.709L27.046 27.9a4.518 4.518 0 0 0 .843-1.75 4.5 4.5 0 0 0 2.695-4.667 4.515 4.515 0 0 0 1.349-2.496zm-2.8-2.062a2.077 2.077 0 0 1-.536 3.041 1.214 1.214 0 0 0-.511 1.4 2.076 2.076 0 0 1-1.544 2.674 1.215 1.215 0 0 0-.961 1.145 2.077 2.077 0 0 1-2.366 1.985 1.214 1.214 0 0 0-1.294.747 2.077 2.077 0 0 1-2.9 1.056 1.214 1.214 0 0 0-1.472.26 2.077 2.077 0 0 1-3.088 0 1.214 1.214 0 0 0-1.472-.26 2.077 2.077 0 0 1-2.9-1.056 1.214 1.214 0 0 0-1.294-.747 2.077 2.077 0 0 1-2.372-1.98 1.214 1.214 0 0 0-.961-1.145 2.076 2.076 0 0 1-1.544-2.674 1.214 1.214 0 0 0-.511-1.4 2.077 2.077 0 0 1-.536-3.041 1.215 1.215 0 0 0 0-1.495 2.077 2.077 0 0 1 .536-3.041 1.214 1.214 0 0 0 .511-1.4A2.076 2.076 0 0 1 5.462 8.31a1.215 1.215 0 0 0 .961-1.145A2.077 2.077 0 0 1 8.788 5.18a1.214 1.214 0 0 0 1.294-.748 2.077 2.077 0 0 1 2.9-1.056 1.215 1.215 0 0 0 1.472-.26 2.077 2.077 0 0 1 3.088 0 1.215 1.215 0 0 0 1.472.26 2.077 2.077 0 0 1 2.9 1.056 1.215 1.215 0 0 0 1.295.747 2.076 2.076 0 0 1 2.365 1.985 1.215 1.215 0 0 0 .966 1.146 2.077 2.077 0 0 1 1.544 2.674 1.214 1.214 0 0 0 .511 1.4 2.077 2.077 0 0 1 .536 3.041 1.214 1.214 0 0 0 0 1.5zM23.481 33.26a1.215 1.215 0 0 0-1.359.649l-1.739 3.544-2.61-5.462a4.517 4.517 0 0 0 .923-.531 4.5 4.5 0 0 0 5.064-1.843 4.524 4.524 0 0 0 1.286-.266l2.285 4.782zm-13.6.649a1.215 1.215 0 0 0-1.361-.649l-3.85.873 2.286-4.783a4.527 4.527 0 0 0 1.286.266 4.5 4.5 0 0 0 5.064 1.843 4.516 4.516 0 0 0 .923.531l-2.61 5.462zm0 0" class="cls-1"/>
        <path id="Path_7641" d="M76.829 68.383A10.641 10.641 0 1 0 87.47 79.024a10.653 10.653 0 0 0-10.641-10.641zm0 18.853a8.212 8.212 0 1 1 8.212-8.212 8.222 8.222 0 0 1-8.212 8.212zm0 0" class="cls-1" transform="translate(-60.828 -62.846)"/>
        <path id="Path_7642" d="M133.5 159.647a1.214 1.214 0 0 0 1.717 0l5.263-5.263a1.214 1.214 0 1 0-1.717-1.718l-4.4 4.4-2.42-2.42a1.214 1.214 0 0 0-1.717 1.717zm0 0" class="cls-1" transform="translate(-119.352 -139.98)"/>
    </g>
</svg>
