<svg xmlns="http://www.w3.org/2000/svg" xmlns:xlink="http://www.w3.org/1999/xlink" width="64" height="55" viewBox="0 0 64 55">
    <defs>
        <path id="prefix__a" d="M0 0L3 0 3 3 0 3z"/>
        <path id="prefix__c" d="M0 0L64 0 64 55 0 55z"/>
    </defs>
    <g fill="none" fill-rule="evenodd">
        <g transform="translate(15)">
            <mask id="prefix__b" fill="#fff">
                <use xlink:href="#prefix__a"/>
            </mask>
            <path fill="#000" d="M3 1.5C3 2.328 2.328 3 1.5 3S0 2.328 0 1.5.672 0 1.5 0 3 .672 3 1.5" mask="url(#prefix__b)"/>
        </g>
        <mask id="prefix__d" fill="#fff">
            <use xlink:href="#prefix__c"/>
        </mask>
        <path fill="#000" d="M64 17.69C64 8.114 56.977 0 47.375 0c-7.1 0-12.31 4.76-15.372 11.072-1.466-3.033-4.388-7.612-9.364-9.819-.63-.28-1.37.005-1.65.636-.279.632.006 1.37.636 1.65 6.583 2.92 9.154 11.117 9.179 11.198.159.527.644.887 1.195.887H32c.55 0 1.035-.36 1.196-.885C34.678 9.855 39.499 2.5 47.375 2.5c7.92 0 14.125 6.672 14.125 15.19 0 4.193-1.565 8.01-5.06 12.31l-2.197 2.498C48.937 38.14 41.089 44.186 32 52.091 22.898 44.176 15.065 38.143 9.757 32.5L7.561 30C4.065 25.7 2.5 21.883 2.5 17.69c0-6.443 3.557-12.029 9.062-14.23.641-.256.953-.983.697-1.625-.256-.64-.984-.953-1.625-.696C4.31 3.667 0 10.157 0 17.69 0 21.899 1.412 25.86 4.41 30l1.983 2.5c5.552 6.458 14.397 13.102 24.784 22.19.236.207.529.31.823.31.294 0 .587-.103.823-.31 10.375-9.077 19.235-15.735 24.784-22.19L59.59 30C62.588 25.86 64 21.899 64 17.69" mask="url(#prefix__d)"/>
        <path fill="#000" d="M50.435 28.74c-1.252 0-2.271-1.005-2.271-2.24 0-1.235 1.019-2.24 2.271-2.24 1.253 0 2.272 1.005 2.272 2.24 0 1.235-1.019 2.24-2.272 2.24m0-6.74c-2.102 0-3.875 1.408-4.403 3.318h-3.886c-.633 0-1.146.506-1.146 1.13 0 .624.513 1.13 1.146 1.13h3.858C46.496 29.54 48.295 31 50.435 31 52.952 31 55 28.981 55 26.5S52.952 22 50.435 22M13.496 28.453c-1.234 0-2.238-1.011-2.238-2.253 0-1.243 1.004-2.254 2.238-2.254s2.238 1.011 2.238 2.254c0 1.242-1.004 2.253-2.238 2.253m25.375-3.527H36.8c-.5 0-.94.332-1.082.815l-2.595 8.842-4.503-17.728c-.12-.472-.526-.815-1.008-.852-.482-.037-.935.24-1.125.689l-3.54 8.37h-5.1c-.502-1.947-2.263-3.39-4.352-3.39C11.016 21.673 9 23.704 9 26.2c0 2.496 2.017 4.526 4.496 4.526 2.09 0 3.85-1.442 4.353-3.39h5.845c.453 0 .862-.272 1.04-.691l2.525-5.973 4.693 18.473c.125.495.565.845 1.073.855h.02c.5 0 .941-.33 1.083-.815L37.645 27.2h1.226c.624 0 1.129-.509 1.129-1.137s-.505-1.137-1.13-1.137"/>
    </g>
</svg>
