<svg xmlns="http://www.w3.org/2000/svg" width="43.009" height="41.541" viewBox="0 0 43.009 41.541">
    <defs>
        <style>
            .cls-1,.cls-2{fill:#fbb316;stroke:#fbb316}.cls-1{stroke-width:.4px}
        </style>
    </defs>
    <g id="Group_1266" transform="translate(-1206 -2590.078)">
        <g id="badge" transform="translate(1209.082 2603.397)">
            <path id="Path_7641" d="M72.963 68.383a6.776 6.776 0 1 0 6.776 6.776 6.783 6.783 0 0 0-6.776-6.776zm0 12a5.229 5.229 0 1 1 5.229-5.229 5.235 5.235 0 0 1-5.229 5.233zm0 0" class="cls-1" transform="translate(-66.188 -68.383)"/>
            <path id="Path_7642" d="M132.182 156.983a.773.773 0 0 0 1.093 0l3.351-3.351a.773.773 0 0 0-1.093-1.094l-2.8 2.8-1.541-1.541a.773.773 0 0 0-1.093 1.094zm0 0" class="cls-1" transform="translate(-126.584 -147.985)"/>
        </g>
        <g id="Group_1265" transform="translate(1206.5 2614.529)">
            <g id="Group_1259" transform="translate(7.346)">
                <g id="Group_1257">
                    <path id="Path_7944" d="M304.236 952.6H293.13a.679.679 0 0 1 0-1.358h11.106a13.1 13.1 0 0 0 6.915-1.972l13.912-8.64a1.533 1.533 0 0 0 .668-1 1.056 1.056 0 0 0-.452-1.045c-.742-.516-2.114-.31-3.671.553-.113.065-1.089.681-2.7 1.7-1.531.965-3.845 2.423-6.916 4.354a.679.679 0 0 1-.723-1.15c3.07-1.93 5.384-3.388 6.915-4.353 2.063-1.3 2.663-1.678 2.766-1.735a7.366 7.366 0 0 1 2.953-.991 3.292 3.292 0 0 1 2.155.511 2.419 2.419 0 0 1 1.019 2.364 2.871 2.871 0 0 1-1.228 1.908l-.02.014-.023.015-13.936 8.655a14.453 14.453 0 0 1-7.634 2.17z" class="cls-2" transform="translate(-292.448 -936.941)"/>
                </g>
                <g id="Group_1258" transform="translate(0 4.209)">
                    <path id="Path_7945" d="M309.334 1091.717h-6.623a.679.679 0 1 1 0-1.358h6.623a1.65 1.65 0 0 0 1.651-1.574 1.623 1.623 0 0 0-.455-1.206 1.685 1.685 0 0 0-1.23-.526h-8.2c-1.169-.011-4.728-.043-6.873 2.159a6.113 6.113 0 0 0-.56.663.679.679 0 1 1-1.1-.8 7.49 7.49 0 0 1 .684-.811 8.374 8.374 0 0 1 4.3-2.251 15.714 15.714 0 0 1 3.558-.318h8.191a3.072 3.072 0 0 1 2.212.947 2.97 2.97 0 0 1 .829 2.207 3.006 3.006 0 0 1-3.007 2.868z" class="cls-2" transform="translate(-292.445 -1085.693)"/>
                </g>
            </g>
            <g id="Group_1260" transform="translate(0 5.35)">
                <path id="Path_7946" d="M40.838 1137.273H33.5a.682.682 0 0 1-.681-.681v-9.877a.682.682 0 0 1 .681-.681h7.342a.682.682 0 0 1 .681.681v9.877a.682.682 0 0 1-.685.681zm-6.665-1.358h5.988v-8.523h-5.988z" class="cls-2" transform="translate(-32.815 -1126.033)"/>
            </g>
        </g>
        <g id="Feather" transform="rotate(41 -2845.835 2950.52)">
            <path id="Path_7955" d="M10.512 15.668a54.5 54.5 0 0 0 1.043-5.456 1.654 1.654 0 0 0-1.307-1.828A11.121 11.121 0 0 0 6.529.175C6.008-.27 5.535.217 5.069.7a13.387 13.387 0 0 0-3.858 9.55v1.571A1.3 1.3 0 0 0 .037 13.43a18.169 18.169 0 0 0 1.793 4.254 1.147 1.147 0 0 0-.883 1.55A16.424 16.424 0 0 0 4.6 24.891a2.016 2.016 0 0 0 .785.487l.029 3.853a.7.7 0 0 0 1.39 0l-.029-3.853a2.037 2.037 0 0 0 .785-.493 16.5 16.5 0 0 0 4.289-7.646 1.244 1.244 0 0 0-1.335-1.571zm-3.74 8.021V11.824a.7.7 0 1 0-1.39 0v11.858A14.944 14.944 0 0 1 2.393 19.1a1.119 1.119 0 0 0 .876-.556c.66-1.126-.966-1.911-1.856-5.338A1.293 1.293 0 0 0 2.6 11.915v-1.662a12.018 12.018 0 0 1 3.475-8.6 9.94 9.94 0 0 1 2.78 7.4.7.7 0 0 0 .7.7c.341 0 .452 0 .556.09.257.292-.917 5.387-1 5.762a1.23 1.23 0 0 0 1.324 1.495 15.173 15.173 0 0 1-3.663 6.589z" class="cls-2"/>
        </g>
    </g>
</svg>
