<svg xmlns="http://www.w3.org/2000/svg" width="60" height="60" viewBox="0 0 60 60">
    <g fill="#221E1F" fill-rule="evenodd">
        <path d="M12 26.182L14.182 26.182 14.182 24 12 24zM54 22c0 .552-.448 1-1 1H37c-.552 0-1-.448-1-1V7c0-.552.448-1 1-1h16c.552 0 1 .448 1 1v15zM53 4H37c-1.657 0-3 1.343-3 3v15c0 1.657 1.343 3 3 3h16c1.657 0 3-1.343 3-3V7c0-1.657-1.343-3-3-3zM45 31c-.552 0-1-.448-1-1s.448-1 1-1 1 .448 1 1-.448 1-1 1m0-4c-1.657 0-3 1.343-3 3s1.343 3 3 3 3-1.343 3-3-1.343-3-3-3M12 22L14 22 14 20 12 20zM12 18L14 18 14 16 12 16zM12 14L14 14 14 12 12 12zM12 10L14 10 14 8 12 8zM12 6L14 6 14 4 12 4z"/>
        <path d="M11 28c-.552 0-1-.448-1-1V3c0-.552.448-1 1-1h14c.552 0 1 .448 1 1v24c0 .552-.448 1-1 1H11zm25 27h2v-2h-2v2zm13-5c5.3 0 9 2.108 9 4s-3.7 4-9 4-9-2.108-9-4 3.7-4 9-4zM8.184 28H3c-.552 0-1-.448-1-1V3c0-.552.448-1 1-1h5.184c-.118.32-.18.658-.184 1v24c.003.341.066.68.184 1zM37 35c-2.76-.003-4.997-2.24-5-5V7c.003-2.76 2.24-4.997 5-5h16c2.76.003 4.997 2.24 5 5v23c-.003 2.76-2.24 4.997-5 5H37zm-20 8h26c1.657 0 3-1.343 3-3v-3h7c3.864-.004 6.996-3.136 7-7V7c-.004-3.864-3.136-6.996-7-7H37c-3.864.004-6.996 3.136-7 7v23c.004 3.864 3.136 6.996 7 7h7v3c0 .552-.448 1-1 1H17c-.552 0-1-.448-1-1V30h9c1.657 0 3-1.343 3-3V3c0-1.657-1.343-3-3-3H3C1.343 0 0 1.343 0 3v24c0 1.657 1.343 3 3 3h7v10c0 .552-.448 1-1 1H3c-1.657 0-3 1.343-3 3s1.343 3 3 3h21c.552 0 1 .448 1 1s-.448 1-1 1H3c-1.657 0-3 1.343-3 3s1.343 3 3 3h31v2h5.439c1.876 1.8 5.413 3 9.561 3 6.168 0 11-2.636 11-6s-4.832-6-11-6c-4.149 0-7.685 1.2-9.561 3H34v2H3c-.552 0-1-.448-1-1s.448-1 1-1h21c1.657 0 3-1.343 3-3s-1.343-3-3-3H3c-.552 0-1-.448-1-1s.448-1 1-1h6c1.657 0 3-1.343 3-3V30h2v10c0 1.657 1.343 3 3 3z"/>
        <path d="M48.793 11.793L45 15.586l-3.793-3.793c-.438-.438-.438-1.148 0-1.586.438-.438 1.148-.438 1.586 0L45 12.414l2.207-2.207c.438-.438 1.148-.438 1.586 0 .438.438.438 1.148 0 1.586M48 7.879c-.828 0-1.622.329-2.207.914L45 9.586l-.793-.793c-1.219-1.219-3.195-1.219-4.414 0-1.219 1.219-1.219 3.195 0 4.414L45 18.414l5.207-5.207c.587-.584.916-1.379.914-2.207 0-1.724-1.397-3.121-3.12-3.121M38 21L42 21 42 19 38 19zM48 21L52 21 52 19 48 19z"/>
    </g>
</svg>
