<svg xmlns="http://www.w3.org/2000/svg" width="45" height="45" viewBox="0 0 45 45">
    <defs>
        <style>
            .cls-1{fill:#fbb316}
        </style>
    </defs>
    <g id="XMLID_1319_">
        <g id="XMLID_2745_">
            <g id="XMLID_2822_" transform="translate(7.7 7.654)">
                <g id="XMLID_3015_" transform="translate(17.662)">
                    <g id="XMLID_3016_">
                        <path id="XMLID_485_" d="M292.727 99.119a.876.876 0 0 1-.621-.257l-3.287-3.287a.879.879 0 0 1 0-1.243l2.741-2.741-1.26-1.259a.879.879 0 0 1 .449-1.483l8.7-1.743a.879.879 0 0 1 1.034 1.034l-1.743 8.7a.879.879 0 0 1-1.483.449l-1.167-1.169-2.741 2.741a.876.876 0 0 1-.622.258zm-2.044-4.166L292.727 97l2.741-2.741a.879.879 0 0 1 1.243 0l.628.628 1.161-5.794-5.794 1.161.718.718a.879.879 0 0 1 0 1.243z" class="cls-1" transform="translate(-288.561 -87.089)"/>
                    </g>
                </g>
                <g id="XMLID_3012_">
                    <g id="XMLID_3013_">
                        <path id="XMLID_482_" d="M95.378 99.118a.876.876 0 0 1-.621-.257l-2.741-2.741-1.167 1.167a.879.879 0 0 1-1.483-.449l-1.743-8.7a.879.879 0 0 1 1.034-1.034l8.7 1.743a.879.879 0 0 1 .449 1.483l-1.258 1.258 2.741 2.741a.879.879 0 0 1 0 1.243L96 98.861a.875.875 0 0 1-.622.257zM92.015 94a.876.876 0 0 1 .621.257L95.378 97l2.044-2.044-2.741-2.741a.879.879 0 0 1 0-1.243l.718-.718-5.799-1.166 1.161 5.794.628-.628a.876.876 0 0 1 .626-.254z" class="cls-1" transform="translate(-87.605 -87.088)"/>
                    </g>
                </g>
                <g id="XMLID_3009_" transform="translate(17.662 17.662)">
                    <g id="XMLID_3010_">
                        <path id="XMLID_479_" d="M299.621 300.074a.872.872 0 0 1-.173-.017l-8.7-1.743a.879.879 0 0 1-.449-1.483l1.258-1.258-2.741-2.741a.879.879 0 0 1 0-1.243l3.287-3.287a.879.879 0 0 1 1.243 0l2.741 2.741 1.167-1.167a.879.879 0 0 1 1.483.449l1.743 8.7a.879.879 0 0 1-.862 1.052zm-6.915-3.161l5.794 1.161-1.161-5.794-.628.628a.879.879 0 0 1-1.243 0l-2.741-2.741-2.044 2.044 2.741 2.741a.879.879 0 0 1 0 1.243z" class="cls-1" transform="translate(-288.561 -288.044)"/>
                    </g>
                </g>
                <g id="XMLID_3006_" transform="translate(0 17.662)">
                    <g id="XMLID_3007_">
                        <path id="XMLID_476_" d="M88.484 300.074a.879.879 0 0 1-.862-1.052l1.743-8.7a.879.879 0 0 1 1.483-.449l1.167 1.167 2.741-2.741a.879.879 0 0 1 1.243 0l3.287 3.287a.879.879 0 0 1 0 1.243l-2.741 2.741 1.255 1.26a.879.879 0 0 1-.449 1.483l-8.7 1.743a.877.877 0 0 1-.167.018zm2.282-7.794l-1.161 5.794 5.794-1.161-.719-.718a.879.879 0 0 1 0-1.243l2.741-2.741-2.044-2.044-2.741 2.741a.879.879 0 0 1-1.243 0z" class="cls-1" transform="translate(-87.606 -288.044)"/>
                    </g>
                </g>
            </g>
            <g id="XMLID_2756_">
                <path id="XMLID_475_" d="M44.121 45a.878.878 0 0 1-.3-.053 62.193 62.193 0 0 0-42.639 0 .879.879 0 0 1-1.128-1.128 62.193 62.193 0 0 0 0-42.639A.879.879 0 0 1 1.181.054 62.022 62.022 0 0 0 18.6 3.7a.879.879 0 0 1-.11 1.754A63.819 63.819 0 0 1 2.31 2.309a63.962 63.962 0 0 1 0 40.382 63.962 63.962 0 0 1 40.382 0 63.962 63.962 0 0 1 0-40.382 63.8 63.8 0 0 1-16.184 3.143A.879.879 0 0 1 26.4 3.7 62.022 62.022 0 0 0 43.82.053a.879.879 0 0 1 1.127 1.127 62.194 62.194 0 0 0 0 42.639.879.879 0 0 1-.826 1.181z" class="cls-1"/>
            </g>
        </g>
        <g id="XMLID_1208_" transform="translate(21.622 3.82)">
            <path id="XMLID_474_" d="M246.88 45.219a.879.879 0 1 1 .621-.258.882.882 0 0 1-.621.258z" class="cls-1" transform="translate(-246.001 -43.461)"/>
        </g>
    </g>
</svg>
