<svg xmlns="http://www.w3.org/2000/svg" id="thin" width="50" height="39.453" viewBox="0 0 50 39.453">
    <defs>
        <style>
            .cls-1{fill:#fbb316}
        </style>
    </defs>
    <path id="Path_7801" d="M49.023 200.91h-4.3v-1.09a.977.977 0 0 0-1.953 0v1.089h-16.8v-1.089a.977.977 0 0 0-1.953 0v1.089H7.227v-1.089a.977.977 0 0 0-1.953 0v1.089H.977a.977.977 0 1 0 0 1.953h48.046a.977.977 0 0 0 0-1.953zm0 0" class="cls-1" transform="translate(0 -179.425)"/>
    <path id="Path_7802" d="M40.977 165.953h9.778v1.089a.977.977 0 0 0 1.953 0v-1.089H69.5v1.089a.977.977 0 0 0 1.953 0v-1.089h13.664a.977.977 0 0 0 0-1.953h-44.14a.977.977 0 0 0 0 1.953zm0 0" class="cls-1" transform="translate(-36.094 -147.984)"/>
    <path id="Path_7803" d="M.977 165.953a.977.977 0 1 0-.69-1.667.977.977 0 0 0 .69 1.667zm0 0" class="cls-1" transform="translate(0 -147.984)"/>
    <path id="Path_7804" d="M226.251 13a.976.976 0 0 0 1.381 0l2.168-2.168a.977.977 0 0 0-1.381-1.381l-.5.5V.977a.977.977 0 1 0-1.953 0v8.97l-.5-.5a.977.977 0 0 0-1.381 1.381zm0 0" class="cls-1" transform="translate(-201.942)"/>
    <path id="Path_7805" d="M227.632 267.618a.976.976 0 0 0-1.381 0l-2.168 2.168a.977.977 0 1 0 1.381 1.381l.5-.5v5.133a.977.977 0 0 0 1.953 0v-5.129l.5.5a.977.977 0 1 0 1.381-1.381zm0 0" class="cls-1" transform="translate(-201.942 -241.225)"/>
    <path id="Path_7806" d="M246.977 384a.977.977 0 1 0 .69.286.984.984 0 0 0-.69-.286zm0 0" class="cls-1" transform="translate(-221.977 -346.5)"/>
</svg>
