<svg xmlns="http://www.w3.org/2000/svg" width="50" height="38.746" viewBox="0 0 50 38.746">
    <path fill="#5f5f5f" d="M48.543 74.611H45.3c2.1-5.861-.333-13.019-5.793-15.69A12.092 12.092 0 0 0 25 61.639a12.092 12.092 0 0 0-14.5-2.718c-5.465 2.67-7.893 9.829-5.8 15.69H1.458a1.465 1.465 0 0 0 0 2.931h4.529a14.011 14.011 0 0 0 2.453 3.223c.444.445 14.237 14.519 14.356 14.642l.025.025a3.11 3.11 0 0 0 2.152.914h.055a3.109 3.109 0 0 0 2.152-.914l.03-.03c.115-.118 13.911-14.2 14.352-14.638a14.01 14.01 0 0 0 2.453-3.224h4.529a1.465 1.465 0 0 0 0-2.931zm-41.65-4.919a9.439 9.439 0 0 1 4.944-8.165 9.136 9.136 0 0 1 11.915 3.335 1.471 1.471 0 0 0 2.5 0 9.136 9.136 0 0 1 11.915-3.335 9.439 9.439 0 0 1 4.944 8.165 11.966 11.966 0 0 1-.944 4.919H31.851a1.466 1.466 0 0 0-1.109.507l-4.5 5.213-4.669-11.513a1.465 1.465 0 0 0-2.6-.233l-3.812 6.026H7.837a11.968 11.968 0 0 1-.944-4.919zm32.628 8.969c-.179.173-14.28 14.562-14.406 14.691l-.009.009a.185.185 0 0 1-.106.054.191.191 0 0 1-.11-.057c-.131-.134-14.231-14.524-14.411-14.7a9.718 9.718 0 0 1-.99-1.12h6.483a1.465 1.465 0 0 0 1.238-.682l2.718-4.3 4.493 11.091a1.465 1.465 0 0 0 2.467.408l5.633-6.519h7.99a9.722 9.722 0 0 1-.99 1.119z" transform="translate(0 -57.601)"/>
</svg>
