<svg xmlns="http://www.w3.org/2000/svg" width="50" height="36.214" viewBox="0 0 50 36.214">
    <g>
        <path d="M413.96 71.017a1.465 1.465 0 1 0-2.072 2.072 22.081 22.081 0 0 1 0 31.212 1.465 1.465 0 1 0 2.072 2.072 25.011 25.011 0 0 0 0-35.355z" transform="translate(0 -70.587) translate(-371.278)"/>
        <path d="M368.54 116.436a1.465 1.465 0 0 0-2.072 2.072 15.805 15.805 0 0 1 0 22.341 1.465 1.465 0 0 0 2.072 2.072 18.735 18.735 0 0 0 0-26.484z" transform="translate(0 -70.587) translate(-330.293 -40.984)"/>
        <path d="M323.087 161.888a1.465 1.465 0 1 0-2.072 2.072 9.525 9.525 0 0 1 0 13.464 1.465 1.465 0 0 0 2.072 2.072 12.455 12.455 0 0 0 0-17.607z" transform="translate(0 -70.587) translate(-289.279 -81.998)"/>
        <path d="M2.93 88.695a21.923 21.923 0 0 1 6.46-15.606 1.465 1.465 0 0 0-2.072-2.072 25.011 25.011 0 0 0 0 35.355 1.465 1.465 0 1 0 2.071-2.072A21.923 21.923 0 0 1 2.93 88.695z" transform="translate(0 -70.587)"/>
        <path d="M67.149 129.678a15.692 15.692 0 0 1 4.624-11.171 1.465 1.465 0 0 0-2.072-2.072 18.735 18.735 0 0 0 0 26.484 1.465 1.465 0 1 0 2.072-2.072 15.692 15.692 0 0 1-4.624-11.169z" transform="translate(0 -70.587) translate(-57.948 -40.984)"/>
        <path d="M134.2 161.889a1.465 1.465 0 0 0-2.072 0 12.455 12.455 0 0 0 0 17.607 1.465 1.465 0 1 0 2.072-2.072 9.525 9.525 0 0 1 0-13.464 1.465 1.465 0 0 0 0-2.072z" transform="translate(0 -70.587) translate(-115.94 -81.998)"/>
        <path d="M198.972 192.8a6.172 6.172 0 1 0 6.172 6.172 6.179 6.179 0 0 0-6.172-6.172zm0 9.414a3.242 3.242 0 1 1 3.242-3.242 3.246 3.246 0 0 1-3.242 3.242z" transform="translate(0 -70.587) translate(-173.972 -110.278)"/>
    </g>
</svg>
