<svg xmlns="http://www.w3.org/2000/svg" width="30.43" height="50" viewBox="0 0 30.43 50">
    <path d="M25.731 0H4.7A4.7 4.7 0 0 0 0 4.7v40.6A4.7 4.7 0 0 0 4.7 50h21.031a4.7 4.7 0 0 0 4.7-4.7V4.7a4.7 4.7 0 0 0-4.7-4.7zM27.4 45.3a1.669 1.669 0 0 1-1.667 1.668H4.7A1.669 1.669 0 0 1 3.032 45.3v-3.982H27.4zm0-7.014H3.032V11.714H27.4zm0-29.6H3.032V4.7A1.669 1.669 0 0 1 4.7 3.032h21.031A1.669 1.669 0 0 1 27.4 4.7zm0 0"/>
    <path d="M126.047 44.855H120.9a1.516 1.516 0 1 0 0 3.032h5.152a1.516 1.516 0 1 0 0-3.032zm0 0" transform="translate(-107.721 -40.475)"/>
    <path d="M120.9 439.516h5.152a1.516 1.516 0 1 0 0-3.032H120.9a1.516 1.516 0 1 0 0 3.032zm0 0" transform="translate(-107.721 -393.859)"/>
    <path d="M56.536 168.344h5.39a1.516 1.516 0 0 0 1.516-1.516v-5.39a1.516 1.516 0 0 0-1.516-1.516h-5.39a1.517 1.517 0 0 0-1.516 1.516v5.39a1.516 1.516 0 0 0 1.516 1.516zm1.516-5.39h2.358v2.358h-2.358zm0 0" transform="translate(-49.647 -144.305)"/>
    <path d="M171.762 168.344h5.39a1.516 1.516 0 0 0 1.516-1.516v-5.39a1.516 1.516 0 0 0-1.516-1.516h-5.39a1.516 1.516 0 0 0-1.516 1.516v5.39a1.516 1.516 0 0 0 1.516 1.516zm1.516-5.39h2.358v2.358h-2.358zm0 0" transform="translate(-153.62 -144.305)"/>
    <path d="M56.536 274.255h5.39a1.516 1.516 0 0 0 1.516-1.516v-5.39a1.516 1.516 0 0 0-1.516-1.516h-5.39a1.516 1.516 0 0 0-1.516 1.516v5.39a1.517 1.517 0 0 0 1.516 1.516zm1.516-5.391h2.358v2.358h-2.358zm0 0" transform="translate(-49.647 -239.872)"/>
    <path d="M171.762 274.255h5.39a1.516 1.516 0 0 0 1.516-1.516v-5.39a1.516 1.516 0 0 0-1.516-1.516h-5.39a1.516 1.516 0 0 0-1.516 1.516v5.39a1.516 1.516 0 0 0 1.516 1.516zm1.516-5.391h2.358v2.358h-2.358zm0 0" transform="translate(-153.62 -239.872)"/>
</svg>
