<svg xmlns="http://www.w3.org/2000/svg" width="50.001" height="50" viewBox="0 0 50.001 50">
    <g>
        <g>
            <g>
                <path d="M49.9 21.432L44.036 6.783a1.479 1.479 0 0 0-.711-.766L31.408.153A1.514 1.514 0 0 0 30.762 0H19.043a1.523 1.523 0 0 0-.651.153L6.576 6.015a1.477 1.477 0 0 0-.712.776L.1 21.439a1.465 1.465 0 0 0 .9 1.925l7.694 2.594v22.58A1.465 1.465 0 0 0 10.156 50h29.59a1.465 1.465 0 0 0 1.465-1.465V25.961L49 23.365a1.465 1.465 0 0 0 .9-1.933zM20.508 2.933H29.3V4.4a4.395 4.395 0 0 1-8.789 0zM8.692 22.866l-5.3-1.787 3.721-9.461 1.579 4.736zm29.59 24.207H11.621v-2.93h26.66zm.081-31.814a1.465 1.465 0 0 0-.081.482v25.473H11.621v-25.1a1.465 1.465 0 0 0-.075-.463L9.02 8.073l8.559-4.244V4.4a7.324 7.324 0 1 0 14.648 0v-.579l8.64 4.249zm2.848 7.613v-6.883l1.56-4.48 3.829 9.568z" transform="translate(0 -.003) translate(0 .003) translate(0 -.003)"/>
            </g>
        </g>
        <g>
            <g>
                <path d="M304.393 150h-2.93a1.465 1.465 0 0 0 0 2.93h2.93a1.465 1.465 0 0 0 0-2.93z" transform="translate(0 -.003) translate(29.297 14.651) translate(-299.998 -150.001)"/>
            </g>
        </g>
    </g>
</svg>
