<svg xmlns="http://www.w3.org/2000/svg" width="28.756" height="50" viewBox="0 0 28.756 50">
    <g>
        <g>
            <path d="M123.064 50a1.464 1.464 0 0 1-1.464-1.464V28.351l-10.332 9.337a1.464 1.464 0 0 1-1.963-2.173l11.578-10.464-11.561-10.132a1.464 1.464 0 1 1 1.93-2.2l10.348 9.068V1.464a1.464 1.464 0 0 1 2.45-1.082l13 11.839a1.464 1.464 0 0 1 0 2.169l-11.763 10.629 11.792 10.335a1.464 1.464 0 0 1 .03 2.175l-13.05 12.081a1.464 1.464 0 0 1-.995.39zm1.464-21.753v16.938l9.4-8.7zm0-23.47v16.981l9.36-8.459z" transform="translate(-108.823) translate(108.823) translate(-108.823)"/>
        </g>
    </g>
</svg>
