<svg xmlns="http://www.w3.org/2000/svg" width="50" height="50" viewBox="0 0 50 50">
    <g>
        <g>
            <path d="M48.535 26.465h-2.587a10.8 10.8 0 0 0 1.073-4.683c0-5.3-3.643-9.721-8.789-9.721a7.915 7.915 0 0 0-5.811 2.526V4.395A4.4 4.4 0 0 0 28.027 0H4.395A4.4 4.4 0 0 0 0 4.395v41.21A4.4 4.4 0 0 0 4.395 50h23.632a4.4 4.4 0 0 0 4.395-4.395V40.5c1.131-1.012 2.208-1.955 3.253-2.871a65.657 65.657 0 0 0 8.449-8.237h4.411a1.465 1.465 0 0 0 0-2.93zM2.93 4.395A1.467 1.467 0 0 1 4.395 2.93h23.632a1.467 1.467 0 0 1 1.465 1.465v1.464H2.93zm0 4.395h26.562v5.9a7.937 7.937 0 0 0-5.908-2.627c-5.161 0-8.789 4.438-8.789 9.721a10.8 10.8 0 0 0 1.073 4.683h-2.489a1.465 1.465 0 0 0 0 2.93h4.314a65.655 65.655 0 0 0 8.449 8.237l.63.552H2.93zm26.562 36.815a1.467 1.467 0 0 1-1.465 1.465H4.395a1.467 1.467 0 0 1-1.465-1.465v-4.492h26.562zm4.252-10.178c-.916.8-1.854 1.625-2.836 2.5-.981-.873-1.92-1.7-2.836-2.5-2.632-2.307-4.839-4.241-6.529-6.033H25.1a1.465 1.465 0 0 0 1.219-.652l1.268-1.9 1.983 5.948a1.465 1.465 0 0 0 2.608.349l2.495-3.752h5.6c-1.69 1.79-3.897 3.734-6.529 6.041zm8.874-8.963h-8.731a1.465 1.465 0 0 0-1.219.652L31.4 29.02l-1.983-5.948a1.465 1.465 0 0 0-2.608-.349l-2.495 3.742H19.2a8.548 8.548 0 0 1-1.474-4.683c0-3.872 2.519-6.792 5.859-6.792a5.387 5.387 0 0 1 4.5 2.6 10.586 10.586 0 0 1 1.41 2.908 1.465 1.465 0 0 0 2.83 0c.015-.055 1.519-5.5 5.909-5.5 3.34 0 5.859 2.92 5.859 6.792a8.548 8.548 0 0 1-1.475 4.675z" transform="translate(-4) translate(4)"/>
        </g>
    </g>
</svg>
