<svg xmlns="http://www.w3.org/2000/svg" width="46.516" height="30"><path fill="#221e1f" d="M45.175 13.661h-6.283A10.1 10.1 0 0023.258 2.118 10.1 10.1 0 007.619 13.661H1.342a1.342 1.342 0 100 2.684h7.8a10.271 10.271 0 00.791.889l12.379 12.379a1.355 1.355 0 001.9 0l12.374-12.38a10.142 10.142 0 00.79-.889h7.8a1.342 1.342 0 100-2.684zM9.657 10.095a7.414 7.414 0 0112.652-5.241 1.342 1.342 0 001.9 0 7.411 7.411 0 0111.736 8.806h-4.86L28.8 10.619a1.342 1.342 0 00-2.274.205l-2.485 4.97-4.11-6.849a1.342 1.342 0 00-2.351.09l-2.313 4.626h-4.7a7.37 7.37 0 01-.91-3.566zm13.6 16.671l-10.42-10.422H16.1a1.342 1.342 0 001.2-.742l1.59-3.181 4.11 6.85a1.342 1.342 0 001.15.651h.05a1.342 1.342 0 001.149-.741l2.607-5.214 1.381 1.841a1.342 1.342 0 001.073.537h3.27z"/></svg>